<?xml version="1.0"?>
<svg xmlns="http://www.w3.org/2000/svg" width="250" height="350" viewBox="0 0 250 350">
  
  <defs><clipPath id="cc_9C"><rect x="3" y="3" width="244" height="344" rx="24" ry="24"></rect></clipPath></defs>
  <rect x="3" y="3" width="244" height="344" rx="24" ry="24" fill="#f2f5f8" stroke="#dde3ea" stroke-width="2"></rect>
  <g clip-path="url(#cc_9C)"><path d="m 50.291466,22.698228 c 0,0 2.375,-1.9 2.375,-4.534 0,-1.542 -1.369,-4.102 -4.534,-4.102 -3.165,0 -4.534,2.561 -4.534,4.102 0,2.634 2.375,4.534 2.375,4.534 -2.638,-2.055 -7.341,-0.652 -7.341,3.455 0,2.056 1.68,4.318 4.318,4.318 3.165,0 4.534,-3.455 4.534,-3.455 0,0 0.402,3.938 -1.943,6.046 h 5.182 c -2.345,-2.107 -1.943,-6.046 -1.943,-6.046 0,0 1.369,3.455 4.534,3.455 2.639,0 4.318,-2.263 4.318,-4.318 0,-4.107 -4.703,-5.51 -7.341,-3.455 z" fill="#0f1729" opacity="0.16" transform="translate(180,266) scale(7.5000) translate(-48.15,-24)"></path></g>
  <text x="30" y="112" text-anchor="start" font-family="&#39;Space Grotesk&#39;, Arial, sans-serif" font-weight="700" font-size="116" letter-spacing="0" fill="#0f1729">9</text>
  <path d="m 50.291466,22.698228 c 0,0 2.375,-1.9 2.375,-4.534 0,-1.542 -1.369,-4.102 -4.534,-4.102 -3.165,0 -4.534,2.561 -4.534,4.102 0,2.634 2.375,4.534 2.375,4.534 -2.638,-2.055 -7.341,-0.652 -7.341,3.455 0,2.056 1.68,4.318 4.318,4.318 3.165,0 4.534,-3.455 4.534,-3.455 0,0 0.402,3.938 -1.943,6.046 h 5.182 c -2.345,-2.107 -1.943,-6.046 -1.943,-6.046 0,0 1.369,3.455 4.534,3.455 2.639,0 4.318,-2.263 4.318,-4.318 0,-4.107 -4.703,-5.51 -7.341,-3.455 z" fill="#0f1729" transform="translate(62,166) scale(3.9000) translate(-48.15,-24)"></path>
</svg>