<?xml version="1.0"?>
<svg xmlns="http://www.w3.org/2000/svg" width="250" height="350" viewBox="0 0 250 350">
  
  <defs><clipPath id="cc_AD"><rect x="3" y="3" width="244" height="344" rx="24" ry="24"></rect></clipPath></defs>
  <rect x="3" y="3" width="244" height="344" rx="24" ry="24" fill="#f2f5f8" stroke="#dde3ea" stroke-width="2"></rect>
  <g clip-path="url(#cc_AD)"><path d="M 3.2433274,-4.7253274 C 1.1263274,-7.5893274 0,-10.5 0,-10.5 c 0,0 -1.1263274,2.9106726 -3.2433274,5.7746726 C -5.3613274,-1.8623274 -8,0 -8,0 -8,0 -5.3613274,1.8613274 -3.2433274,4.7263274 -1.1263274,7.5893274 0,10.5 0,10.5 0,10.5 1.1263274,7.5893274 3.2433274,4.7263274 5.3613274,1.8613274 8,0 8,0 8,0 5.3613274,-1.8623274 3.2433274,-4.7253274 z" fill="#da1b1b" opacity="0.16" transform="translate(180,266) scale(7.1429) translate(0,0)"></path></g>
  <text x="30" y="112" text-anchor="start" font-family="&#39;Space Grotesk&#39;, Arial, sans-serif" font-weight="700" font-size="116" letter-spacing="0" fill="#da1b1b">A</text>
  <path d="M 3.2433274,-4.7253274 C 1.1263274,-7.5893274 0,-10.5 0,-10.5 c 0,0 -1.1263274,2.9106726 -3.2433274,5.7746726 C -5.3613274,-1.8623274 -8,0 -8,0 -8,0 -5.3613274,1.8613274 -3.2433274,4.7263274 -1.1263274,7.5893274 0,10.5 0,10.5 0,10.5 1.1263274,7.5893274 3.2433274,4.7263274 5.3613274,1.8613274 8,0 8,0 8,0 5.3613274,-1.8623274 3.2433274,-4.7253274 z" fill="#da1b1b" transform="translate(62,166) scale(3.7143) translate(0,0)"></path>
</svg>