<?xml version="1.0"?>
<svg xmlns="http://www.w3.org/2000/svg" width="250" height="350" viewBox="0 0 250 350">
  
  <defs><clipPath id="cc_AS"><rect x="3" y="3" width="244" height="344" rx="24" ry="24"></rect></clipPath></defs>
  <rect x="3" y="3" width="244" height="344" rx="24" ry="24" fill="#f2f5f8" stroke="#dde3ea" stroke-width="2"></rect>
  <g clip-path="url(#cc_AS)"><path d="M 7.989,3.103 C 7.747,-0.954 0.242,-8.59 0,-10.5 c -0.242,1.909 -7.747,9.545 -7.989,13.603 -0.169,2.868 1.695,4.057 3.39,4.057 1.8351685,-0.021581 3.3508701,-2.8006944 3.873,-3.341 0.242,0.716 -1.603,6.682 -2.179,6.682 l 5.811,0 C 2.33,10.501 0.485,4.535 0.727,3.819 1.1841472,4.3152961 2.5241276,7.0768295 4.601,7.16 6.295,7.159 8.158,5.971 7.989,3.103 z" fill="#0f1729" opacity="0.16" transform="translate(180,266) scale(7.1429) translate(0,0)"></path></g>
  <text x="30" y="112" text-anchor="start" font-family="&#39;Space Grotesk&#39;, Arial, sans-serif" font-weight="700" font-size="116" letter-spacing="0" fill="#0f1729">A</text>
  <path d="M 7.989,3.103 C 7.747,-0.954 0.242,-8.59 0,-10.5 c -0.242,1.909 -7.747,9.545 -7.989,13.603 -0.169,2.868 1.695,4.057 3.39,4.057 1.8351685,-0.021581 3.3508701,-2.8006944 3.873,-3.341 0.242,0.716 -1.603,6.682 -2.179,6.682 l 5.811,0 C 2.33,10.501 0.485,4.535 0.727,3.819 1.1841472,4.3152961 2.5241276,7.0768295 4.601,7.16 6.295,7.159 8.158,5.971 7.989,3.103 z" fill="#0f1729" transform="translate(62,166) scale(3.7143) translate(0,0)"></path>
</svg>