<?xml version="1.0"?>
<svg xmlns="http://www.w3.org/2000/svg" width="250" height="350" viewBox="0 0 250 350">
  
  <defs><clipPath id="cc_JS"><rect x="3" y="3" width="244" height="344" rx="24" ry="24"></rect></clipPath></defs>
  <rect x="3" y="3" width="244" height="344" rx="24" ry="24" fill="#f2f5f8" stroke="#dde3ea" stroke-width="2"></rect>
  <g clip-path="url(#cc_JS)"><g transform="translate(62.00,154.48) scale(0.53293)"><path d="M179 0 L186 0 L187 1 L193 25 L226 25 L226 26 L231 26 L232 20 L233 20 L233 15 L234 15 L234 12 L235 12 L235 8 L236 8 L236 6 L238 6 L239 26 L240 27 L248 27 L248 28 L255 28 L255 29 L261 29 L261 30 L268 31 L269 28 L270 28 L271 22 L273 20 L273 17 L275 15 L276 10 L284 12 L284 15 L283 15 L283 18 L282 18 L282 21 L281 21 L281 25 L280 25 L280 29 L279 29 L279 32 L278 32 L278 37 L277 37 L277 40 L276 40 L276 44 L271 44 L271 43 L256 40 L256 39 L249 39 L249 38 L243 38 L243 37 L231 37 L231 36 L184 36 L184 37 L174 37 L174 38 L160 39 L160 40 L156 40 L156 41 L150 41 L150 42 L143 43 L141 41 L141 39 L139 38 L139 36 L137 35 L137 33 L135 32 L135 30 L133 29 L133 27 L131 26 L131 24 L129 23 L129 21 L126 19 L126 17 L124 16 L124 14 L122 13 L122 11 L120 10 L120 8 L117 5 L118 4 L123 4 L123 3 L129 3 L132 6 L132 8 L135 10 L135 12 L138 14 L138 16 L141 18 L141 20 L144 22 L144 24 L147 26 L147 28 L149 30 L153 30 L153 29 L158 29 L158 28 L165 28 L165 27 L172 27 L172 26 L182 26 L183 25 L181 17 L180 17 L180 11 L179 11 L179 8 L178 8 L178 2 L177 1 L179 1Z M214 38 L216 38 L216 39 L233 39 L233 40 L246 41 L250 46 L252 46 L257 52 L259 52 L264 58 L266 58 L271 64 L273 64 L282 73 L282 87 L281 87 L278 84 L278 82 L272 76 L270 76 L265 70 L263 70 L250 57 L248 57 L244 52 L242 52 L233 43 L231 43 L230 41 L226 41 L226 43 L228 43 L241 56 L243 56 L247 61 L249 61 L254 67 L256 67 L261 73 L263 73 L268 79 L270 79 L276 86 L278 86 L281 89 L282 93 L281 93 L281 99 L280 99 L270 89 L268 89 L264 84 L262 84 L260 81 L258 81 L249 72 L247 72 L245 69 L243 69 L238 63 L236 63 L233 59 L231 59 L216 44 L214 44 L212 41 L208 41 L208 40 L207 40 L207 42 L209 44 L211 44 L211 46 L213 46 L221 55 L223 55 L231 64 L233 64 L243 74 L245 74 L248 78 L250 78 L258 86 L260 86 L267 93 L269 93 L271 96 L273 96 L275 99 L277 99 L280 103 L282 103 L283 105 L285 105 L289 109 L289 111 L291 113 L291 117 L292 117 L292 126 L283 125 L282 123 L285 123 L285 122 L283 122 L282 120 L276 118 L274 115 L270 114 L265 109 L263 109 L262 107 L258 106 L257 104 L253 103 L252 101 L250 101 L249 99 L247 99 L245 97 L245 99 L250 104 L252 104 L258 110 L260 110 L261 112 L263 112 L264 114 L269 116 L271 119 L273 119 L278 126 L280 126 L283 129 L286 129 L286 130 L290 131 L290 132 L280 131 L280 130 L276 130 L276 129 L272 129 L270 127 L267 127 L267 126 L263 125 L262 123 L260 123 L259 121 L257 121 L252 116 L250 116 L247 112 L246 112 L247 116 L257 126 L259 126 L259 127 L261 127 L261 128 L263 128 L263 129 L265 129 L269 132 L277 132 L277 133 L281 133 L281 134 L284 134 L284 135 L290 135 L292 137 L295 137 L296 139 L298 139 L298 141 L301 144 L301 150 L300 150 L300 153 L299 153 L298 156 L297 156 L297 151 L296 151 L295 147 L292 146 L289 143 L279 141 L279 142 L269 142 L269 143 L263 143 L263 144 L271 145 L271 146 L281 145 L281 146 L290 147 L295 153 L296 162 L299 165 L302 165 L302 166 L308 165 L305 169 L303 169 L301 171 L294 171 L294 170 L288 169 L288 171 L286 173 L287 177 L285 177 L282 174 L277 173 L272 168 L271 169 L262 169 L262 168 L258 168 L258 167 L253 167 L253 166 L249 165 L243 159 L243 157 L241 155 L240 142 L233 136 L233 134 L231 133 L231 131 L229 129 L229 126 L225 126 L225 127 L221 126 L219 141 L218 141 L217 145 L215 146 L215 148 L210 153 L208 153 L206 156 L204 156 L202 159 L200 159 L196 164 L194 164 L190 170 L188 170 L188 179 L189 179 L191 192 L193 194 L195 207 L193 206 L193 203 L191 201 L191 198 L190 198 L190 195 L188 193 L187 187 L185 185 L185 171 L184 171 L184 169 L173 170 L173 171 L165 171 L165 170 L159 169 L156 166 L155 158 L156 158 L156 155 L157 155 L157 150 L154 149 L153 146 L152 146 L152 141 L153 140 L150 138 L151 129 L148 128 L148 127 L143 127 L138 123 L139 116 L140 116 L140 114 L143 110 L143 107 L145 105 L145 102 L146 102 L146 100 L148 98 L148 95 L149 95 L149 92 L150 92 L149 87 L144 82 L145 69 L143 69 L140 66 L139 61 L138 61 L138 55 L139 55 L139 52 L142 48 L141 53 L140 53 L140 60 L141 60 L141 63 L145 66 L145 63 L143 61 L143 52 L147 48 L147 45 L152 45 L152 44 L166 42 L166 41 L189 39 L195 46 L197 46 L214 64 L216 64 L229 77 L231 77 L234 81 L236 81 L238 84 L240 84 L242 87 L244 87 L250 93 L252 93 L253 95 L258 97 L260 100 L265 102 L267 105 L269 105 L270 107 L275 109 L281 116 L283 116 L285 118 L285 116 L282 114 L282 112 L278 108 L276 108 L273 104 L268 102 L266 99 L264 99 L262 96 L260 96 L258 93 L256 93 L254 90 L252 90 L250 87 L248 87 L246 84 L244 84 L242 81 L240 81 L237 77 L235 77 L231 72 L229 72 L225 67 L223 67 L212 55 L210 55 L197 41 L194 40 L194 39 L214 39Z M165 44 L164 45 L165 45 L166 49 L168 50 L168 52 L172 56 L167 54 L162 49 L161 45 L159 45 L159 47 L160 47 L162 53 L164 54 L164 56 L166 58 L168 58 L169 60 L171 60 L173 62 L176 62 L176 63 L184 63 L184 62 L181 62 L181 61 L175 59 L174 57 L176 57 L178 59 L181 59 L181 60 L184 60 L184 61 L187 61 L187 62 L191 62 L193 64 L199 64 L199 65 L202 65 L202 64 L200 64 L198 62 L194 62 L194 61 L191 61 L189 59 L186 59 L184 57 L181 57 L181 56 L177 55 L166 44Z M169 44 L168 45 L170 45 L173 49 L175 49 L180 54 L183 54 L183 55 L191 57 L191 58 L194 58 L194 57 L190 53 L188 53 L183 47 L181 47 L178 44 L170 44Z M253 43 L259 43 L259 44 L267 45 L269 47 L272 47 L272 48 L276 49 L278 54 L279 54 L280 61 L281 61 L281 69 L280 69 L280 67 L278 66 L278 64 L276 62 L274 62 L261 49 L259 49 L256 45 L253 44Z M153 45 L151 46 L153 56 L161 64 L159 64 L159 63 L157 63 L156 61 L153 60 L153 58 L151 56 L151 53 L149 55 L149 58 L148 58 L148 71 L147 71 L146 79 L147 79 L148 83 L151 85 L152 92 L151 92 L150 98 L148 100 L148 103 L146 105 L146 108 L143 112 L143 115 L140 119 L140 122 L142 124 L145 124 L145 125 L148 125 L148 124 L156 124 L157 125 L157 126 L150 125 L153 128 L153 134 L152 134 L153 138 L155 138 L155 139 L156 138 L163 138 L163 139 L170 139 L171 140 L171 141 L162 141 L162 140 L154 141 L154 146 L156 146 L159 149 L157 163 L158 163 L159 166 L161 166 L163 168 L172 168 L172 167 L181 166 L183 164 L189 163 L189 162 L199 158 L200 156 L202 156 L203 154 L208 152 L213 147 L213 145 L215 144 L215 142 L217 140 L217 137 L218 137 L219 124 L217 124 L216 120 L219 121 L219 122 L225 122 L225 121 L228 121 L229 119 L231 119 L234 116 L235 112 L237 111 L238 103 L239 103 L239 97 L238 97 L237 92 L234 89 L219 89 L219 88 L216 88 L216 87 L212 86 L211 84 L209 84 L206 81 L207 80 L206 77 L207 77 L212 83 L214 83 L218 86 L227 86 L227 85 L220 84 L217 81 L215 81 L214 79 L212 79 L207 74 L207 72 L205 70 L211 76 L213 76 L214 78 L216 78 L216 77 L211 72 L209 72 L207 69 L205 69 L204 67 L201 67 L199 65 L178 66 L178 65 L173 65 L173 64 L167 62 L162 57 L162 55 L160 54 L160 52 L159 52 L158 48 L156 47 L156 45 L154 45Z M149 48 L147 50 L147 53 L148 53 L149 49Z M165 49 L164 49 L165 50Z M195 58 L194 58 L195 59Z M197 74 L198 74 L201 82 L203 83 L203 85 L207 89 L209 89 L210 91 L212 91 L214 93 L217 93 L217 94 L232 94 L234 96 L234 99 L235 99 L235 104 L234 104 L233 109 L232 109 L233 100 L232 100 L231 97 L229 97 L228 98 L228 100 L229 100 L228 107 L224 111 L219 112 L218 110 L220 109 L219 106 L221 104 L221 98 L223 96 L213 97 L213 96 L209 95 L207 92 L205 92 L203 90 L203 88 L201 87 L199 81 L198 81 L197 75Z M163 75 L176 75 L176 76 L179 76 L179 77 L184 79 L183 80 L183 79 L178 79 L178 78 L171 78 L171 79 L165 79 L165 80 L160 81 L160 82 L155 82 L154 81 L155 77 L163 76Z M217 78 L216 78 L217 79Z M162 85 L165 85 L164 87 L175 88 L175 89 L179 89 L179 90 L183 91 L183 92 L178 92 L177 94 L175 94 L172 97 L164 98 L165 95 L164 95 L163 90 L159 91 L159 89 L162 88 L162 86Z M212 88 L217 89 L217 90 L222 90 L221 92 L219 92 L219 91 L216 91 L216 90 L212 89Z M169 91 L168 91 L169 92Z M171 91 L170 91 L169 96 L177 93 L175 91 L172 91Z M211 101 L212 101 L211 102Z M227 104 L223 107 L223 108 L225 108 L227 105Z M223 108 L222 108 L222 110 L223 109Z M245 109 L244 109 L244 111 L245 110Z M231 110 L232 110 L231 111Z M246 111 L245 111 L246 112Z M286 118 L285 118 L286 119Z M236 119 L235 119 L236 124 L234 122 L234 125 L235 125 L236 129 L238 130 L238 132 L242 136 L244 136 L245 138 L253 140 L253 141 L261 141 L261 140 L247 134 L240 127 L240 125 L237 122 L237 119Z M247 127 L246 127 L247 128Z M248 128 L247 128 L248 129Z M249 129 L248 129 L249 130Z M288 128 L293 128 L293 129 L296 129 L298 131 L301 131 L302 133 L304 133 L307 136 L307 138 L309 140 L309 148 L308 148 L306 153 L302 154 L304 152 L304 150 L306 149 L306 142 L305 142 L304 138 L301 135 L299 135 L298 133 L288 129Z M250 130 L249 130 L250 131Z M79 141 L82 141 L82 143 L77 145 L69 154 L72 146 L75 145 L77 142 L79 142Z M87 141 L90 141 L91 143 L89 143 L85 147 L81 148 L83 146 L83 144 L85 144 L87 142Z M244 142 L243 142 L243 144 L245 144 L244 143Z M294 142 L293 142 L294 144 L295 144 L295 142Z M246 144 L245 145 L249 146 L253 150 L255 150 L257 152 L260 152 L260 153 L264 153 L264 154 L276 154 L276 153 L278 153 L278 154 L283 155 L286 159 L286 165 L285 166 L283 164 L283 161 L281 160 L282 167 L283 167 L284 171 L286 170 L286 168 L288 166 L288 163 L289 163 L289 157 L285 152 L283 152 L281 150 L278 150 L278 149 L259 149 L257 147 L253 147 L253 146 L247 144Z M112 144 L113 145 L99 159 L95 159 L93 161 L86 162 L86 163 L83 163 L83 164 L80 164 L80 165 L77 165 L77 166 L74 166 L74 167 L71 168 L71 166 L73 166 L77 163 L80 163 L82 161 L85 161 L85 160 L87 160 L91 157 L94 157 L94 156 L98 155 L98 154 L95 154 L93 156 L85 155 L85 156 L79 157 L75 160 L74 159 L78 155 L89 152 L89 151 L93 151 L93 150 L96 150 L96 149 L99 149 L99 148 L102 148 L102 146 L105 147 L105 146 L108 146 L108 145 L112 145Z M67 147 L70 147 L70 148 L68 148 L63 153 L63 155 L61 156 L60 160 L58 161 L58 164 L57 164 L57 166 L56 166 L56 168 L55 168 L55 170 L54 170 L54 172 L51 176 L53 165 L54 165 L55 158 L56 158 L57 154 L60 153 L62 150 L67 148Z M246 148 L245 148 L246 153 L248 154 L248 156 L252 160 L254 160 L256 162 L259 162 L259 163 L264 163 L264 164 L276 163 L278 161 L276 161 L274 159 L270 159 L270 158 L258 157 L258 156 L252 154 L247 148Z M93 152 L92 152 L93 153Z M103 152 L102 152 L103 153Z M100 153 L99 154 L102 154 L101 153Z M89 154 L88 154 L89 155Z M277 155 L276 156 L279 158 L279 160 L281 160 L281 157 L278 156 L278 155Z M294 160 L293 160 L293 164 L295 166 L297 166 L294 161Z M95 161 L97 161 L97 162 L93 167 L91 167 L87 170 L78 172 L76 174 L73 174 L71 176 L65 177 L65 178 L57 181 L55 184 L53 184 L54 181 L56 180 L56 178 L58 179 L58 178 L68 174 L69 172 L72 172 L72 171 L74 171 L74 170 L76 170 L80 167 L83 167 L83 166 L85 166 L89 163 L95 162Z M68 164 L70 164 L69 167 L64 169 L68 165Z M87 171 L90 171 L90 172 L88 173 L85 180 L80 185 L79 189 L75 190 L74 192 L71 192 L70 194 L58 197 L57 199 L48 202 L50 199 L53 199 L54 197 L56 197 L56 196 L62 194 L63 192 L65 192 L65 191 L62 191 L62 192 L60 192 L58 194 L55 194 L53 196 L51 196 L52 194 L54 194 L55 192 L59 191 L60 189 L68 186 L69 184 L72 184 L72 183 L74 183 L74 182 L81 179 L81 178 L78 178 L78 179 L74 179 L74 180 L67 181 L67 182 L62 182 L62 181 L66 181 L67 179 L71 179 L75 176 L78 176 L78 175 L81 175 L81 174 L87 172Z M82 177 L81 178 L83 178 L83 177Z M297 183 L299 185 L301 185 L302 187 L304 187 L305 189 L312 192 L317 197 L319 197 L323 202 L326 203 L326 205 L315 208 L315 209 L312 209 L312 210 L309 210 L309 211 L306 211 L306 212 L302 212 L302 213 L299 213 L299 214 L287 216 L287 217 L282 217 L282 218 L263 221 L263 222 L250 223 L251 220 L254 218 L254 216 L269 201 L271 201 L275 196 L277 196 L279 193 L281 193 L282 191 L284 191 L288 187 L290 187 L294 184 L297 184Z M71 187 L70 188 L72 188 L72 187Z M69 188 L66 189 L65 191 L69 190 L70 188Z M166 187 L186 207 L186 209 L200 222 L200 224 L187 223 L175 211 L175 213 L177 214 L177 216 L181 220 L181 223 L186 228 L206 229 L206 230 L254 229 L254 228 L260 228 L260 227 L266 227 L266 226 L271 226 L271 225 L282 224 L282 223 L294 221 L294 220 L301 219 L301 218 L309 216 L308 219 L306 219 L299 227 L297 227 L293 232 L291 232 L260 263 L258 263 L238 283 L237 286 L235 286 L206 257 L206 255 L169 219 L169 217 L167 217 L165 215 L165 213 L147 196 L148 194 L151 194 L155 191 L166 188Z M49 191 L50 191 L49 192Z M74 194 L75 194 L75 196 L73 197 L71 203 L66 205 L66 206 L68 206 L68 208 L64 211 L65 212 L64 215 L62 216 L60 222 L56 226 L56 228 L53 231 L53 233 L51 234 L51 236 L44 243 L42 243 L42 245 L38 249 L38 252 L37 253 L35 252 L35 249 L42 242 L42 240 L47 236 L47 234 L46 234 L37 244 L36 244 L36 241 L48 230 L49 227 L51 227 L53 225 L53 224 L49 225 L45 229 L41 230 L38 234 L37 234 L37 231 L39 231 L43 226 L45 226 L52 219 L54 219 L54 218 L56 218 L56 217 L58 217 L59 215 L62 214 L62 213 L60 213 L60 214 L58 214 L58 215 L56 215 L52 218 L47 218 L47 220 L44 220 L43 222 L41 222 L41 221 L44 218 L49 217 L52 214 L59 211 L60 209 L64 208 L64 207 L61 207 L61 208 L55 209 L55 210 L45 214 L40 219 L39 219 L39 216 L42 213 L44 213 L45 211 L47 211 L50 208 L57 205 L58 203 L62 202 L67 197 L70 197 L70 196 L74 195Z M141 198 L143 198 L145 200 L145 202 L147 202 L147 204 L150 205 L150 207 L165 221 L165 223 L188 246 L188 248 L223 282 L223 284 L226 285 L226 287 L229 290 L232 290 L226 296 L199 269 L199 267 L168 237 L168 235 L144 212 L144 215 L158 229 L148 239 L148 241 L151 242 L150 239 L153 238 L155 236 L155 234 L157 234 L157 232 L160 231 L175 246 L175 248 L200 272 L200 274 L224 297 L224 300 L210 313 L210 315 L198 327 L193 322 L193 320 L191 320 L190 317 L188 317 L188 315 L170 298 L170 296 L142 269 L142 267 L140 267 L140 265 L108 233 L111 229 L116 230 L116 228 L119 227 L118 225 L116 225 L116 223 L120 219 L124 222 L124 220 L122 219 L123 215 L125 215 L125 217 L127 217 L129 219 L129 217 L127 216 L126 213 L129 211 L129 209 L134 204 L140 209 L140 211 L143 211 L136 204 L136 202 L138 202 L141 199Z M45 202 L46 202 L45 203Z M65 206 L64 207 L66 207 L66 206Z M134 209 L133 210 L136 212 L136 215 L138 215 L138 212 L135 209Z M174 209 L173 209 L174 210Z M175 210 L174 210 L175 211Z M63 212 L62 213 L64 213 L64 212Z M131 212 L130 212 L130 214 L131 213Z M135 215 L133 216 L132 219 L129 220 L129 222 L132 221 L135 218 L136 215Z M142 217 L141 217 L141 219 L139 219 L134 224 L134 226 L136 226 L136 227 L137 227 L137 224 L143 219 L143 217Z M332 216 L333 216 L333 243 L330 243 L330 240 L329 240 L313 256 L311 256 L300 268 L298 268 L298 247 L301 244 L303 244 L303 242 L305 242 L314 232 L316 232 L325 222 L327 222 L332 217Z M144 219 L143 219 L144 220Z M145 220 L144 220 L145 221Z M38 220 L39 220 L38 221Z M146 221 L145 221 L145 224 L141 228 L137 227 L138 230 L144 236 L147 235 L150 232 L150 230 L148 230 L148 232 L146 234 L144 234 L141 231 L141 229 L146 224 L149 226 L149 224 L146 222Z M56 222 L55 222 L56 223Z M38 222 L39 222 L38 223Z M54 223 L53 224 L55 224 L55 223Z M127 223 L126 223 L126 225 L128 225 L127 224Z M131 227 L130 227 L130 229 L138 236 L138 238 L140 240 L142 240 L142 238 L131 228Z M151 227 L150 227 L150 229 L152 229 L152 227Z M122 231 L119 233 L120 236 L124 233 L123 231Z M129 236 L125 239 L125 242 L127 242 L129 245 L131 245 L133 243 L133 240 L129 237Z M160 237 L158 239 L161 239 L163 243 L165 243 L165 241 L161 237Z M145 242 L144 242 L144 244 L146 246 L148 246 L146 242Z M155 242 L153 243 L153 246 L156 249 L158 249 L161 246 L161 244 L159 244 L156 247 L155 246 L156 242Z M51 243 L62 243 L62 244 L67 245 L70 248 L70 250 L68 250 L59 259 L48 259 L48 258 L44 258 L44 257 L40 258 L45 253 L47 253 L49 251 L52 251 L52 250 L55 250 L55 249 L51 249 L51 250 L48 250 L48 251 L45 251 L45 252 L41 253 L47 245 L51 244Z M169 244 L160 252 L161 254 L163 254 L163 252 L170 246 L170 244Z M331 244 L333 244 L333 263 L330 266 L327 266 L327 268 L325 270 L321 269 L321 266 L313 267 L314 269 L319 271 L319 276 L317 278 L313 279 L313 280 L307 281 L303 277 L300 276 L300 273 L303 272 L304 269 L306 269 L320 254 L322 254 L322 252 L324 252 L331 245Z M138 246 L133 249 L135 251 L138 247Z M149 246 L148 246 L148 248 L153 253 L155 253 L149 247Z M56 248 L55 249 L58 249 L57 248Z M142 249 L138 252 L138 255 L142 259 L145 259 L147 257 L147 255 L142 250Z M172 249 L171 249 L171 251 L173 251 L174 254 L176 254 L176 252 L173 249Z M168 253 L165 255 L165 257 L168 260 L170 260 L173 257 L173 255 L172 255 L170 258 L168 258 L167 255 L169 253Z M32 253 L33 253 L33 256 L36 258 L36 262 L39 263 L40 267 L48 268 L48 269 L54 271 L60 279 L60 292 L59 292 L59 294 L62 294 L60 296 L60 312 L61 312 L61 317 L62 317 L63 324 L62 324 L61 327 L58 327 L57 329 L55 329 L50 334 L50 336 L49 336 L50 346 L48 348 L47 353 L45 353 L45 351 L46 351 L47 346 L48 346 L48 341 L47 341 L47 338 L43 334 L41 334 L40 332 L38 332 L38 331 L29 331 L29 332 L15 333 L15 332 L18 332 L18 331 L26 330 L26 329 L29 329 L29 328 L33 328 L33 327 L45 324 L45 323 L49 322 L53 317 L52 310 L49 307 L46 306 L46 303 L44 304 L44 306 L41 309 L39 309 L36 312 L32 312 L32 313 L28 313 L28 314 L24 314 L24 315 L20 315 L20 316 L14 316 L16 314 L19 314 L19 313 L27 310 L28 308 L34 309 L34 308 L39 307 L40 305 L42 305 L44 303 L43 296 L39 295 L39 294 L26 293 L26 294 L22 294 L22 295 L16 297 L15 299 L13 299 L17 294 L19 294 L18 293 L18 285 L15 282 L19 281 L22 277 L24 277 L31 269 L31 263 L28 263 L28 264 L25 264 L21 267 L18 267 L17 269 L11 271 L7 275 L7 277 L6 277 L6 286 L7 286 L8 299 L7 299 L7 304 L5 305 L5 307 L3 309 L3 313 L4 313 L4 316 L5 316 L5 321 L4 321 L4 324 L3 324 L3 329 L6 333 L5 343 L10 348 L13 355 L21 363 L21 365 L18 365 L16 363 L14 358 L11 356 L11 354 L4 347 L4 345 L3 345 L3 333 L0 329 L0 325 L1 325 L1 322 L2 322 L1 308 L2 308 L3 304 L5 303 L4 276 L9 270 L11 270 L12 268 L14 268 L14 267 L16 267 L20 264 L23 264 L23 263 L28 262 L28 261 L33 262 L32 255 L31 255 L32 254Z M156 254 L155 255 L165 265 L167 265 L167 264 L157 254Z M180 255 L171 263 L171 265 L174 264 L175 261 L181 255Z M182 260 L181 260 L181 262 L185 264 L185 267 L182 270 L184 270 L188 266 L183 260Z M153 261 L148 266 L150 266 L155 272 L159 269 L159 267 L153 262Z M179 264 L175 268 L180 273 L182 272 L182 270 L178 269 L178 266 L180 264Z M169 267 L168 268 L177 277 L178 277 L178 275 L170 267Z M29 267 L30 267 L29 268Z M331 268 L333 268 L333 278 L328 276 L328 271 L331 269Z M41 270 L40 270 L40 272 L43 273 L41 271Z M192 270 L190 272 L188 272 L188 274 L185 276 L185 278 L187 279 L188 282 L191 282 L187 278 L188 275 L191 272 L193 272 L195 274 L195 276 L197 276 L197 274 L193 270Z M121 272 L125 275 L125 277 L123 277 L112 288 L112 290 L122 299 L122 301 L139 317 L139 319 L151 330 L151 332 L173 354 L165 364 L159 364 L159 365 L131 365 L129 363 L129 361 L125 358 L125 356 L120 352 L120 350 L115 346 L115 344 L112 342 L112 340 L103 331 L103 329 L97 323 L96 319 L92 316 L92 314 L87 310 L87 308 L80 301 L80 299 L81 299 L86 304 L86 306 L91 310 L91 312 L96 316 L96 318 L98 319 L99 310 L100 310 L100 306 L101 306 L102 300 L104 298 L104 295 L105 295 L107 289 L109 288 L109 286 L112 285 L112 283 L120 276 L121 273Z M322 272 L327 273 L327 276 L325 277 L326 282 L328 282 L328 280 L331 280 L333 282 L333 302 L331 300 L329 300 L325 295 L323 295 L319 290 L317 290 L314 286 L312 286 L310 284 L310 283 L314 282 L315 280 L319 280 L319 283 L322 282 L322 277 L321 277 L321 273 L322 273Z M39 274 L35 278 L35 280 L29 285 L29 287 L27 288 L26 291 L34 291 L35 293 L42 293 L47 297 L47 299 L51 294 L52 287 L50 287 L49 283 L40 274Z M165 274 L161 277 L161 279 L166 284 L168 284 L171 281 L171 279 L166 274Z M192 277 L190 279 L192 279 L193 277Z M199 278 L198 278 L198 280 L196 280 L195 283 L192 284 L195 287 L195 284 L199 280 L203 283 L199 288 L195 287 L197 289 L197 291 L199 291 L205 285 L205 283 L200 278Z M181 279 L180 279 L180 281 L199 300 L200 300 L200 298 L190 289 L190 287 L188 287 L188 285 L182 279Z M126 279 L128 279 L130 282 L119 293 L116 291 L116 288 L126 280Z M20 283 L19 283 L19 285 L20 284Z M298 282 L302 283 L305 287 L307 287 L310 291 L312 291 L316 296 L318 296 L322 301 L324 301 L329 306 L300 335 L298 335 L298 283Z M55 284 L54 284 L55 285Z M177 285 L172 290 L178 296 L183 292 L177 286Z M131 285 L134 285 L135 288 L125 298 L123 298 L121 296 L121 294 L123 292 L125 292 L125 290 L127 290 L131 286Z M209 287 L201 295 L205 300 L206 300 L206 298 L203 295 L208 290 L210 290 L212 292 L210 287Z M49 288 L51 288 L51 289 L49 289Z M136 290 L139 290 L140 294 L130 304 L126 301 L136 291Z M75 291 L77 292 L77 294 L75 292Z M210 294 L208 296 L211 299 L213 299 L210 295Z M215 294 L214 295 L216 296 L217 299 L214 303 L211 304 L212 306 L220 299 L220 297 L218 297 L216 294Z M63 294 L68 295 L68 307 L69 307 L69 305 L71 305 L76 310 L76 312 L83 318 L83 320 L90 326 L90 328 L95 332 L95 334 L101 339 L101 341 L110 350 L110 352 L121 363 L120 365 L113 364 L113 362 L102 351 L102 349 L97 345 L97 343 L92 339 L92 337 L87 333 L87 331 L82 327 L82 325 L69 312 L69 315 L81 327 L81 329 L87 334 L87 336 L93 341 L93 343 L98 347 L98 349 L103 353 L103 355 L107 358 L107 360 L111 364 L102 365 L99 362 L97 365 L95 365 L95 362 L94 362 L92 365 L91 364 L89 364 L89 365 L87 365 L87 364 L84 364 L84 365 L78 364 L78 365 L76 365 L70 359 L70 357 L68 357 L68 355 L62 350 L62 348 L60 346 L59 346 L57 354 L56 354 L56 363 L57 364 L56 365 L53 364 L55 350 L58 346 L57 343 L59 342 L61 337 L63 337 L64 335 L67 336 L67 314 L66 314 L66 305 L65 305 L66 304 L66 295 L63 295Z M143 295 L146 297 L146 300 L136 310 L132 307 L143 296Z M290 295 L293 295 L293 364 L292 365 L233 365 L233 364 L225 364 L240 349 L240 347 L289 299 L290 296Z M188 297 L183 302 L185 302 L185 304 L188 307 L191 307 L194 304 L188 298Z M201 300 L200 301 L209 310 L210 310 L210 308 L202 300Z M210 300 L209 300 L209 303 L210 303 L210 301Z M148 301 L151 303 L151 306 L142 315 L138 314 L138 311 L145 304 L147 304 L147 302 L148 302Z M211 303 L210 303 L211 304Z M153 307 L155 307 L157 309 L157 311 L155 313 L153 313 L146 321 L143 319 L143 317 L150 310 L152 310 L152 308 L153 308Z M199 308 L195 311 L195 314 L199 318 L204 314 L200 310 L200 308Z M211 310 L210 310 L211 311Z M69 311 L68 311 L69 312Z M332 310 L333 310 L333 329 L330 332 L328 332 L324 337 L322 336 L322 334 L320 332 L315 333 L319 337 L319 342 L318 343 L315 343 L315 344 L312 344 L312 345 L304 345 L304 344 L301 343 L301 340 L306 335 L308 335 L332 311Z M159 312 L161 313 L162 316 L152 325 L152 327 L148 325 L148 323 L159 313Z M163 319 L166 319 L168 322 L157 333 L153 330 L163 320Z M71 322 L70 322 L70 325 L72 325 L72 323 L71 323Z M45 325 L42 326 L42 327 L37 328 L37 329 L45 332 L45 334 L47 334 L47 327 L45 326Z M74 326 L73 326 L74 327Z M170 325 L172 325 L175 328 L174 332 L172 333 L170 338 L166 342 L163 339 L168 335 L168 333 L171 331 L171 329 L162 338 L159 336 L168 326 L170 326Z M75 328 L74 328 L74 330 L76 328Z M172 328 L171 328 L172 329Z M71 330 L70 330 L71 333 L74 331 L74 330 L72 330Z M79 332 L78 333 L80 334 L80 336 L81 336 L80 332Z M71 333 L70 333 L71 334Z M178 332 L181 334 L181 337 L179 339 L177 339 L176 342 L171 347 L168 346 L168 343 L178 333Z M77 334 L76 334 L77 335Z M75 335 L73 337 L76 340 L77 340 L76 335Z M331 334 L333 334 L333 344 L331 344 L329 342 L329 340 L327 339 L331 335Z M68 336 L67 336 L68 337Z M72 338 L70 339 L70 342 L72 342 L72 344 L75 345 L75 343 L72 341 L72 339Z M183 338 L186 339 L186 341 L175 352 L173 351 L173 348 L183 339Z M323 338 L327 340 L326 348 L328 346 L333 347 L333 358 L330 362 L328 362 L327 360 L325 360 L324 358 L322 358 L321 356 L319 356 L318 354 L313 352 L311 349 L309 349 L309 348 L312 348 L312 347 L314 347 L318 344 L319 344 L319 348 L321 348 L322 347 L321 340 L323 339Z M85 340 L83 342 L87 342 L87 340 L86 340Z M63 341 L62 341 L62 343 L64 345 L65 345 L64 341Z M83 342 L80 344 L80 346 L82 346 L83 343Z M88 342 L87 342 L87 344 L89 344 L88 343Z M33 344 L37 346 L37 349 L38 349 L39 355 L40 355 L40 361 L38 360 L37 355 L32 350 L29 349 L27 352 L25 352 L25 350 L27 348 L21 348 L23 346 L33 345Z M66 345 L65 346 L67 348 L69 347 L69 345 L67 345Z M87 345 L86 345 L87 346Z M76 346 L75 346 L76 347Z M80 346 L79 346 L80 347Z M83 346 L82 346 L83 348 L86 347 L86 346 L84 346Z M91 346 L90 346 L91 347 L90 350 L92 349 L92 346Z M77 347 L76 347 L77 348Z M79 347 L77 348 L79 352 L81 352 L79 350 L79 348Z M298 348 L301 348 L302 350 L304 350 L305 352 L307 352 L311 356 L315 357 L316 359 L318 359 L320 362 L322 362 L324 364 L324 365 L299 365 L298 364 L298 349Z M71 350 L70 350 L70 352 L73 355 L76 355 L76 354 L72 350Z M90 350 L86 353 L86 355 L87 355 L88 353 L90 353 L90 351Z M95 350 L94 350 L94 352 L97 354 L97 352 L95 351Z M42 352 L43 352 L42 353Z M83 353 L82 353 L83 357 L87 361 L89 361 L83 354Z M98 354 L97 354 L98 355Z M95 355 L93 356 L93 357 L95 357 L95 356Z M78 357 L76 359 L80 363 L82 361 L80 360 L79 357Z M92 357 L90 358 L90 360 L93 357Z M100 357 L98 358 L98 359 L100 359 L100 358Z M98 359 L95 361 L95 362 L97 362 L98 360Z M102 360 L101 361 L103 361 L103 362 L104 362 L104 360 L103 360Z" fill="#0f1729" fill-rule="evenodd"></path><path d="M156 0 L171 0 L171 1 L156 1Z M177 0 L179 0 L179 1 L177 1Z M186 0 L187 0 L186 1Z M192 0 L196 0 L196 1 L193 1 L193 2 L192 1Z M211 0 L221 0 L221 1 L211 1Z M145 1 L149 1 L149 2 L145 2Z M228 1 L232 2 L232 3 L228 2Z M138 2 L140 2 L140 3 L138 3 L138 4 L137 4 L138 3Z M177 2 L178 2 L178 5 L177 5 L177 3Z M187 2 L188 2 L188 4 L187 3Z M120 3 L123 3 L123 4 L120 4Z M129 3 L131 4 L131 5 L129 4Z M246 3 L249 3 L249 4 L246 4Z M117 4 L118 4 L117 5Z M172 4 L173 4 L173 6 L172 5Z M193 4 L194 4 L193 5Z M253 4 L255 4 L255 5 L253 5Z M230 5 L231 5 L231 7 L230 6Z M237 5 L238 5 L237 6Z M258 5 L261 5 L261 6 L258 6Z M139 6 L140 6 L139 7Z M188 6 L189 6 L189 8 L188 7Z M235 6 L236 6 L236 8 L235 7Z M263 6 L265 6 L265 7 L263 7Z M132 7 L134 8 L134 9 L132 8Z M194 7 L195 7 L195 9 L194 8Z M238 7 L239 7 L239 14 L238 14 L238 8Z M267 7 L268 7 L267 8Z M119 8 L120 8 L119 9Z M173 8 L174 8 L174 10 L173 9Z M178 8 L179 8 L178 9Z M229 9 L230 9 L230 11 L229 10Z M142 10 L143 10 L142 11Z M189 10 L190 10 L189 11Z M270 10 L271 10 L270 11Z M278 10 L280 10 L280 11 L278 11Z M121 11 L122 11 L121 12Z M135 11 L137 12 L137 13 L135 12Z M174 11 L175 11 L175 13 L174 12Z M179 11 L180 11 L180 14 L179 14 L179 12Z M234 11 L235 11 L234 12Z M275 11 L276 11 L275 12Z M281 11 L282 11 L281 12Z M195 12 L196 12 L196 14 L195 13Z M243 12 L244 12 L244 22 L243 22 L243 13Z M269 12 L270 12 L270 14 L269 13Z M144 13 L146 14 L146 15 L144 14Z M228 13 L229 13 L229 15 L228 14Z M123 14 L124 14 L123 15Z M190 14 L191 14 L191 16 L190 15Z M233 14 L234 14 L233 15Z M274 14 L275 14 L274 15Z M138 15 L140 16 L140 17 L138 16Z M196 15 L197 15 L196 16Z M268 15 L269 15 L269 17 L268 16Z M283 15 L284 15 L283 16Z M175 16 L176 16 L176 19 L175 19 L175 17Z M273 16 L274 16 L273 17Z M125 17 L126 17 L125 18Z M147 17 L148 17 L147 18Z M180 17 L181 17 L180 18Z M191 18 L192 18 L191 19Z M227 18 L228 18 L228 20 L226 21 L227 19Z M232 18 L233 18 L233 20 L232 19Z M267 18 L268 18 L268 20 L267 19Z M272 18 L273 18 L273 20 L272 19Z M282 18 L283 18 L282 19Z M141 19 L143 20 L143 21 L141 20Z M197 19 L198 19 L197 20Z M202 19 L215 19 L215 20 L202 20Z M127 20 L129 21 L129 22 L127 21Z M149 20 L151 21 L151 22 L149 21Z M181 20 L182 20 L181 21Z M169 21 L175 21 L175 22 L169 22Z M192 21 L193 21 L193 23 L192 22Z M266 21 L267 21 L266 22Z M271 21 L272 21 L271 22Z M281 21 L282 21 L281 22Z M161 22 L163 22 L163 23 L161 23Z M248 22 L250 22 L250 23 L248 23Z M129 23 L131 24 L131 25 L129 24Z M144 23 L146 24 L146 25 L144 24Z M154 23 L157 23 L157 24 L154 24Z M231 23 L232 23 L231 24Z M254 23 L256 23 L256 24 L254 24Z M182 24 L183 24 L182 26 L177 26 L177 25 L182 25Z M200 24 L217 24 L217 25 L200 25Z M259 24 L262 24 L262 25 L259 25Z M265 24 L266 24 L265 25Z M270 24 L271 24 L270 25Z M226 25 L231 25 L231 26 L226 26Z M280 25 L281 25 L280 26Z M131 26 L133 27 L133 28 L131 27Z M168 26 L172 26 L172 27 L168 27Z M240 26 L244 26 L244 27 L240 27Z M147 27 L148 27 L147 28Z M163 27 L165 27 L165 28 L163 28Z M248 27 L250 27 L250 28 L248 28Z M269 27 L270 27 L269 28Z M155 28 L158 28 L158 29 L155 29Z M255 28 L258 28 L258 29 L255 29Z M150 29 L153 29 L153 30 L150 30Z M261 29 L263 29 L263 30 L261 30Z M268 29 L269 29 L268 31 L265 31 L265 30 L268 30Z M134 30 L135 30 L134 31Z M278 32 L279 32 L279 34 L278 33Z M136 33 L137 33 L136 34Z M137 35 L139 36 L139 37 L137 36Z M184 36 L192 36 L192 37 L184 37Z M221 36 L231 36 L231 37 L221 37Z M174 37 L177 37 L177 38 L174 38Z M240 37 L243 37 L243 38 L240 38Z M277 37 L278 37 L277 38Z M167 38 L170 38 L170 39 L167 39Z M194 38 L214 38 L214 39 L194 39Z M216 38 L222 38 L222 39 L216 39Z M246 38 L249 38 L249 39 L246 39Z M140 39 L141 39 L140 40Z M160 39 L164 39 L164 40 L160 40Z M178 39 L181 39 L181 40 L178 40Z M189 39 L196 45 L195 46 L189 40Z M233 39 L235 39 L235 40 L233 40Z M252 39 L256 39 L256 40 L252 40Z M156 40 L157 40 L156 41Z M170 40 L175 40 L175 41 L170 41Z M207 40 L210 43 L209 44 L207 41Z M241 40 L244 40 L244 41 L241 41Z M259 40 L260 40 L259 41Z M276 40 L277 40 L276 41Z M150 41 L153 41 L153 42 L150 42Z M164 41 L166 41 L166 42 L164 42Z M196 41 L202 46 L201 47 L196 42Z M211 41 L212 41 L211 42Z M226 41 L231 42 L231 43 L230 42 L226 43 L226 42Z M263 41 L264 41 L263 42Z M142 42 L144 43 L144 44 L142 43Z M146 42 L147 42 L146 43Z M159 42 L161 42 L161 43 L159 43Z M253 42 L256 42 L256 43 L253 43Z M267 42 L268 42 L267 43Z M153 43 L156 43 L156 44 L153 44Z M232 43 L236 46 L235 47 L232 44Z M248 43 L251 45 L250 46 L248 44Z M259 43 L261 43 L261 44 L259 44Z M270 43 L271 43 L270 44Z M148 44 L153 45 L152 50 L151 50 L152 45 L148 45Z M164 44 L166 44 L170 48 L169 49 L167 46 L165 47 L166 45 L164 45Z M168 44 L178 44 L178 46 L180 45 L181 48 L183 47 L185 49 L184 51 L185 51 L186 54 L190 53 L193 56 L193 57 L188 57 L188 55 L185 56 L186 54 L183 54 L183 53 L180 54 L181 52 L179 50 L177 50 L175 48 L173 49 L172 46 L168 45Z M215 44 L218 46 L217 47 L215 45Z M263 44 L265 44 L265 45 L263 45Z M273 44 L276 44 L276 45 L273 45Z M155 45 L158 48 L158 49 L155 49 L155 46Z M160 45 L161 45 L160 46Z M211 45 L212 45 L211 46Z M230 45 L234 48 L233 49 L230 46Z M255 45 L257 46 L257 47 L255 46Z M267 45 L268 45 L267 46Z M174 47 L173 47 L174 48Z M269 46 L271 46 L271 47 L269 47Z M142 47 L143 47 L143 49 L142 48Z M146 47 L147 48 L144 50 L146 48Z M161 47 L162 47 L161 48Z M183 48 L182 48 L183 49Z M237 47 L240 49 L239 50 L237 48Z M148 48 L149 48 L148 49Z M166 48 L168 49 L168 50 L166 49Z M203 48 L204 48 L203 49Z M254 48 L258 51 L257 52 L254 49Z M274 48 L275 48 L274 49Z M140 49 L141 49 L140 52 L139 52 L139 50 L140 50Z M153 49 L154 49 L154 51 L153 50Z M162 49 L163 50 L165 49 L164 51 L167 53 L166 54 L162 50Z M260 49 L263 51 L262 52 L260 50Z M147 50 L149 50 L149 51 L147 51Z M158 50 L159 50 L158 51Z M143 51 L144 51 L143 52Z M168 51 L169 51 L168 52Z M177 51 L178 51 L177 52Z M202 51 L203 51 L202 52Z M218 51 L222 54 L221 55 L218 52Z M277 51 L278 51 L277 52Z M147 52 L148 52 L147 53Z M152 52 L153 52 L152 53Z M159 52 L160 52 L159 53Z M162 52 L163 52 L162 53Z M224 52 L229 56 L228 57 L224 53Z M243 52 L246 54 L245 55 L243 53Z M140 53 L141 53 L141 60 L140 60 L140 54Z M150 53 L151 53 L151 55 L149 56 L150 54Z M170 53 L171 53 L170 54Z M175 53 L177 54 L177 55 L175 54Z M190 54 L189 54 L190 55Z M239 53 L242 55 L241 56 L239 54Z M260 53 L261 53 L260 54Z M278 53 L279 53 L278 54Z M138 54 L139 54 L138 55Z M160 54 L162 55 L162 56 L160 55Z M168 54 L170 55 L170 56 L168 55Z M205 54 L206 54 L205 55Z M142 55 L143 55 L143 58 L142 58 L142 56Z M153 55 L154 55 L153 56Z M164 55 L167 57 L166 58 L164 56Z M178 55 L179 55 L178 56Z M211 55 L218 61 L217 62 L211 56Z M262 55 L265 57 L264 58 L262 56Z M151 56 L152 56 L151 57Z M171 56 L172 56 L171 57Z M173 56 L175 56 L174 57 L175 59 L173 57Z M180 56 L181 56 L180 57Z M207 56 L208 56 L207 57Z M268 56 L272 59 L271 60 L268 57Z M279 56 L280 56 L279 57Z M183 57 L184 57 L183 58Z M249 57 L254 61 L253 62 L249 58Z M148 58 L149 58 L149 63 L148 63 L148 59Z M152 58 L153 58 L152 59Z M155 58 L156 58 L155 59Z M178 58 L180 58 L180 59 L178 59Z M185 58 L186 58 L185 59Z M194 58 L195 58 L194 59Z M209 58 L215 63 L214 64 L209 59Z M226 58 L232 63 L231 64 L226 59Z M245 58 L248 60 L247 61 L245 59Z M169 59 L170 59 L169 60Z M176 59 L177 59 L176 60Z M181 59 L182 59 L181 60Z M187 59 L189 59 L189 60 L187 60Z M232 59 L235 61 L234 62 L232 60Z M280 59 L281 59 L281 61 L280 60Z M157 60 L159 61 L159 62 L157 61Z M171 60 L172 60 L171 61Z M178 60 L179 60 L178 61Z M184 60 L185 60 L184 61Z M190 60 L191 60 L190 61Z M138 61 L139 61 L138 62Z M143 61 L144 61 L143 62Z M155 61 L157 62 L157 63 L155 62Z M173 61 L174 61 L173 62Z M180 61 L181 61 L180 62Z M187 61 L188 61 L187 62Z M193 61 L194 61 L193 62Z M269 61 L272 63 L271 64 L269 62Z M141 62 L142 62 L141 63Z M168 62 L169 62 L168 63Z M183 62 L184 62 L183 63Z M197 62 L198 62 L197 64 L193 64 L193 63 L197 63Z M275 62 L278 64 L277 65 L275 63Z M144 63 L145 63 L144 64Z M158 63 L159 63 L158 64Z M161 63 L162 63 L161 64Z M170 63 L171 63 L170 64Z M199 63 L202 64 L202 65 L199 65 L199 66 L204 67 L205 69 L208 70 L209 73 L211 72 L217 78 L217 79 L214 78 L213 75 L211 76 L207 72 L207 74 L212 79 L211 80 L213 82 L212 83 L210 81 L211 79 L207 75 L205 75 L206 79 L207 79 L206 81 L209 84 L211 84 L210 86 L212 87 L212 89 L216 87 L215 89 L212 90 L208 86 L208 83 L205 81 L200 68 L197 67 L198 70 L199 70 L199 73 L198 73 L199 76 L198 76 L197 70 L192 66 L192 65 L199 65 L199 64Z M237 63 L241 66 L240 67 L237 64Z M256 63 L260 66 L259 67 L256 64Z M139 64 L140 64 L139 65Z M172 64 L173 64 L172 65Z M252 64 L255 66 L254 67 L252 65Z M176 65 L178 65 L178 66 L176 66Z M183 65 L188 65 L188 66 L183 66Z M281 65 L282 65 L282 70 L280 70 L281 72 L275 67 L276 66 L280 70 L281 66Z M218 66 L219 66 L218 67Z M235 66 L238 68 L237 69 L235 67Z M224 67 L227 69 L226 70 L224 68Z M279 67 L280 67 L279 68Z M220 68 L224 71 L223 72 L220 69Z M144 69 L145 69 L145 73 L144 73 L144 70Z M206 70 L205 70 L206 71Z M244 69 L246 70 L246 71 L244 70Z M207 71 L206 71 L207 72Z M259 70 L262 72 L261 73 L259 71Z M264 70 L266 71 L266 72 L264 71Z M147 71 L148 71 L147 72Z M241 71 L244 73 L243 74 L241 72Z M211 73 L210 73 L211 74Z M230 72 L233 74 L232 75 L230 73Z M248 72 L251 74 L250 75 L248 73Z M205 74 L204 74 L205 75Z M212 74 L211 74 L212 75Z M267 73 L268 73 L267 74Z M167 74 L175 74 L175 75 L167 75Z M227 74 L230 76 L229 77 L227 75Z M161 75 L163 75 L163 76 L161 76Z M176 75 L178 75 L178 76 L176 76Z M265 75 L269 78 L268 79 L265 76Z M143 76 L144 76 L144 80 L143 80 L143 77Z M146 76 L147 76 L147 79 L146 79 L146 77Z M156 76 L158 76 L158 77 L156 77Z M179 76 L180 76 L179 77Z M247 76 L249 77 L249 78 L247 77Z M271 76 L278 82 L277 83 L271 77Z M282 76 L283 76 L283 87 L282 87 L282 77Z M154 77 L155 77 L154 78Z M181 77 L182 77 L181 78Z M197 77 L198 77 L198 80 L197 80 L197 78Z M199 77 L200 77 L199 78Z M236 77 L238 78 L238 79 L236 78Z M254 77 L257 79 L256 80 L254 78Z M171 78 L178 78 L178 79 L171 79Z M183 78 L185 79 L185 81 L184 81 L184 79 L181 80 L181 79 L183 79Z M232 78 L235 80 L234 81 L232 79Z M165 79 L168 79 L168 80 L165 80Z M200 79 L201 79 L200 80Z M213 79 L215 80 L215 81 L213 80Z M147 80 L148 80 L147 81Z M252 80 L254 81 L254 82 L252 81Z M160 81 L161 81 L160 82Z M198 81 L199 81 L198 82Z M201 81 L202 81 L201 82Z M216 81 L217 81 L216 82Z M241 81 L243 82 L243 83 L241 82Z M259 81 L261 82 L261 83 L259 82Z M272 81 L277 85 L276 86 L272 82Z M144 82 L146 83 L146 84 L144 83Z M148 82 L150 83 L150 84 L148 83Z M156 82 L164 83 L164 84 L171 84 L171 85 L175 85 L175 86 L178 86 L178 87 L181 88 L181 90 L179 90 L178 88 L175 89 L176 87 L162 85 L162 87 L159 89 L159 91 L163 90 L163 92 L164 92 L165 97 L162 97 L157 91 L158 83 L156 83Z M199 83 L200 83 L199 84Z M214 83 L215 83 L214 84Z M216 83 L217 83 L217 85 L216 84Z M219 83 L221 84 L219 86 L218 86 L219 84Z M238 83 L239 83 L238 84Z M256 83 L259 85 L258 86 L256 84Z M203 84 L208 88 L207 89 L203 85Z M222 84 L225 85 L225 86 L222 85Z M245 84 L248 86 L247 87 L245 85Z M263 84 L266 86 L265 87 L263 85Z M200 85 L201 85 L200 86Z M226 85 L227 85 L226 86Z M147 86 L149 87 L149 88 L147 87Z M213 86 L214 86 L213 87Z M242 86 L243 86 L242 87Z M260 86 L263 88 L262 89 L260 87Z M280 86 L281 86 L280 87Z M151 87 L152 87 L151 88Z M168 87 L171 87 L171 88 L168 88Z M249 87 L251 88 L251 89 L249 88Z M202 88 L203 88 L202 89Z M217 88 L219 88 L218 90 L217 89Z M245 88 L247 89 L247 90 L245 89Z M149 89 L150 89 L150 92 L149 92 L149 90Z M182 89 L183 89 L183 91 L182 90Z M222 89 L226 89 L226 90 L223 90 L223 92 L221 92 L222 90Z M231 89 L234 89 L234 90 L231 90Z M269 89 L274 93 L273 94 L269 90Z M210 90 L211 90 L210 91Z M215 90 L216 90 L215 91Z M253 90 L255 91 L255 92 L253 91Z M265 90 L268 92 L267 93 L265 91Z M281 90 L282 90 L281 91Z M168 91 L169 91 L168 92Z M170 91 L171 91 L171 94 L170 94 L170 92Z M172 91 L175 91 L175 92 L172 92Z M212 91 L213 91 L212 92Z M217 91 L219 91 L219 92 L217 92Z M249 91 L251 92 L251 93 L249 92Z M151 92 L152 92 L151 93Z M176 92 L177 93 L179 92 L178 94 L176 93Z M206 92 L209 95 L213 96 L213 97 L219 97 L219 98 L216 99 L215 103 L213 104 L213 109 L211 111 L211 115 L209 116 L209 114 L208 114 L206 119 L204 119 L203 121 L198 123 L200 121 L203 113 L205 112 L205 110 L208 107 L209 95 L206 93Z M214 92 L215 92 L214 93Z M174 93 L176 94 L176 95 L174 94Z M217 93 L220 93 L220 94 L217 94Z M228 93 L231 93 L231 94 L228 94Z M252 93 L254 94 L254 95 L252 94Z M257 93 L259 94 L259 95 L257 94Z M281 93 L282 93 L282 97 L281 97 L281 94Z M148 94 L149 94 L148 95Z M172 94 L173 94 L172 95Z M232 94 L234 95 L234 96 L232 95Z M237 94 L238 94 L237 95Z M270 94 L272 95 L272 96 L270 95Z M150 95 L151 95 L151 97 L150 96Z M169 95 L171 95 L171 96 L169 96Z M147 96 L148 96 L148 98 L147 97Z M172 96 L173 97 L170 100 L166 101 L164 99 L164 98 L167 98 L167 97 L169 97 L169 98 L172 97Z M221 96 L223 96 L222 98 L221 97Z M256 96 L257 96 L256 97Z M261 96 L262 96 L261 97Z M273 96 L276 98 L275 99 L273 97Z M229 97 L232 98 L233 107 L234 107 L234 108 L232 107 L232 103 L230 103 L231 105 L229 104 L229 100 L228 100 L228 98 L229 98Z M238 97 L239 97 L239 103 L238 103 L238 98Z M245 97 L246 97 L245 98Z M149 98 L150 98 L149 99Z M234 98 L235 98 L234 99Z M259 98 L261 99 L261 100 L259 99Z M279 98 L281 99 L281 100 L279 99Z M146 99 L147 99 L146 100Z M211 100 L210 100 L210 102 L212 102 L211 101Z M248 99 L249 99 L248 100Z M265 99 L268 101 L267 102 L265 100Z M148 100 L149 100 L148 101Z M278 100 L281 102 L280 103 L278 101Z M145 101 L146 101 L145 102Z M251 101 L252 101 L251 102Z M263 101 L264 101 L263 102Z M269 102 L271 103 L271 104 L269 103Z M147 103 L148 103 L147 104Z M220 103 L221 103 L220 104Z M250 103 L251 103 L250 104Z M254 103 L255 103 L254 104Z M266 103 L268 104 L268 105 L266 104Z M144 104 L145 104 L144 105Z M226 104 L227 104 L227 106 L225 108 L223 108 L223 110 L222 110 L222 108 L225 107 L226 105Z M234 104 L235 104 L234 105Z M256 104 L257 104 L256 105Z M272 104 L274 105 L274 106 L272 105Z M283 104 L284 104 L283 105Z M146 105 L147 105 L146 106Z M219 105 L220 105 L219 106Z M228 105 L230 106 L227 109 L226 108 L228 106Z M285 105 L288 107 L287 108 L285 106Z M237 106 L238 106 L238 108 L237 107Z M254 106 L255 106 L254 107Z M259 106 L260 106 L259 107Z M270 106 L271 106 L270 107Z M261 107 L262 107 L261 108Z M142 108 L143 108 L143 110 L142 109Z M145 108 L146 108 L145 109Z M219 108 L220 108 L219 109Z M231 108 L233 109 L233 110 L231 110 L232 112 L230 112 L231 109Z M257 108 L259 109 L259 110 L257 109Z M273 108 L274 108 L273 109Z M277 108 L282 112 L281 113 L277 109Z M244 109 L246 111 L245 112 L244 110Z M264 109 L266 110 L266 111 L264 110Z M144 110 L145 110 L144 111Z M236 110 L237 110 L236 111Z M289 110 L290 110 L289 111Z M141 111 L142 111 L141 112Z M218 111 L221 112 L221 113 L218 112Z M222 111 L223 111 L222 112Z M261 111 L262 111 L261 112Z M277 111 L282 115 L281 116 L277 112Z M143 112 L144 112 L143 113Z M290 112 L291 112 L290 113Z M140 113 L141 113 L140 114Z M246 113 L247 113 L246 114Z M264 113 L265 113 L264 114Z M271 114 L272 114 L271 115Z M139 115 L140 115 L139 116Z M142 115 L143 115 L142 116Z M233 115 L234 116 L230 119 L233 116Z M247 115 L249 116 L249 117 L247 116Z M267 115 L268 115 L267 116Z M273 115 L275 116 L275 117 L273 116Z M283 115 L285 116 L285 117 L283 116Z M291 115 L292 115 L292 117 L291 116Z M251 116 L253 118 L255 118 L255 119 L253 119 L251 117Z M215 117 L218 120 L218 121 L216 120 L216 122 L217 122 L216 124 L219 124 L218 125 L219 132 L217 133 L218 137 L216 136 L217 140 L215 139 L216 142 L215 142 L215 144 L213 144 L213 147 L208 152 L206 151 L205 154 L203 154 L202 156 L200 156 L199 158 L197 158 L193 161 L191 160 L191 162 L189 162 L189 163 L186 162 L186 164 L183 164 L183 165 L181 164 L181 166 L178 165 L178 167 L168 168 L169 166 L178 164 L180 162 L189 160 L189 159 L197 156 L198 154 L200 154 L202 151 L204 151 L206 148 L209 147 L209 144 L210 144 L210 142 L213 138 L215 118Z M270 117 L272 118 L272 119 L270 118Z M138 118 L139 118 L138 119Z M277 118 L278 118 L277 119Z M285 118 L286 118 L285 119Z M140 119 L141 119 L141 122 L140 122 L140 120Z M160 119 L163 121 L163 123 L160 127 L154 128 L154 131 L153 131 L153 128 L150 125 L157 126 L156 124 L145 125 L145 123 L160 123 L161 122 L160 120Z M235 119 L237 119 L237 121 L235 122 L235 125 L234 125 L235 120Z M273 119 L279 125 L278 126 L276 124 L276 122 L273 120Z M279 119 L280 119 L279 120Z M292 119 L293 119 L292 120Z M227 120 L228 120 L227 121Z M219 121 L220 121 L219 122Z M224 121 L225 121 L224 122Z M258 121 L259 121 L258 122Z M282 121 L285 122 L285 123 L282 123 L283 125 L281 124 L282 122Z M237 122 L238 122 L237 123Z M138 123 L141 125 L140 126 L138 124Z M142 123 L143 123 L142 124Z M261 123 L262 123 L261 124Z M256 124 L258 125 L258 126 L256 125Z M239 125 L240 125 L239 126Z M284 125 L287 125 L287 126 L284 126Z M142 126 L143 126 L142 127Z M221 126 L222 127 L229 126 L228 129 L230 129 L229 130 L229 131 L231 131 L230 133 L233 134 L232 136 L234 136 L240 142 L240 145 L241 145 L241 154 L240 155 L242 155 L241 157 L243 157 L243 159 L249 164 L249 165 L247 164 L247 169 L246 169 L245 174 L243 175 L244 166 L242 166 L239 163 L236 178 L235 178 L235 180 L233 182 L233 185 L231 187 L231 178 L232 178 L232 174 L233 174 L233 155 L232 155 L232 151 L231 151 L231 156 L230 156 L229 147 L228 147 L228 139 L229 138 L227 137 L225 131 L224 131 L223 140 L222 140 L220 149 L219 149 L218 153 L215 155 L215 157 L212 160 L210 160 L208 163 L201 166 L199 169 L196 169 L196 170 L193 170 L193 171 L188 171 L192 168 L192 166 L194 164 L197 164 L197 162 L200 159 L202 159 L204 156 L207 156 L208 153 L210 154 L211 151 L215 148 L215 146 L217 146 L217 143 L220 140 L219 137 L220 137 L221 127Z M235 126 L236 126 L235 127Z M259 126 L260 126 L259 127Z M266 126 L267 126 L266 127Z M290 126 L292 126 L292 127 L290 127Z M146 127 L148 127 L148 128 L146 128Z M246 127 L250 130 L249 131 L246 128Z M269 127 L270 127 L269 128Z M281 127 L282 127 L281 128Z M236 128 L237 128 L236 129Z M263 128 L264 128 L263 129Z M271 128 L272 128 L271 129Z M283 128 L284 128 L283 129Z M293 128 L295 128 L295 129 L293 129Z M242 129 L245 131 L244 132 L242 130Z M265 129 L266 129 L265 130Z M274 129 L276 129 L276 130 L274 130Z M286 129 L287 129 L286 130Z M288 129 L290 129 L289 131 L288 130Z M296 129 L297 129 L296 130Z M267 130 L268 130 L267 131Z M279 130 L280 130 L279 131Z M298 130 L299 130 L298 131Z M150 131 L151 131 L151 133 L150 132Z M238 131 L243 135 L242 136 L238 132Z M269 131 L270 131 L269 132Z M273 131 L274 131 L273 132Z M284 131 L286 131 L286 132 L284 132Z M290 131 L291 132 L294 131 L292 133 L290 133 L290 132Z M277 132 L278 132 L277 133Z M295 132 L296 132 L295 133Z M302 132 L303 132 L302 133Z M232 134 L231 134 L232 135Z M281 133 L283 133 L283 134 L281 134Z M297 133 L299 134 L299 135 L297 134Z M149 134 L150 134 L150 137 L149 137 L149 135Z M248 134 L249 134 L248 135Z M284 134 L287 134 L287 135 L284 135Z M305 134 L306 134 L305 135Z M99 135 L101 135 L101 136 L99 136Z M116 135 L118 135 L118 136 L116 136Z M152 135 L157 135 L157 136 L162 137 L162 138 L156 138 L155 139 L152 136Z M250 135 L251 135 L250 136Z M290 135 L291 135 L290 136Z M300 135 L304 138 L303 139 L300 136Z M94 136 L97 136 L97 137 L94 137Z M120 136 L123 137 L122 139 L121 139 L122 137 L120 137Z M234 137 L233 137 L234 138Z M244 136 L246 137 L246 138 L244 137Z M252 136 L253 136 L252 137Z M292 136 L294 136 L294 137 L292 137Z M91 137 L92 138 L84 144 L85 141 L87 141 L86 139 L89 140 L91 138Z M108 137 L111 138 L111 139 L108 138Z M235 138 L234 138 L235 139Z M254 137 L255 137 L254 138Z M307 137 L308 137 L307 138Z M105 138 L106 138 L106 140 L105 139Z M150 138 L153 140 L152 141 L150 139Z M163 138 L166 138 L166 139 L163 139Z M236 139 L235 139 L236 140Z M247 138 L248 138 L247 139Z M256 138 L257 138 L256 139Z M296 138 L297 138 L296 139Z M100 139 L103 140 L103 141 L100 140Z M114 139 L118 139 L118 140 L114 140Z M170 139 L171 139 L170 140Z M237 140 L236 140 L237 141Z M250 139 L251 139 L250 140Z M258 139 L260 139 L261 141 L253 141 L253 140 L258 140Z M308 139 L309 139 L308 140Z M81 140 L82 140 L81 141Z M109 140 L110 140 L109 141Z M156 140 L158 140 L158 141 L156 141Z M160 140 L162 140 L162 141 L160 141Z M298 140 L300 141 L300 142 L298 141Z M77 141 L79 141 L79 142 L77 142Z M94 141 L96 141 L96 142 L94 142Z M100 141 L101 141 L100 142Z M106 141 L107 141 L106 142Z M154 141 L155 141 L154 142Z M279 141 L280 141 L279 142Z M74 142 L76 142 L76 143 L74 143Z M82 142 L83 142 L82 143Z M92 142 L93 142 L92 143Z M98 142 L99 142 L98 143Z M103 142 L104 142 L103 143Z M243 142 L245 144 L248 144 L248 145 L245 145 L243 143Z M269 142 L271 142 L271 143 L269 143Z M283 142 L286 142 L286 143 L283 143Z M293 142 L295 142 L295 144 L293 143Z M305 142 L306 142 L306 144 L305 143Z M72 143 L73 143 L72 144Z M90 143 L91 143 L90 144Z M96 143 L97 143 L96 144Z M100 143 L101 143 L100 144Z M113 143 L114 143 L114 145 L106 152 L112 146 L111 144 L112 145 L113 144Z M151 143 L152 143 L152 145 L151 144Z M263 143 L268 144 L268 145 L263 144Z M288 143 L289 143 L288 144Z M300 143 L301 143 L300 144Z M70 144 L71 144 L70 145Z M79 144 L80 144 L79 145Z M88 144 L89 144 L88 145Z M94 144 L95 144 L94 145Z M98 144 L99 144 L98 145Z M290 144 L291 144 L290 145Z M77 145 L78 146 L70 153 L77 146Z M82 145 L83 145 L81 147 L82 149 L80 148 L82 146Z M86 145 L87 145 L86 146Z M92 145 L93 145 L92 146Z M96 145 L97 146 L102 146 L102 148 L99 148 L99 149 L96 149 L96 150 L89 151 L89 152 L85 153 L85 151 L89 150 L92 147 L94 148 L94 146 L97 147 L96 146Z M107 145 L108 145 L107 146Z M154 145 L155 145 L154 146Z M156 145 L161 146 L161 147 L164 148 L164 150 L160 151 L160 153 L159 153 L159 149 L156 146Z M250 145 L251 145 L250 146 L251 148 L249 147 L250 146Z M271 145 L272 145 L271 146Z M276 145 L279 145 L279 146 L276 146Z M281 145 L284 145 L284 146 L281 146Z M65 146 L66 146 L65 147Z M71 146 L72 146 L72 148 L68 149 L66 151 L68 148 L71 147Z M89 146 L91 146 L91 147 L89 147 L89 148 L88 148 L89 147Z M104 146 L105 146 L104 147Z M152 146 L153 146 L152 147Z M252 146 L253 146 L252 147Z M287 146 L289 146 L289 147 L287 147Z M293 146 L295 147 L295 148 L293 147Z M305 146 L306 146 L306 149 L305 149 L305 147Z M255 147 L257 147 L257 148 L255 148Z M62 148 L63 148 L62 149Z M86 148 L87 148 L86 149Z M245 148 L247 148 L251 152 L250 153 L247 149 L245 149Z M252 148 L254 149 L254 150 L252 149Z M258 148 L259 148 L258 149Z M291 148 L294 150 L293 151 L291 149Z M308 148 L309 148 L308 149Z M60 149 L61 149 L60 150Z M84 149 L85 149 L84 150Z M155 149 L157 150 L157 151 L155 150Z M262 149 L273 149 L273 150 L262 150Z M275 149 L278 149 L278 150 L275 150Z M295 149 L296 149 L295 150Z M69 150 L70 150 L69 151Z M280 150 L283 151 L283 152 L280 151Z M300 150 L301 150 L300 151Z M307 150 L308 150 L307 151Z M81 151 L82 151 L81 152Z M257 151 L258 151 L257 152Z M296 151 L297 151 L296 152Z M303 151 L304 151 L303 152Z M67 152 L68 152 L68 155 L70 154 L69 156 L66 157 L67 153Z M83 152 L84 152 L83 153Z M92 152 L93 152 L92 153Z M102 152 L103 152 L102 154 L99 154 L99 153 L102 153Z M246 152 L247 152 L246 153Z M260 152 L261 152 L260 153Z M284 152 L286 153 L286 154 L284 153Z M55 153 L56 153 L55 154Z M63 153 L64 153 L63 154Z M78 153 L79 153 L78 154Z M264 153 L274 153 L274 154 L264 154Z M275 153 L276 153 L275 154Z M278 153 L280 153 L280 154 L278 154Z M304 153 L305 153 L304 154Z M76 154 L77 154 L76 155Z M88 154 L89 154 L88 155Z M95 154 L98 154 L98 155 L95 155Z M156 154 L157 154 L156 155Z M158 154 L159 154 L159 156 L158 155Z M253 154 L254 154 L253 155Z M281 154 L282 154 L281 155Z M302 154 L303 154 L302 155Z M85 155 L86 156 L91 156 L91 158 L89 157 L89 159 L71 166 L71 168 L72 168 L72 167 L77 166 L77 165 L79 166 L80 164 L83 164 L83 163 L85 163 L85 166 L83 165 L83 167 L80 167 L80 168 L78 167 L78 169 L76 169 L72 172 L67 172 L68 174 L66 174 L66 175 L64 174 L64 176 L59 178 L62 171 L65 168 L69 167 L70 163 L73 160 L75 160 L79 157 L85 156Z M93 155 L94 155 L94 157 L93 156Z M248 155 L249 155 L248 156Z M255 155 L256 155 L255 156Z M277 155 L278 155 L278 157 L277 156Z M287 155 L288 155 L287 156Z M298 155 L299 155 L298 156Z M51 156 L52 157 L44 164 L51 157Z M55 156 L56 156 L55 157Z M61 156 L62 156 L61 157Z M257 156 L258 156 L257 157Z M279 156 L281 157 L281 158 L279 157Z M284 156 L285 156 L284 157Z M295 156 L296 156 L295 157Z M72 157 L73 158 L69 161 L72 158Z M100 157 L101 157 L100 158Z M155 157 L156 157 L155 158Z M261 157 L263 157 L263 158 L261 158Z M288 157 L289 157 L289 159 L288 158Z M60 158 L61 158 L60 159Z M157 158 L158 158 L158 163 L157 163 L157 159Z M266 158 L270 158 L270 159 L266 159Z M285 158 L286 158 L285 159Z M295 158 L296 158 L296 160 L295 159Z M53 159 L55 160 L55 162 L53 160Z M95 159 L97 159 L97 160 L95 160Z M252 159 L253 159 L252 160Z M272 159 L274 159 L274 160 L272 160Z M279 159 L280 159 L279 160Z M93 160 L95 161 L95 162 L93 162 L93 161Z M293 160 L294 160 L293 161Z M52 161 L53 161 L52 162Z M58 161 L59 161 L58 162Z M90 161 L92 161 L92 163 L90 162Z M97 161 L98 161 L97 162Z M256 161 L257 161 L256 162Z M276 161 L278 161 L278 162 L276 162 L276 163 L274 163 L274 162 L276 162Z M282 161 L283 161 L282 162Z M288 161 L289 161 L289 163 L288 162Z M86 162 L89 162 L89 164 L87 164 L87 165 L86 165 L86 163Z M247 163 L246 163 L247 164Z M259 162 L260 162 L259 163Z M294 162 L295 162 L294 164 L297 165 L297 166 L295 166 L293 164 L294 163Z M264 163 L271 163 L271 164 L264 164Z M46 164 L48 164 L47 166 L45 166 L46 168 L44 167 L46 165Z M53 164 L54 164 L53 165Z M57 164 L58 164 L57 165Z M155 164 L156 164 L155 165Z M158 164 L160 165 L160 166 L158 165Z M283 164 L284 164 L284 166 L286 165 L285 167 L284 166 L282 167 L282 165 L283 165Z M299 164 L300 164 L299 165Z M50 165 L51 165 L50 166Z M250 165 L251 165 L250 166Z M287 165 L288 165 L287 166Z M302 165 L303 165 L302 166Z M305 165 L306 165 L305 166Z M52 166 L53 166 L53 169 L52 169 L52 167Z M56 166 L57 166 L56 167Z M156 166 L159 169 L161 169 L161 170 L159 170 L156 167Z M252 166 L253 166 L252 167Z M49 167 L50 167 L49 168Z M163 167 L165 167 L165 168 L163 168Z M257 167 L258 167 L257 168Z M286 167 L287 167 L286 168Z M306 167 L307 167 L306 168Z M40 168 L41 169 L37 172 L40 169Z M55 168 L56 168 L55 169Z M61 168 L62 169 L58 172 L61 169Z M89 168 L90 168 L89 169Z M261 168 L262 168 L261 169Z M283 168 L284 168 L284 170 L283 169Z M42 169 L43 170 L40 172 L42 170Z M44 169 L45 169 L44 170Z M48 169 L49 169 L48 170Z M87 169 L88 169 L87 170Z M179 169 L184 169 L184 170 L179 170Z M266 169 L267 169 L266 170Z M285 169 L286 169 L285 170Z M288 169 L289 169 L288 170Z M290 169 L291 169 L290 170Z M303 169 L304 169 L303 170Z M54 170 L55 170 L54 171Z M84 170 L85 170 L84 171Z M89 170 L91 170 L91 171 L89 171Z M163 170 L165 170 L165 171 L163 171Z M173 170 L175 170 L175 171 L173 171Z M216 170 L217 170 L217 174 L215 176 L213 184 L212 184 L212 186 L211 186 L211 188 L208 192 L208 195 L206 197 L205 210 L204 211 L202 210 L201 206 L198 203 L197 203 L197 210 L193 207 L193 206 L195 207 L195 202 L194 202 L195 199 L193 198 L193 194 L192 194 L193 192 L191 192 L192 188 L190 188 L190 184 L189 184 L189 181 L191 181 L195 185 L203 184 L213 174 L213 172 L216 171Z M292 170 L294 170 L294 171 L292 171Z M301 170 L302 170 L301 171Z M47 171 L48 171 L48 173 L46 174 L47 172Z M81 171 L82 171 L81 172Z M86 171 L87 171 L86 172Z M184 171 L185 171 L184 172Z M263 171 L264 171 L263 172Z M287 171 L288 171 L287 172Z M296 171 L297 171 L296 172Z M43 172 L44 172 L44 174 L43 173Z M53 172 L54 172 L53 173Z M78 172 L81 174 L81 175 L79 175 L79 173 L78 173Z M89 172 L90 172 L89 173Z M36 173 L37 173 L36 174Z M39 173 L40 173 L39 174Z M51 173 L53 174 L53 175 L51 174Z M76 173 L78 174 L78 176 L76 175 L75 177 L73 177 L71 179 L67 179 L66 181 L62 181 L62 182 L67 182 L67 181 L71 181 L71 180 L73 181 L74 179 L77 179 L78 181 L76 180 L76 182 L74 181 L74 183 L72 182 L72 184 L69 184 L68 186 L65 185 L66 187 L64 187 L64 188 L60 189 L59 191 L55 192 L54 194 L52 194 L51 196 L53 196 L53 195 L55 196 L55 194 L57 194 L58 196 L54 197 L53 199 L50 199 L48 202 L50 202 L50 201 L53 202 L52 201 L53 200 L57 205 L55 204 L54 207 L50 208 L49 210 L47 210 L47 211 L45 211 L44 213 L41 214 L43 205 L46 203 L45 200 L46 200 L47 195 L50 192 L50 189 L53 186 L53 184 L55 184 L57 181 L59 181 L59 180 L61 180 L65 177 L68 177 L68 176 L71 176 L71 175 L73 176 L73 174 L76 174Z M82 173 L83 173 L82 174Z M260 173 L261 173 L260 174Z M286 173 L287 173 L286 174Z M56 174 L57 174 L56 175Z M35 175 L36 175 L35 176Z M45 175 L46 175 L46 177 L45 176Z M50 175 L51 175 L50 176Z M87 175 L88 175 L87 176Z M38 176 L39 176 L39 179 L38 179 L38 177Z M188 176 L189 176 L189 179 L188 179 L188 177Z M287 176 L290 178 L289 179 L287 177Z M42 177 L43 177 L43 184 L44 184 L44 186 L42 186 L42 178Z M54 177 L55 177 L54 178Z M81 177 L83 177 L83 178 L81 178Z M255 177 L256 178 L252 181 L255 178Z M44 178 L45 178 L45 181 L44 181 L44 179Z M57 178 L58 178 L57 179Z M78 178 L80 179 L80 180 L78 179Z M85 178 L86 178 L85 179Z M291 179 L292 179 L291 180Z M32 180 L33 180 L32 181Z M34 180 L36 180 L36 182 L34 181Z M183 180 L185 180 L185 187 L187 187 L186 190 L188 190 L188 193 L189 193 L188 196 L190 195 L189 199 L191 198 L190 202 L185 198 L184 195 L182 195 L174 187 L174 184 L176 184 L180 181 L183 181Z M51 181 L52 181 L51 182Z M83 181 L84 181 L83 182Z M31 182 L33 183 L33 184 L31 183Z M292 182 L293 182 L292 183Z M296 183 L297 183 L296 184Z M49 184 L50 184 L49 185Z M247 184 L248 184 L247 185Z M289 184 L290 184 L289 185Z M293 184 L294 184 L293 185Z M299 184 L300 184 L299 185Z M31 185 L32 186 L28 190 L29 187 L31 186Z M80 185 L81 185 L80 186Z M287 185 L288 185 L287 186Z M48 186 L49 186 L48 187Z M245 186 L246 187 L237 195 L245 187Z M285 186 L286 186 L285 187Z M289 186 L290 186 L289 187Z M302 186 L303 186 L302 187Z M70 187 L72 187 L72 188 L70 188 L69 190 L66 191 L66 189 L70 188Z M79 187 L80 187 L79 188Z M165 187 L166 187 L165 188Z M167 187 L171 190 L170 191 L167 188Z M47 188 L48 188 L47 189Z M162 188 L164 188 L164 189 L162 189Z M282 188 L283 188 L282 189Z M286 188 L287 188 L286 189Z M305 188 L306 188 L305 189Z M35 189 L36 189 L36 192 L35 192 L35 190Z M77 189 L78 189 L77 190Z M160 189 L161 189 L160 190Z M284 189 L285 189 L284 190Z M307 189 L308 189 L307 190Z M31 190 L32 190 L32 200 L31 200 L31 191Z M46 190 L47 190 L46 191Z M75 190 L76 190 L75 191Z M157 190 L158 190 L157 191Z M279 190 L280 190 L279 191Z M62 191 L63 191 L63 193 L62 194 L60 193 L60 192 L61 193 L62 192Z M64 191 L65 191 L64 192Z M154 191 L155 191 L154 192Z M281 191 L282 191 L281 192Z M310 191 L311 191 L310 192Z M27 192 L28 192 L27 193Z M45 192 L46 192 L45 193Z M71 192 L72 192 L71 193Z M152 192 L153 192 L152 193Z M58 193 L60 194 L60 195 L58 194Z M74 193 L76 193 L76 195 L75 194 L73 195 L74 194Z M149 193 L151 193 L151 194 L149 194Z M275 193 L276 193 L275 194Z M313 193 L315 194 L315 195 L313 194Z M44 194 L45 194 L44 195Z M67 194 L69 194 L69 195 L67 195Z M147 194 L148 194 L147 195Z M277 194 L278 194 L277 195Z M26 195 L27 195 L26 196Z M64 195 L65 195 L64 196Z M70 195 L72 195 L72 196 L70 196 L70 197 L68 197 L68 196 L70 196Z M174 195 L179 199 L178 200 L174 196Z M36 196 L38 198 L38 200 L37 200 L36 197Z M43 196 L44 196 L43 197Z M61 196 L63 196 L63 197 L61 197 L60 199 L59 198 L57 199 L58 197 L61 197Z M74 196 L75 196 L74 197Z M147 196 L148 196 L147 197Z M271 196 L272 197 L268 200 L271 197Z M317 196 L318 196 L317 197Z M141 197 L142 198 L137 202 L141 198Z M25 198 L26 198 L25 199Z M42 198 L43 198 L42 199Z M65 198 L66 198 L65 199Z M149 198 L151 199 L151 200 L149 199Z M272 198 L273 199 L270 201 L272 199Z M320 198 L324 201 L323 202 L320 199Z M47 200 L46 201 L48 201 L48 200Z M55 199 L56 199 L55 200Z M72 199 L73 199 L72 200Z M41 200 L42 200 L41 201Z M27 201 L28 201 L28 206 L26 205 L27 202Z M61 201 L62 201 L61 202Z M71 201 L72 201 L71 202Z M145 201 L146 201 L145 202Z M152 201 L165 213 L164 214 L152 202Z M180 201 L181 201 L180 202Z M24 202 L25 202 L25 206 L24 206 L24 203Z M59 202 L60 202 L59 203Z M264 202 L265 203 L251 216 L264 203Z M32 203 L33 203 L33 206 L32 206 L32 204Z M40 203 L41 203 L40 204Z M147 203 L148 203 L147 204Z M192 203 L193 203 L193 205 L192 204Z M228 203 L229 204 L222 210 L228 204Z M68 204 L69 204 L68 205Z M135 204 L136 204 L135 205Z M265 204 L266 204 L265 205Z M326 204 L327 204 L326 205Z M39 205 L40 205 L40 207 L39 206Z M324 205 L325 205 L324 206Z M64 206 L66 206 L66 207 L64 207 L64 208 L63 208 L64 207Z M150 206 L159 214 L158 215 L150 207Z M263 206 L264 207 L257 213 L263 207Z M321 206 L323 206 L323 207 L321 207Z M61 207 L62 207 L62 209 L61 208Z M318 207 L320 207 L320 208 L318 208Z M38 208 L39 208 L38 209Z M58 208 L60 209 L59 211 L57 210 L56 213 L52 214 L49 217 L44 218 L41 221 L41 222 L43 222 L44 220 L46 221 L47 218 L51 218 L51 221 L48 222 L45 226 L43 226 L39 231 L37 231 L39 219 L42 216 L44 216 L45 214 L47 214 L47 213 L49 214 L49 212 L51 213 L51 211 L53 212 L53 211 L56 211 L55 209 L56 210 L58 209Z M59 209 L58 209 L59 210Z M67 208 L68 208 L67 209Z M186 208 L195 216 L194 217 L186 209Z M315 208 L316 208 L315 209Z M329 208 L332 210 L331 211 L329 209Z M28 209 L29 209 L28 210Z M133 209 L134 209 L133 210Z M173 209 L187 222 L186 223 L179 215 L177 216 L178 214 L175 213 L175 211 L173 210Z M312 209 L313 209 L312 210Z M327 209 L328 209 L327 210Z M32 210 L33 210 L33 212 L32 211Z M128 210 L129 211 L126 213 L128 211Z M135 210 L138 212 L137 213 L138 215 L137 215 L136 214 L137 212 L135 212 L135 211Z M140 210 L141 210 L140 211Z M309 210 L310 210 L309 211Z M325 210 L326 210 L325 211Z M23 211 L24 211 L24 220 L23 220 L23 212Z M37 211 L38 211 L38 213 L37 212Z M220 211 L221 211 L220 212Z M306 211 L307 211 L306 212Z M63 212 L65 213 L65 214 L63 213Z M130 212 L131 212 L131 214 L130 213Z M144 212 L145 212 L145 215 L150 219 L149 220 L144 215 L144 213Z M302 212 L304 212 L304 213 L302 213Z M332 212 L333 212 L332 213Z M29 213 L30 213 L30 215 L29 214Z M60 213 L61 213 L61 215 L60 214Z M299 213 L300 213 L299 214Z M31 214 L32 214 L32 218 L30 219 L31 215Z M58 214 L59 214 L59 216 L58 217 L56 216 L56 215 L57 216 L58 215Z M124 214 L125 214 L124 215Z M126 214 L127 214 L126 215Z M255 214 L256 214 L255 215Z M295 214 L296 214 L295 215Z M320 214 L321 214 L320 215Z M330 214 L331 215 L327 218 L330 215Z M36 215 L37 215 L37 217 L36 216Z M134 215 L135 215 L134 216Z M291 215 L292 215 L291 216Z M54 216 L56 217 L56 218 L54 217 L54 219 L52 219 L52 217 L54 217Z M62 216 L63 216 L62 217Z M122 216 L123 216 L122 217Z M125 216 L126 216 L125 217Z M160 216 L161 216 L160 217Z M216 216 L217 217 L212 221 L216 217Z M287 216 L288 216 L287 217Z M306 216 L308 216 L308 217 L306 217Z M309 216 L310 216 L309 217Z M318 216 L319 216 L318 217Z M333 216 L334 216 L334 242 L333 242 L333 217Z M26 217 L27 217 L26 218Z M134 217 L135 218 L132 221 L130 220 L130 222 L129 222 L130 219 L134 218Z M141 217 L143 217 L143 218 L141 218Z M168 217 L169 217 L168 218Z M253 217 L254 217 L253 218Z M282 217 L284 217 L284 218 L282 218Z M303 217 L304 217 L303 218Z M61 218 L62 218 L61 219Z M128 218 L129 218 L128 219Z M179 218 L180 218 L179 219Z M278 218 L280 218 L280 219 L278 219Z M300 218 L301 218 L300 219Z M35 219 L36 219 L36 222 L35 222 L35 220Z M119 219 L120 219 L119 220Z M121 219 L124 220 L124 222 L121 220Z M139 219 L140 220 L142 219 L142 220 L140 222 L138 221 L134 226 L134 224 L139 220Z M140 220 L139 220 L140 221Z M143 219 L146 221 L146 225 L144 225 L145 221 L143 220Z M273 219 L276 219 L276 220 L273 220Z M296 219 L297 219 L296 220Z M306 219 L307 220 L303 223 L306 220Z M328 219 L329 220 L326 222 L328 220Z M27 220 L28 220 L28 223 L27 223 L27 221Z M60 220 L61 220 L60 221Z M247 220 L248 221 L244 225 L211 225 L211 224 L244 224 L247 221Z M268 220 L269 220 L268 221Z M293 220 L294 220 L293 221Z M117 221 L118 221 L117 222Z M181 221 L186 226 L185 227 L181 222Z M250 221 L251 221 L250 222Z M263 221 L265 221 L265 222 L263 222Z M288 221 L290 221 L290 222 L288 222Z M312 221 L313 222 L307 227 L312 222Z M55 222 L56 222 L55 224 L51 225 L51 224 L55 223Z M59 222 L60 222 L59 223Z M255 222 L259 222 L259 223 L255 223Z M284 222 L286 222 L286 223 L284 223Z M321 222 L322 223 L318 226 L321 223Z M23 223 L24 223 L24 226 L23 226 L23 224Z M126 223 L128 224 L128 225 L126 225 L126 224Z M192 223 L197 223 L197 224 L192 224Z M200 223 L201 223 L200 224Z M279 223 L282 223 L282 224 L279 224Z M148 224 L149 224 L148 225Z M156 224 L168 235 L167 236 L156 225Z M174 224 L175 224 L174 225Z M274 224 L277 224 L277 225 L274 225Z M301 224 L302 224 L301 225Z M49 225 L51 226 L51 227 L50 226 L48 227 L49 226Z M117 225 L119 226 L118 228 L117 228 L118 227 L117 226Z M270 225 L271 225 L270 226Z M28 226 L29 226 L28 227Z M34 226 L35 226 L35 229 L34 229 L34 227Z M56 226 L57 226 L56 227Z M155 226 L158 228 L157 229 L155 227Z M263 226 L266 226 L266 227 L263 227Z M320 226 L321 226 L320 227Z M26 227 L27 227 L26 228Z M46 227 L47 227 L46 228Z M130 227 L131 227 L130 228Z M137 227 L139 227 L139 228 L137 228Z M150 227 L152 227 L151 229 L150 228Z M177 227 L178 227 L177 228Z M258 227 L260 227 L260 228 L258 228Z M297 227 L298 228 L295 230 L297 228Z M55 228 L56 228 L55 229Z M111 228 L114 229 L114 230 L113 229 L110 230 L111 229Z M193 228 L200 228 L200 229 L193 229Z M250 228 L254 228 L254 229 L250 229Z M318 228 L319 229 L315 232 L318 229Z M27 229 L28 229 L27 230Z M43 229 L44 230 L48 229 L48 230 L38 240 L36 240 L37 239 L37 234 L41 230 L43 230Z M115 229 L116 229 L115 230Z M132 229 L142 238 L140 240 L138 238 L139 236 L132 230Z M138 229 L141 231 L140 232 L138 230Z M206 229 L215 229 L215 230 L206 230Z M237 229 L243 229 L243 230 L237 230Z M303 229 L304 229 L303 230Z M313 229 L314 230 L310 233 L313 230Z M24 230 L25 230 L25 234 L24 234 L24 231Z M29 230 L30 230 L30 232 L28 232 L29 231Z M148 230 L150 230 L150 232 L147 235 L146 234 L149 232 L148 231Z M173 230 L185 241 L184 242 L173 231Z M26 231 L27 231 L27 233 L26 232Z M53 231 L54 231 L53 232Z M121 231 L122 232 L119 234 L121 232Z M158 231 L159 231 L158 232Z M160 231 L164 234 L163 235 L160 232Z M301 231 L302 232 L299 234 L301 232Z M291 232 L292 233 L284 240 L291 233Z M108 233 L110 234 L110 235 L108 234Z M122 233 L123 234 L120 236 L122 234Z M156 233 L157 233 L156 234Z M27 234 L28 234 L28 236 L27 235Z M46 234 L47 234 L47 236 L44 238 L44 236 L46 235Z M51 234 L52 234 L51 235Z M143 234 L144 234 L143 235Z M308 234 L309 234 L308 235Z M311 234 L312 235 L304 242 L311 235Z M154 235 L155 236 L152 238 L154 236Z M105 236 L106 236 L105 237Z M128 236 L133 240 L132 241 L129 237 L125 240 L128 237Z M140 237 L139 237 L140 238Z M165 236 L166 236 L165 237Z M33 237 L34 237 L34 255 L32 253 L32 251 L33 251 L33 238Z M49 237 L50 238 L47 240 L49 238Z M112 237 L113 237 L112 238Z M141 238 L140 238 L141 239Z M160 237 L161 237 L160 238Z M187 237 L206 255 L205 256 L187 238Z M304 237 L305 238 L300 242 L304 238Z M25 238 L26 238 L25 239Z M28 238 L29 238 L28 239Z M107 238 L115 245 L114 246 L107 239Z M162 239 L165 241 L165 243 L164 243 L164 241 L162 242 L163 241 L162 240Z M291 239 L293 239 L293 240 L291 240 L287 244 L291 240Z M148 240 L149 241 L151 240 L150 242 L148 241Z M26 241 L27 241 L26 242Z M29 241 L30 241 L29 242Z M39 241 L42 241 L39 245 L37 245 L37 243 L39 242Z M101 241 L102 242 L99 244 L101 242Z M125 241 L126 241 L125 242Z M292 241 L293 241 L292 242Z M328 241 L329 241 L328 242Z M53 242 L59 242 L59 243 L53 243Z M132 242 L133 243 L130 245 L132 243Z M145 242 L147 243 L146 244 L147 246 L144 244 L145 243Z M146 243 L145 243 L146 244Z M154 242 L156 243 L154 245 L156 248 L158 248 L157 246 L159 244 L161 245 L158 249 L156 249 L153 246 L154 245 L153 243 L154 243Z M155 243 L154 243 L155 244Z M42 243 L43 243 L42 244Z M50 243 L51 243 L50 244Z M62 243 L63 243 L62 244Z M186 243 L187 243 L186 244Z M302 243 L303 243 L302 244Z M330 243 L334 243 L334 263 L333 263 L333 244 L330 244Z M27 244 L28 244 L28 246 L27 245Z M30 244 L31 244 L31 246 L30 245Z M48 244 L49 244 L48 245Z M65 244 L66 244 L65 245Z M160 245 L159 245 L160 246Z M168 244 L170 244 L170 246 L165 251 L163 250 L168 245Z M169 245 L168 245 L169 246Z M98 245 L99 245 L98 246Z M159 246 L158 246 L159 247Z M168 246 L167 246 L168 247Z M188 245 L221 277 L220 278 L188 246Z M323 245 L324 246 L317 252 L323 246Z M37 246 L38 246 L37 247Z M68 246 L71 248 L71 250 L70 250 L70 248 L68 247Z M107 246 L108 246 L107 247Z M109 246 L112 248 L111 249 L109 247Z M137 246 L138 246 L137 247Z M167 247 L166 247 L167 248Z M39 247 L40 247 L39 248Z M44 247 L45 247 L44 248Z M135 247 L136 247 L134 249 L135 251 L133 250 L135 248Z M148 247 L154 252 L153 253 L148 248Z M166 248 L165 248 L166 249Z M175 247 L181 252 L180 253 L175 248Z M275 247 L276 248 L270 253 L275 248Z M28 248 L29 248 L28 249Z M31 248 L32 248 L31 249Z M55 248 L58 248 L58 249 L55 249 L55 250 L53 250 L53 249 L55 249Z M96 248 L97 248 L96 249Z M165 249 L164 249 L165 250Z M38 249 L39 249 L38 250Z M51 249 L52 249 L52 251 L50 251 L51 250Z M104 249 L105 249 L104 250Z M141 249 L143 251 L141 250 L138 253 L141 250Z M171 249 L173 249 L172 251 L171 250Z M180 249 L181 249 L180 250Z M280 249 L281 249 L280 250Z M292 249 L293 249 L293 257 L292 257 L292 250Z M325 249 L326 250 L323 252 L325 250Z M29 250 L30 250 L30 253 L29 253 L29 251Z M42 250 L43 250 L42 251Z M68 250 L69 251 L66 253 L68 251Z M45 251 L47 252 L47 253 L45 252Z M48 251 L49 251 L48 252Z M125 251 L126 251 L125 252Z M174 251 L176 252 L175 254 L173 253 L174 252Z M175 252 L174 252 L175 253Z M182 251 L186 254 L185 255 L182 252Z M278 251 L279 252 L275 255 L278 252Z M37 252 L38 252 L37 256 L36 256 L36 253 L37 253Z M43 252 L44 252 L43 253 L44 255 L41 254 L41 253 L43 253Z M93 252 L94 252 L93 253Z M103 252 L104 252 L103 253Z M110 252 L111 252 L110 253Z M160 252 L161 252 L160 253Z M127 253 L129 254 L129 255 L127 254Z M162 253 L163 253 L162 254Z M167 253 L169 253 L168 255 L165 256 L167 254Z M321 253 L322 253 L321 254Z M30 254 L31 254 L30 255Z M92 254 L93 254 L92 255Z M106 254 L107 254 L106 255Z M116 254 L120 257 L119 258 L116 255 L113 258 L116 255Z M122 254 L123 254 L122 255Z M155 254 L156 254 L155 255Z M182 254 L186 257 L185 258 L182 255Z M268 254 L269 254 L268 255Z M172 255 L173 255 L173 257 L171 257 L169 259 L172 256Z M179 255 L181 255 L180 257 L177 258 L179 256Z M31 256 L32 256 L31 257Z M40 256 L41 256 L40 257 L41 259 L39 259 L39 257 L40 257Z M130 256 L140 265 L139 266 L130 257Z M146 256 L147 257 L144 259 L146 257Z M157 256 L160 259 L162 259 L162 260 L160 260 L157 257Z M187 256 L199 267 L198 268 L187 257Z M311 256 L312 257 L306 262 L311 257Z M43 257 L44 257 L43 258Z M90 257 L91 257 L90 258Z M98 257 L99 257 L98 258Z M167 257 L168 257 L167 258Z M47 258 L48 258 L47 259Z M59 258 L60 258 L59 259Z M126 258 L133 264 L132 265 L126 259Z M112 259 L113 259 L112 260Z M119 259 L120 259 L119 260Z M175 259 L176 259 L174 261 L175 263 L174 264 L172 263 L175 260Z M187 259 L188 259 L187 260Z M32 260 L33 260 L32 261Z M88 260 L89 260 L88 261Z M26 261 L28 261 L28 262 L26 262Z M95 261 L96 261 L96 263 L95 262Z M113 261 L114 261 L113 262Z M126 261 L127 262 L123 265 L126 262Z M152 261 L153 261 L152 262Z M162 261 L163 261 L162 262Z M174 262 L173 262 L174 263Z M189 261 L191 262 L191 263 L189 262Z M292 261 L293 261 L293 267 L292 267 L292 262Z M312 261 L313 262 L305 269 L312 262Z M24 262 L25 262 L24 263Z M164 262 L165 262 L164 263Z M182 262 L183 262 L182 263Z M22 263 L23 263 L22 264Z M28 263 L29 263 L28 264Z M30 263 L31 263 L30 264Z M86 263 L87 263 L86 264Z M100 263 L101 264 L99 266 L97 265 L97 264 L98 265 L100 264Z M115 263 L117 263 L117 264 L115 264Z M150 263 L151 264 L148 266 L150 264Z M258 263 L259 264 L238 284 L258 264Z M265 263 L266 264 L237 292 L265 264Z M19 264 L20 264 L19 265Z M25 264 L26 264 L25 265Z M155 264 L156 264 L155 265Z M165 264 L167 264 L167 265 L165 265Z M171 264 L172 264 L171 265Z M178 264 L180 264 L180 265 L178 265Z M192 264 L193 264 L192 265Z M303 264 L304 264 L303 265Z M17 265 L18 265 L17 266Z M23 265 L24 265 L23 266Z M39 265 L40 265 L39 266Z M128 265 L129 265 L128 266Z M185 265 L186 265 L185 266Z M187 265 L188 265 L187 266Z M15 266 L16 266 L15 267Z M21 266 L22 266 L21 267Z M30 266 L31 266 L31 269 L29 269 L30 271 L26 270 L27 268 L29 269 L30 267Z M84 266 L85 266 L84 267Z M106 266 L108 267 L108 268 L106 267 L105 269 L104 268 L106 267Z M134 266 L136 267 L136 268 L134 267Z M157 266 L159 267 L159 268 L157 267Z M177 266 L178 266 L178 268 L177 267Z M194 266 L196 267 L196 268 L194 267Z M318 266 L321 266 L321 268 L318 267Z M327 266 L328 266 L327 267Z M13 267 L14 267 L13 268Z M18 267 L20 267 L20 268 L18 268 L18 269 L17 269 L18 268Z M42 267 L45 267 L45 268 L42 268Z M119 267 L120 267 L119 268Z M141 267 L142 267 L141 268Z M168 267 L169 267 L168 268Z M175 267 L176 267 L175 268Z M184 267 L185 267 L184 268Z M48 268 L49 268 L48 269Z M83 268 L84 268 L83 269Z M125 268 L126 269 L121 272 L122 270 L125 269Z M314 268 L315 268 L314 269Z M330 268 L331 269 L328 271 L328 275 L327 275 L327 271 L330 269Z M333 268 L334 268 L334 278 L333 278 L333 269Z M10 269 L11 269 L10 270Z M15 269 L16 269 L15 270Z M50 269 L53 270 L53 271 L50 270Z M129 269 L130 269 L129 270Z M132 269 L135 271 L134 272 L132 270Z M137 269 L138 269 L137 270Z M171 269 L178 275 L178 276 L175 275 L175 273 L171 270Z M177 269 L182 270 L181 273 L180 273 L181 272 L180 270 L179 271 L177 270Z M316 269 L317 269 L316 270Z M322 269 L323 269 L322 270Z M40 270 L43 272 L43 273 L41 273 L40 271Z M82 270 L83 270 L82 271Z M318 270 L319 270 L318 271Z M7 271 L8 272 L5 274 L7 272Z M11 271 L12 271 L11 272Z M54 271 L58 274 L57 275 L54 272Z M90 271 L91 271 L90 272Z M106 271 L107 271 L106 272Z M127 271 L128 271 L127 272Z M155 271 L156 271 L155 272Z M292 271 L293 271 L293 295 L292 295 L292 272Z M302 271 L303 271 L302 272Z M323 271 L324 271 L323 272Z M26 272 L28 272 L28 273 L24 277 L22 277 L19 281 L15 282 L18 285 L18 292 L17 292 L17 295 L13 298 L14 300 L12 300 L12 299 L10 300 L10 296 L11 296 L10 281 L12 279 L26 273Z M81 272 L82 272 L81 273Z M115 272 L116 273 L110 278 L115 273Z M125 272 L126 272 L125 273Z M188 272 L189 273 L191 272 L190 274 L188 273Z M321 272 L322 272 L321 276 L320 276 L320 273 L321 273Z M325 272 L326 272 L325 273Z M200 273 L211 283 L210 284 L200 274Z M38 274 L40 274 L43 277 L42 278 L40 275 L38 275Z M80 274 L81 274 L80 275Z M135 274 L136 275 L131 279 L135 275Z M142 274 L143 274 L142 275Z M147 274 L148 274 L147 275Z M165 274 L166 274 L165 275Z M196 274 L197 274 L196 275Z M299 274 L300 274 L299 275Z M4 275 L5 275 L4 276Z M7 275 L8 275 L7 276Z M88 275 L89 275 L88 276Z M119 275 L120 276 L115 280 L119 276Z M37 276 L38 277 L35 279 L37 277Z M58 276 L59 276 L58 277Z M79 276 L80 276 L79 277Z M84 276 L85 277 L82 279 L84 277Z M167 276 L171 279 L170 280 L167 277Z M187 276 L188 276 L187 277Z M318 276 L319 276 L318 277Z M326 276 L327 276 L326 279 L325 279 L325 277 L326 277Z M6 277 L7 277 L7 279 L6 278Z M87 277 L88 277 L87 278Z M96 277 L99 279 L99 280 L97 280 L96 278Z M123 277 L124 278 L114 287 L123 278Z M138 277 L140 277 L140 278 L138 278Z M191 277 L193 277 L192 279 L190 279 L191 278Z M207 277 L211 280 L210 281 L207 278Z M302 277 L304 278 L304 279 L302 278Z M321 277 L322 277 L322 282 L321 282 L321 278Z M330 277 L331 277 L330 278Z M3 278 L4 278 L4 282 L3 282 L3 279Z M59 278 L60 278 L59 279Z M78 278 L79 278 L78 279Z M126 278 L127 279 L120 285 L126 279Z M161 278 L167 283 L166 284 L161 279Z M187 278 L189 279 L188 281 L191 281 L191 282 L188 282 L187 281 L188 279 L187 279Z M198 278 L199 278 L198 279Z M315 278 L316 278 L315 279Z M39 279 L40 279 L39 280Z M44 279 L45 279 L44 280Z M86 279 L87 280 L84 283 L82 283 L86 280Z M109 279 L110 279 L109 280Z M136 279 L137 279 L136 280Z M152 279 L153 279 L152 280Z M180 279 L181 279 L181 281 L183 280 L188 285 L187 287 L188 288 L190 287 L189 289 L191 289 L191 291 L194 294 L196 294 L196 296 L199 297 L200 300 L202 300 L211 310 L210 311 L209 308 L207 308 L180 280Z M222 279 L223 279 L222 280Z M313 279 L314 279 L313 280Z M317 279 L319 279 L319 280 L317 280Z M329 279 L330 279 L329 280Z M37 280 L38 281 L31 287 L37 281Z M77 280 L78 280 L77 281Z M81 280 L82 280 L81 281Z M142 280 L144 281 L144 283 L142 281Z M183 281 L182 281 L183 282Z M196 280 L197 281 L199 280 L199 281 L195 284 L195 287 L199 288 L201 286 L199 288 L200 290 L195 288 L194 284 L193 285 L192 284 L193 283 L195 284 L197 282 L196 281Z M306 280 L307 280 L306 281Z M309 280 L310 280 L309 281Z M40 281 L41 281 L40 282Z M100 281 L101 281 L100 282Z M154 281 L156 282 L156 283 L154 282Z M184 282 L183 282 L184 283Z M202 281 L204 282 L204 283 L202 283 L202 282Z M230 281 L236 286 L235 287 L230 282Z M298 281 L301 282 L301 283 L298 282Z M313 281 L314 281 L313 282Z M327 281 L328 281 L327 282Z M6 282 L7 282 L7 286 L6 286 L6 283Z M32 282 L33 283 L29 286 L32 283Z M60 282 L61 282 L61 290 L60 290 L60 283Z M107 282 L108 282 L107 283Z M129 282 L131 282 L133 284 L132 285 L131 283 L129 283 L127 285 L129 283Z M185 283 L184 283 L185 284Z M212 282 L226 296 L232 291 L226 297 L212 283Z M225 282 L226 282 L225 283Z M309 282 L312 282 L312 283 L310 283 L311 285 L309 283Z M319 282 L320 282 L319 283Z M333 282 L334 282 L334 302 L332 303 L330 301 L331 300 L333 302 L333 283Z M19 283 L20 283 L20 285 L19 284Z M43 283 L45 284 L45 285 L43 284Z M76 283 L77 283 L76 284Z M90 283 L91 283 L90 284Z M150 283 L152 284 L152 285 L150 284Z M186 284 L185 284 L186 285Z M54 284 L55 284 L54 285Z M98 284 L100 284 L100 285 L98 285Z M111 284 L112 284 L111 285Z M157 284 L170 296 L169 297 L157 285Z M187 285 L186 285 L187 286Z M202 284 L203 284 L202 285Z M204 284 L205 284 L204 285Z M227 284 L228 284 L227 285Z M303 284 L306 286 L305 287 L303 285Z M46 285 L48 286 L48 287 L46 286Z M49 285 L50 285 L50 287 L52 287 L52 288 L49 288 L49 286Z M75 285 L76 285 L75 286Z M87 285 L88 285 L88 287 L87 286Z M91 285 L92 285 L91 286Z M105 285 L106 285 L105 286Z M141 285 L142 286 L139 287 L139 286 L141 286Z M176 285 L183 291 L182 292 L177 286 L172 290 L176 286Z M80 286 L81 286 L80 287Z M125 286 L126 287 L119 293 L125 287Z M129 286 L130 287 L126 290 L129 287Z M148 286 L152 289 L151 290 L148 287Z M153 286 L165 297 L164 298 L153 287Z M202 286 L203 286 L202 287Z M213 286 L216 288 L215 289 L213 287Z M313 286 L316 288 L315 289 L313 287Z M74 287 L75 287 L74 288Z M108 287 L109 287 L108 288Z M135 287 L137 288 L137 289 L135 288 L134 290 L133 289 L135 288Z M208 287 L211 288 L210 290 L212 292 L207 289 L205 291 L206 293 L203 295 L204 294 L203 292 L208 288Z M209 288 L208 289 L210 289 L210 288Z M27 288 L28 288 L27 289Z M112 288 L113 288 L113 290 L112 289Z M144 288 L145 288 L144 289Z M308 288 L311 290 L310 291 L308 289Z M4 289 L5 289 L5 294 L4 294 L4 290Z M51 289 L52 289 L51 290Z M78 289 L81 291 L80 292 L78 290Z M89 289 L90 289 L89 290Z M115 289 L116 289 L115 290Z M27 290 L28 290 L27 291Z M73 290 L74 290 L73 291Z M197 290 L198 290 L197 291Z M318 290 L321 292 L320 293 L318 291Z M86 291 L88 292 L88 293 L86 292Z M102 291 L103 291 L102 292Z M114 291 L116 292 L116 293 L114 292Z M124 291 L125 291 L124 292Z M152 291 L153 291 L152 292Z M174 291 L176 292 L176 293 L174 292Z M205 292 L204 292 L205 293Z M288 291 L290 291 L290 297 L289 297 L289 292 L288 292 L280 300 L288 292Z M7 292 L8 292 L8 296 L7 296 L7 293Z M59 292 L60 292 L60 294 L59 293Z M72 292 L73 292 L73 294 L72 293Z M105 292 L106 292 L105 293Z M313 292 L314 292 L313 293Z M18 293 L19 293 L18 294Z M26 293 L27 293 L26 294Z M28 293 L30 293 L30 294 L28 294Z M65 293 L66 293 L65 294Z M101 293 L102 293 L101 294Z M141 293 L142 293 L141 294Z M220 293 L221 293 L220 294Z M22 294 L24 294 L24 295 L22 295Z M35 294 L39 294 L39 295 L35 295Z M62 294 L63 294 L63 296 L61 296 L61 298 L60 298 L60 296 L62 295Z M67 294 L68 294 L67 295Z M104 294 L105 294 L104 295Z M117 294 L118 294 L117 295Z M139 294 L140 295 L130 304 L139 295Z M146 294 L148 295 L148 296 L146 295Z M177 294 L178 294 L177 295Z M209 294 L210 294 L209 296 L211 297 L210 298 L208 296 L209 295Z M214 294 L215 294 L214 295Z M315 294 L317 295 L317 296 L315 295Z M20 295 L21 295 L20 296Z M41 295 L43 296 L43 297 L41 296Z M71 295 L72 295 L72 297 L71 296Z M100 295 L101 295 L100 296Z M131 295 L132 295 L131 296Z M142 295 L143 296 L132 306 L142 296Z M149 295 L150 295 L149 296Z M155 295 L156 296 L152 299 L155 296Z M157 295 L161 298 L160 299 L157 296Z M324 295 L328 298 L327 299 L324 296Z M18 296 L19 296 L18 297Z M68 296 L69 296 L69 301 L68 301 L68 297Z M85 296 L94 304 L93 305 L85 297Z M91 296 L92 296 L92 298 L91 297Z M202 296 L206 298 L206 300 L205 300 L202 297Z M16 297 L17 297 L16 298Z M103 297 L104 297 L103 298Z M125 297 L126 297 L125 298Z M187 297 L188 298 L183 302 L187 298Z M216 297 L218 299 L220 297 L219 300 L218 299 L216 300 L217 299 L216 298Z M70 298 L71 298 L71 300 L70 299Z M99 298 L100 298 L99 299Z M212 298 L213 298 L212 299Z M224 298 L225 298 L224 299Z M231 298 L232 299 L222 308 L231 299Z M288 298 L289 299 L252 335 L288 299Z M320 298 L323 300 L322 301 L320 299Z M7 299 L8 299 L8 303 L7 303 L7 300Z M65 299 L66 299 L66 304 L65 304 L65 300Z M92 299 L93 299 L92 300Z M102 299 L103 299 L102 300Z M146 299 L148 300 L148 301 L146 300 L145 302 L144 301 L146 300Z M98 300 L99 300 L99 302 L98 301Z M122 300 L131 308 L130 309 L122 301Z M161 300 L162 300 L161 301Z M4 301 L5 301 L5 303 L4 302Z M126 301 L129 303 L128 304 L126 302Z M168 301 L169 301 L168 302Z M278 301 L279 301 L278 302Z M43 302 L44 303 L41 305 L43 303Z M72 302 L75 304 L74 305 L72 303Z M94 302 L96 304 L98 304 L97 306 L95 306 L96 304 L94 303Z M101 302 L102 302 L101 303Z M153 302 L155 303 L155 304 L153 303Z M192 302 L194 303 L191 307 L190 306 L193 304 L192 303Z M209 302 L211 304 L213 303 L212 304 L213 306 L209 303Z M215 302 L216 302 L215 303Z M29 303 L34 304 L34 305 L39 305 L40 304 L39 307 L36 307 L34 309 L28 308 L27 310 L25 310 L25 311 L23 310 L23 312 L21 312 L21 313 L19 312 L19 314 L14 315 L14 316 L17 316 L17 317 L12 316 L14 313 L16 313 L17 311 L19 311 L20 309 L24 308 L25 306 L27 306 L29 304Z M146 303 L147 303 L146 304Z M185 303 L189 306 L188 307 L185 304Z M69 304 L71 304 L73 306 L72 307 L71 305 L69 305Z M165 304 L166 305 L163 307 L165 305Z M275 304 L276 304 L275 305Z M327 304 L329 305 L329 306 L327 305Z M2 305 L3 305 L2 308 L1 308 L1 306 L2 306Z M5 305 L6 305 L5 306Z M65 305 L66 305 L66 307 L65 306Z M100 305 L101 305 L100 306Z M152 305 L154 306 L154 307 L152 306Z M43 306 L44 306 L43 307Z M46 306 L49 307 L49 308 L46 307Z M68 306 L69 306 L68 307Z M178 306 L188 315 L187 316 L178 307Z M217 306 L218 306 L217 307Z M273 306 L274 306 L273 307Z M4 307 L5 307 L4 308Z M96 307 L97 307 L96 308Z M132 307 L135 309 L134 310 L132 308Z M328 307 L329 307 L328 308Z M99 308 L100 308 L100 310 L99 309Z M198 308 L200 308 L200 309 L198 309 L195 312 L198 309Z M215 308 L216 309 L210 314 L215 309Z M0 309 L1 309 L1 312 L0 312 L0 310Z M3 309 L4 309 L4 313 L3 313 L3 310Z M39 309 L40 309 L39 310Z M78 309 L82 312 L81 313 L78 310Z M147 309 L148 309 L147 310Z M151 309 L152 309 L151 310Z M170 309 L171 309 L170 310Z M270 309 L271 309 L270 310Z M51 310 L52 310 L51 311Z M333 310 L334 310 L334 329 L332 330 L333 329 L333 311Z M36 311 L37 311 L36 312Z M60 311 L61 311 L60 312Z M68 311 L69 311 L68 312Z M76 311 L81 315 L80 316 L76 312Z M95 311 L96 311 L96 315 L95 315 L95 312Z M137 311 L138 311 L138 313 L137 312Z M170 311 L171 312 L167 315 L170 312Z M177 311 L196 329 L195 330 L177 312Z M219 311 L220 311 L219 312Z M32 312 L34 312 L34 313 L32 313Z M158 312 L159 312 L158 313Z M28 313 L29 313 L28 314Z M52 313 L53 313 L53 317 L49 322 L47 322 L45 324 L42 324 L42 325 L39 325 L39 326 L36 326 L36 327 L33 327 L33 328 L29 328 L29 329 L27 328 L26 330 L22 330 L22 331 L19 330 L19 329 L31 326 L31 325 L33 325 L37 322 L48 319 L49 317 L52 317 L52 314Z M98 313 L99 313 L99 315 L98 314Z M153 313 L154 314 L146 321 L153 314Z M195 313 L196 313 L195 314Z M217 313 L218 314 L211 320 L217 314Z M1 314 L2 314 L2 316 L1 315Z M24 314 L26 314 L26 315 L24 315Z M66 314 L67 314 L67 324 L66 324 L66 315Z M69 314 L70 315 L72 314 L75 317 L75 318 L74 317 L72 318 L69 315Z M72 315 L71 315 L72 316Z M138 314 L139 314 L138 315Z M165 314 L166 314 L165 315Z M174 314 L176 314 L176 315 L174 315Z M202 314 L203 314 L202 315Z M327 314 L328 314 L327 315Z M4 315 L5 315 L4 316Z M20 315 L21 315 L20 316Z M61 315 L62 315 L62 317 L61 316Z M73 316 L72 316 L73 317Z M140 315 L141 315 L140 316Z M155 315 L156 316 L147 324 L155 316Z M161 316 L163 316 L165 318 L164 319 L163 317 L161 317 L157 321 L161 317Z M172 316 L173 316 L172 317Z M177 316 L180 318 L179 319 L177 317Z M198 316 L200 317 L200 318 L198 317Z M263 316 L264 316 L263 317Z M325 316 L326 317 L307 335 L325 317Z M85 317 L89 320 L88 321 L85 318Z M189 317 L190 317 L189 318Z M317 317 L318 318 L300 336 L298 336 L317 318Z M62 318 L63 318 L63 322 L62 322 L62 319Z M97 318 L98 318 L97 319Z M139 318 L146 324 L145 325 L139 319Z M142 318 L145 320 L144 321 L142 319Z M170 318 L171 318 L171 320 L170 319Z M83 319 L87 322 L86 323 L83 320Z M260 319 L261 319 L260 320Z M74 320 L76 322 L78 321 L82 325 L81 326 L79 323 L77 324 L74 321Z M179 320 L180 321 L175 325 L179 321Z M192 320 L193 320 L192 321Z M1 321 L2 321 L1 322Z M4 321 L5 321 L4 322Z M78 322 L77 322 L78 323Z M171 321 L174 323 L173 324 L171 322Z M203 321 L204 322 L199 326 L203 322Z M155 322 L156 322 L155 323Z M168 322 L170 323 L170 324 L168 323Z M70 323 L72 323 L71 325 L70 324Z M183 323 L184 323 L183 324Z M0 324 L1 324 L0 325Z M3 324 L4 324 L3 325Z M62 324 L63 324 L63 326 L61 327 L62 325Z M91 324 L95 327 L94 328 L91 325Z M153 324 L154 324 L153 325Z M157 324 L158 325 L153 329 L157 325Z M165 324 L166 324 L165 325Z M255 324 L256 324 L255 325Z M44 325 L47 327 L46 328 L44 326Z M169 325 L170 325 L169 326Z M186 325 L190 328 L190 331 L187 333 L189 331 L189 328 L186 326Z M42 326 L43 326 L42 327Z M73 326 L74 326 L73 327Z M150 326 L151 326 L150 327Z M205 326 L206 327 L199 333 L205 327Z M253 326 L254 327 L240 340 L253 327Z M39 327 L41 327 L41 328 L39 328Z M58 327 L60 328 L60 329 L58 328Z M90 327 L93 329 L92 330 L90 328Z M162 327 L163 327 L162 328Z M37 328 L38 328 L37 329Z M74 328 L76 328 L76 329 L74 329Z M81 328 L83 329 L83 330 L81 329Z M171 328 L172 328 L171 331 L169 333 L167 333 L168 335 L165 338 L164 337 L162 338 L171 329Z M179 328 L180 328 L179 329Z M0 329 L1 329 L0 330Z M39 329 L40 329 L39 330Z M55 329 L59 330 L59 338 L58 338 L59 342 L57 343 L58 346 L56 347 L55 354 L53 355 L53 359 L54 359 L53 364 L54 365 L45 365 L45 364 L42 364 L42 365 L31 365 L31 364 L23 365 L22 364 L21 365 L21 363 L17 360 L18 358 L16 356 L14 356 L13 355 L14 353 L12 353 L12 351 L10 350 L11 349 L11 350 L16 351 L16 352 L23 351 L25 349 L19 349 L19 348 L17 348 L17 346 L29 344 L29 343 L32 343 L33 341 L37 340 L38 342 L43 343 L43 347 L42 347 L41 351 L44 351 L45 353 L47 353 L48 348 L50 346 L49 336 L50 336 L50 334 L55 332 L56 331 L55 330Z M84 329 L87 331 L87 332 L86 331 L84 332 L85 331 L84 330Z M160 329 L161 329 L160 330Z M164 329 L165 330 L159 335 L164 330Z M174 329 L175 329 L175 331 L174 330Z M4 330 L5 330 L4 331Z M41 330 L42 330 L41 331Z M70 330 L74 330 L73 332 L70 331Z M1 331 L2 331 L1 332Z M15 331 L18 331 L18 332 L15 332 L16 334 L14 333 L15 332Z M29 331 L32 331 L32 332 L29 332Z M37 331 L38 331 L37 332Z M43 331 L44 331 L43 332Z M66 331 L67 331 L67 334 L66 334 L66 332Z M97 331 L100 333 L99 334 L97 332Z M151 331 L161 340 L160 341 L151 332Z M181 331 L184 334 L186 334 L186 335 L184 335 L181 332Z M21 332 L25 332 L25 333 L21 333Z M39 332 L40 332 L39 333Z M46 332 L47 332 L47 334 L45 334 L46 333Z M79 332 L81 333 L81 334 L79 333Z M155 332 L156 332 L155 333Z M157 332 L158 332 L157 333Z M173 332 L174 332 L173 333Z M177 332 L178 332 L177 333Z M317 332 L318 332 L317 333Z M319 332 L320 332 L319 333Z M328 332 L329 333 L324 337 L328 333Z M2 333 L3 333 L2 334Z M63 333 L65 333 L65 335 L63 337 L62 337 L63 334Z M70 333 L71 333 L70 334Z M95 333 L98 335 L97 336 L95 334Z M167 334 L166 334 L167 335Z M315 333 L320 337 L320 339 L319 339 L319 337 L315 334Z M332 333 L334 333 L334 344 L333 344 L333 334 L332 334Z M42 334 L43 334 L42 335Z M76 334 L77 334 L76 335Z M166 335 L165 335 L166 336Z M175 334 L176 334 L175 335Z M197 334 L198 334 L197 335Z M321 334 L322 334 L321 335Z M330 334 L331 335 L327 338 L330 335Z M74 335 L77 338 L77 340 L76 340 L76 338 L73 337 L74 336Z M75 336 L74 336 L75 337Z M80 335 L81 335 L80 336Z M87 335 L88 336 L90 335 L92 337 L90 339 L87 336Z M90 336 L89 336 L90 337Z M165 336 L164 336 L165 337Z M171 335 L172 335 L171 336Z M44 336 L47 338 L46 339 L44 337Z M67 336 L68 336 L67 337Z M91 337 L90 337 L91 338Z M159 336 L161 337 L161 338 L159 337Z M173 336 L174 336 L173 337Z M189 336 L190 337 L186 340 L189 337Z M250 336 L251 336 L250 337Z M102 337 L105 339 L104 340 L102 338Z M60 338 L61 338 L60 339Z M172 338 L173 338 L172 339Z M182 338 L183 338 L182 339Z M194 338 L195 339 L187 346 L194 339Z M322 338 L323 338 L322 339Z M324 338 L325 338 L324 339Z M2 339 L3 339 L3 344 L2 344 L2 340Z M5 339 L6 339 L6 343 L5 343 L5 340Z M70 339 L71 339 L71 342 L70 342 L70 340Z M168 339 L169 340 L166 343 L163 341 L164 340 L166 342 L168 340Z M177 339 L178 339 L177 340Z M326 339 L329 340 L329 341 L326 340Z M86 340 L87 341 L84 342 L84 341 L86 341Z M101 340 L104 342 L103 343 L101 341Z M47 341 L48 341 L48 346 L47 346 L47 342Z M62 341 L63 341 L63 343 L65 342 L64 343 L65 345 L69 345 L69 347 L67 348 L62 342Z M72 341 L75 343 L75 345 L73 345 L72 344 L73 342 L72 342Z M94 341 L97 343 L95 345 L93 343 L94 342Z M95 342 L94 342 L95 343Z M300 341 L301 341 L301 343 L300 342Z M320 341 L321 341 L320 342Z M74 343 L73 343 L74 344Z M96 343 L95 343 L96 344Z M318 342 L319 342 L318 343Z M34 344 L30 345 L30 346 L21 347 L21 348 L26 348 L25 352 L27 352 L29 349 L32 350 L37 355 L38 360 L40 361 L40 355 L39 355 L40 351 L38 351 L39 349 L37 349 L37 346 L34 345Z M82 343 L83 343 L82 344Z M87 343 L88 343 L87 344Z M107 343 L110 345 L109 346 L107 344Z M315 343 L316 343 L315 344Z M80 344 L81 344 L81 346 L78 348 L80 345Z M167 344 L168 344 L167 345Z M303 344 L304 344 L303 345Z M312 344 L314 344 L314 345 L312 345Z M317 344 L318 344 L317 345Z M321 344 L322 344 L321 345Z M3 345 L4 345 L3 346Z M45 345 L46 345 L45 346Z M68 346 L67 346 L68 347Z M86 345 L87 346 L85 348 L82 347 L82 346 L86 346Z M105 345 L108 347 L107 348 L105 346Z M315 345 L316 345 L315 346Z M319 345 L321 347 L320 348 L319 346Z M59 346 L62 348 L61 349 L59 347Z M75 346 L77 347 L77 348 L75 347Z M90 346 L92 346 L92 347 L90 347Z M165 346 L173 353 L172 354 L165 347Z M180 346 L181 347 L175 353 L172 351 L172 349 L173 349 L173 351 L175 352 L180 347Z M313 346 L314 346 L313 347Z M331 346 L332 346 L331 347Z M99 347 L102 349 L100 351 L98 349 L99 348Z M100 348 L99 348 L100 349Z M110 347 L111 347 L110 348Z M298 347 L300 347 L300 348 L298 348Z M309 347 L312 347 L312 348 L309 348Z M326 347 L327 347 L326 348Z M333 347 L334 347 L334 356 L333 356 L333 348Z M46 348 L47 348 L46 349Z M58 348 L59 348 L59 350 L58 349Z M90 348 L91 348 L90 349Z M101 349 L100 349 L101 350Z M232 348 L233 349 L223 358 L232 349Z M239 348 L240 349 L230 358 L239 349Z M6 349 L7 349 L6 350Z M112 349 L115 351 L114 352 L112 350Z M184 349 L185 350 L179 355 L184 350Z M302 349 L303 349 L302 350Z M310 349 L311 349 L310 350Z M45 350 L46 350 L45 351Z M70 350 L72 352 L71 353 L70 351Z M72 350 L73 350 L72 351Z M78 350 L81 351 L81 352 L78 351Z M94 350 L97 352 L97 353 L95 353 L94 351Z M43 352 L42 352 L43 353Z M89 351 L90 351 L90 353 L89 352Z M110 351 L114 354 L113 355 L110 352Z M305 351 L306 351 L305 352Z M26 353 L21 355 L25 360 L28 360 L28 354 L27 353Z M64 352 L68 355 L67 356 L64 353Z M74 352 L75 352 L74 353Z M314 352 L315 352 L314 353Z M9 353 L11 354 L11 355 L9 354Z M15 354 L14 354 L15 355Z M61 353 L65 356 L64 357 L61 354Z M82 353 L84 354 L84 355 L82 354Z M86 353 L87 353 L87 355 L86 354Z M308 353 L309 353 L308 354Z M73 354 L74 354 L73 355Z M75 354 L76 354 L75 355Z M97 354 L98 354 L97 355Z M103 354 L104 355 L106 354 L109 357 L108 358 L107 356 L105 357 L103 355Z M106 355 L105 355 L106 356Z M116 354 L120 357 L119 358 L116 355Z M317 354 L319 355 L319 356 L317 355Z M94 355 L95 355 L95 357 L94 356Z M172 355 L173 356 L170 358 L172 356Z M311 355 L312 355 L311 356Z M83 356 L85 356 L89 360 L88 361 L83 357Z M313 356 L314 356 L313 357Z M320 356 L322 357 L322 358 L320 357Z M12 357 L14 358 L14 359 L12 358Z M69 357 L70 357 L69 358Z M77 357 L80 358 L80 359 L77 358 L78 360 L76 359 L77 358Z M91 357 L92 357 L91 360 L90 360 L90 358 L91 358Z M99 357 L100 357 L100 359 L98 359 L98 361 L95 362 L95 365 L94 365 L94 362 L97 361 L97 359 L99 358Z M116 358 L118 359 L118 360 L116 359Z M323 358 L324 358 L323 359Z M332 358 L333 358 L332 359Z M70 359 L76 364 L75 365 L70 360Z M107 359 L110 362 L111 361 L113 362 L113 363 L112 362 L110 363 L107 360Z M175 359 L176 360 L172 364 L218 364 L218 365 L171 365 L171 363 L175 360Z M14 360 L16 361 L16 362 L14 361Z M67 360 L70 362 L69 363 L67 361Z M101 360 L102 360 L101 361Z M103 360 L104 360 L103 361Z M319 360 L321 361 L321 362 L319 361Z M326 360 L328 361 L328 362 L326 361Z M331 360 L332 361 L329 363 L331 361Z M81 361 L82 361 L81 362Z M122 361 L124 362 L124 363 L122 362Z M167 361 L168 362 L165 365 L159 365 L159 364 L165 364 L167 362Z M99 362 L102 364 L101 365 L99 363 L97 365 L99 363Z M322 362 L324 363 L324 364 L322 363Z M56 364 L71 364 L71 365 L56 365Z M78 364 L80 364 L80 365 L78 365Z M81 364 L82 364 L81 365Z M84 364 L87 364 L87 365 L84 365Z M89 364 L91 364 L91 365 L89 365Z M92 364 L93 364 L92 365Z M104 364 L111 364 L111 365 L104 365Z M114 364 L115 364 L114 365Z M120 364 L121 364 L120 365Z M125 364 L131 364 L131 365 L125 365Z M225 364 L233 364 L233 365 L225 365Z M292 364 L293 364 L292 365Z M298 364 L299 364 L298 365Z" fill="#aeb6c0" fill-rule="evenodd"></path><path d="M196 0 L211 0 L211 1 L228 1 L228 2 L231 2 L227 20 L215 20 L215 19 L198 20 L196 12 L195 12 L195 7 L194 7 L194 4 L193 4 L193 1 L196 1Z M149 1 L172 1 L172 6 L173 6 L173 10 L174 10 L174 13 L175 13 L175 19 L176 19 L176 21 L169 21 L169 22 L161 22 L161 23 L152 24 L151 21 L146 16 L146 14 L143 12 L143 10 L138 5 L138 3 L140 3 L140 2 L149 2Z M243 3 L271 8 L271 10 L269 12 L269 15 L268 15 L268 18 L267 18 L267 21 L266 21 L266 24 L262 25 L262 24 L244 22 L243 4Z M101 135 L116 135 L116 136 L120 136 L122 138 L121 139 L109 140 L109 141 L100 143 L100 144 L90 148 L89 150 L83 152 L83 154 L78 155 L70 164 L68 164 L64 168 L64 170 L62 171 L60 176 L58 178 L56 178 L56 180 L53 183 L53 186 L51 187 L51 189 L50 189 L50 191 L47 195 L47 198 L45 200 L45 203 L44 203 L42 211 L41 211 L41 215 L39 216 L39 220 L38 220 L39 222 L38 222 L38 228 L37 228 L37 239 L36 239 L37 240 L36 241 L37 248 L35 249 L36 258 L33 256 L34 255 L34 229 L35 229 L36 217 L37 217 L37 213 L38 213 L38 209 L40 207 L41 201 L42 201 L42 199 L43 199 L43 197 L44 197 L50 183 L55 178 L57 173 L62 169 L62 167 L68 161 L70 161 L74 156 L76 156 L77 154 L79 154 L83 150 L85 150 L85 149 L87 149 L87 148 L89 148 L89 147 L91 147 L91 146 L93 146 L93 145 L95 145 L95 144 L97 144 L97 143 L99 143 L103 140 L111 139 L111 138 L108 137 L108 138 L105 138 L105 139 L100 139 L100 140 L94 141 L92 143 L89 140 L87 140 L85 142 L82 142 L82 140 L87 140 L87 139 L90 140 L92 137 L101 136Z M76 142 L77 143 L75 145 L73 145 L71 147 L67 147 L66 149 L62 150 L60 153 L58 153 L54 157 L54 159 L52 161 L52 164 L50 165 L50 167 L49 167 L49 169 L48 169 L48 171 L45 175 L44 184 L43 184 L43 174 L44 174 L44 170 L45 170 L45 168 L48 164 L46 164 L44 166 L44 168 L40 171 L39 176 L38 176 L38 198 L36 196 L36 189 L35 189 L36 180 L34 180 L34 182 L32 183 L32 181 L33 181 L34 177 L36 176 L37 172 L41 169 L41 167 L54 154 L56 154 L58 151 L65 148 L66 146 L71 145 L73 143 L76 143Z M89 143 L90 143 L89 144Z M82 147 L83 147 L82 148Z M80 148 L81 148 L80 149Z M70 149 L71 149 L70 150Z M69 151 L70 151 L69 152Z M68 153 L69 153 L69 155 L68 154Z M271 168 L274 171 L276 171 L277 173 L282 174 L285 177 L288 177 L289 179 L293 180 L294 182 L292 182 L291 184 L285 186 L284 188 L279 190 L277 193 L275 193 L273 196 L271 196 L266 202 L264 202 L251 215 L251 217 L244 224 L210 224 L217 217 L217 215 L229 204 L229 202 L236 195 L238 195 L251 181 L253 181 L258 175 L260 175 L265 170 L271 169Z M31 186 L32 186 L31 200 L32 200 L33 210 L32 210 L32 214 L31 214 L31 218 L30 218 L30 213 L29 213 L29 209 L28 209 L28 201 L26 203 L26 218 L27 218 L27 223 L28 223 L28 227 L29 227 L29 231 L26 227 L26 233 L27 233 L27 236 L28 236 L28 239 L29 239 L29 242 L30 242 L30 246 L31 246 L31 249 L32 249 L32 254 L30 254 L30 250 L28 248 L28 244 L27 244 L27 241 L26 241 L26 238 L25 238 L25 230 L24 230 L24 223 L23 223 L25 199 L26 199 L28 190 L31 187Z M328 209 L330 209 L332 211 L332 214 L330 214 L323 222 L321 222 L315 229 L313 229 L306 237 L304 237 L299 242 L299 234 L306 227 L308 227 L316 218 L318 218 L323 212 L328 210Z M165 222 L173 229 L172 230 L165 223Z M176 234 L184 242 L186 242 L186 244 L188 244 L188 246 L232 289 L232 290 L229 290 L226 287 L226 285 L224 285 L223 282 L176 235Z M105 237 L107 237 L107 239 L122 253 L122 255 L124 255 L126 257 L126 259 L150 282 L151 285 L153 285 L153 287 L195 329 L195 331 L187 339 L184 339 L181 336 L181 334 L179 332 L177 332 L172 325 L170 325 L170 323 L161 315 L161 313 L158 312 L157 309 L153 305 L151 305 L151 303 L146 299 L146 297 L144 295 L142 295 L142 293 L140 293 L140 291 L137 290 L137 288 L122 273 L122 271 L124 271 L126 269 L126 267 L129 266 L129 263 L126 261 L110 277 L110 279 L108 280 L108 282 L104 286 L104 289 L103 289 L103 291 L100 295 L100 298 L98 300 L98 304 L96 304 L93 301 L92 296 L87 291 L85 291 L81 286 L78 288 L78 290 L80 292 L82 292 L85 295 L85 297 L93 305 L97 306 L96 311 L95 311 L95 315 L96 315 L95 316 L91 312 L91 310 L86 306 L86 304 L81 299 L80 299 L80 301 L87 308 L87 310 L92 314 L92 316 L96 319 L97 323 L100 325 L100 327 L103 329 L103 331 L107 334 L107 336 L112 340 L112 342 L115 344 L115 346 L120 350 L120 352 L129 361 L130 364 L124 364 L124 362 L115 353 L115 351 L110 347 L110 345 L105 341 L105 339 L100 335 L100 333 L95 329 L95 327 L89 322 L89 320 L82 314 L82 312 L71 301 L71 297 L72 297 L74 288 L77 284 L77 281 L78 281 L78 279 L79 279 L85 265 L87 264 L87 262 L89 261 L89 259 L91 258 L91 256 L93 255 L94 251 L97 249 L99 244 L105 238Z M291 240 L293 240 L292 241 L293 242 L293 249 L292 249 L292 257 L293 257 L293 261 L292 261 L292 267 L293 267 L293 271 L292 271 L292 295 L290 295 L290 291 L288 291 L240 339 L240 341 L223 357 L223 359 L218 364 L172 364 L176 360 L176 358 L185 350 L185 348 L195 339 L195 337 L206 327 L206 325 L232 299 L232 297 L274 255 L276 255 L286 244 L288 244 L291 241Z M108 246 L103 250 L103 253 L105 253 L106 255 L110 254 L111 251 L112 251 L112 248 L109 246Z M117 254 L112 259 L113 262 L115 262 L115 264 L117 264 L117 262 L120 260 L120 257 L117 255Z M31 255 L32 255 L31 256Z M99 257 L95 261 L95 263 L98 266 L101 264 L101 261 L102 261 L102 259 L100 257Z M107 266 L104 268 L104 271 L107 272 L109 270 L108 267 L107 267Z M130 269 L125 273 L131 279 L136 275 L135 271 L133 269 L131 269Z M90 270 L89 270 L90 271Z M91 271 L90 271 L91 272Z M92 272 L91 272 L92 273Z M88 273 L81 280 L81 282 L84 283 L87 280 L88 276 L89 276 L88 274Z M97 277 L96 277 L96 279 L98 280 L98 285 L100 285 L100 283 L101 283 L101 281 L97 278Z M139 277 L138 277 L138 279 L135 280 L135 283 L139 287 L141 287 L142 284 L144 283 L144 281 L140 277Z M38 279 L40 280 L40 282 L42 282 L44 285 L46 285 L47 287 L49 287 L49 289 L52 290 L50 296 L48 297 L48 299 L42 293 L35 293 L34 291 L28 291 L28 289 L30 289 L38 280Z M90 282 L87 285 L88 289 L90 290 L90 287 L92 286 L91 283 L90 283Z M148 286 L143 289 L143 292 L147 296 L150 296 L150 294 L153 292 L152 289 L149 286Z M76 291 L75 291 L75 293 L77 294 L77 292 L76 292Z M156 295 L152 298 L153 303 L156 304 L156 305 L158 305 L162 301 L161 298 L157 295Z M45 303 L46 303 L46 306 L44 306 L44 304 L45 304Z M166 304 L161 308 L161 311 L165 315 L168 315 L171 312 L171 309 L166 305Z M175 314 L170 318 L171 322 L175 325 L180 321 L180 318 L176 314Z M96 317 L97 317 L96 318Z M184 323 L179 328 L181 330 L181 332 L184 335 L186 335 L190 331 L190 328 L187 325 L184 324Z M58 350 L61 352 L61 354 L70 363 L70 364 L57 364 L56 363 L56 354 L57 354 L57 351 L58 351Z" fill="#da1b1b" fill-rule="evenodd"></path></g></g>
  <text x="30" y="112" text-anchor="start" font-family="&#39;Space Grotesk&#39;, Arial, sans-serif" font-weight="700" font-size="116" letter-spacing="0" fill="#0f1729">J</text>
  <path d="M 7.989,3.103 C 7.747,-0.954 0.242,-8.59 0,-10.5 c -0.242,1.909 -7.747,9.545 -7.989,13.603 -0.169,2.868 1.695,4.057 3.39,4.057 1.8351685,-0.021581 3.3508701,-2.8006944 3.873,-3.341 0.242,0.716 -1.603,6.682 -2.179,6.682 l 5.811,0 C 2.33,10.501 0.485,4.535 0.727,3.819 1.1841472,4.3152961 2.5241276,7.0768295 4.601,7.16 6.295,7.159 8.158,5.971 7.989,3.103 z" fill="#0f1729" transform="translate(62,166) scale(3.7143) translate(0,0)"></path>
</svg>