<?xml version="1.0"?>
<svg xmlns="http://www.w3.org/2000/svg" width="250" height="350" viewBox="0 0 250 350">
  
  <defs><clipPath id="cc_KS"><rect x="3" y="3" width="244" height="344" rx="24" ry="24"></rect></clipPath></defs>
  <rect x="3" y="3" width="244" height="344" rx="24" ry="24" fill="#f2f5f8" stroke="#dde3ea" stroke-width="2"></rect>
  <g clip-path="url(#cc_KS)"><g transform="translate(62.00,128.75) scale(0.56329)"><path d="M113 5 L115 5 L118 8 L118 10 L123 15 L123 17 L125 18 L125 20 L127 21 L127 23 L130 25 L130 27 L132 29 L142 28 L142 27 L152 27 L152 26 L164 26 L165 25 L164 5 L165 5 L165 7 L168 11 L168 14 L170 16 L170 19 L172 21 L172 24 L174 26 L202 27 L202 24 L203 24 L204 18 L206 16 L207 10 L208 10 L208 8 L210 8 L210 28 L213 28 L213 29 L221 29 L221 30 L227 30 L227 31 L239 33 L239 31 L240 31 L242 25 L244 24 L246 18 L249 16 L247 34 L246 35 L257 38 L257 39 L260 39 L260 40 L264 40 L264 41 L269 42 L271 44 L274 44 L274 42 L277 40 L277 38 L280 36 L280 34 L286 28 L286 26 L288 26 L288 27 L295 30 L292 33 L292 35 L290 36 L290 38 L288 39 L288 41 L286 42 L286 44 L284 45 L284 47 L282 48 L282 50 L280 51 L279 55 L277 56 L277 58 L273 62 L272 66 L270 66 L269 64 L267 64 L263 61 L260 61 L258 59 L248 57 L248 56 L245 56 L245 55 L241 55 L241 54 L238 54 L238 53 L227 52 L227 51 L211 49 L211 48 L203 48 L203 47 L154 46 L154 47 L144 47 L144 48 L131 49 L129 44 L125 40 L124 36 L122 35 L122 33 L120 32 L120 30 L118 29 L118 27 L114 23 L113 19 L110 17 L108 12 L105 10 L105 7 L113 6Z M154 33 L151 35 L151 39 L154 42 L157 42 L160 39 L160 35 L158 33 L155 33Z M189 33 L186 34 L186 36 L185 36 L185 39 L188 42 L192 42 L194 40 L194 35 L192 33 L190 33Z M172 34 L170 35 L170 38 L172 40 L176 39 L176 35 L173 34Z M136 36 L134 37 L134 42 L136 42 L136 43 L141 41 L141 38 L139 36 L137 36Z M207 36 L204 38 L204 40 L206 42 L210 41 L210 37 L208 36Z M224 37 L220 39 L220 44 L222 46 L227 46 L228 43 L229 43 L228 39 L225 38 L225 37Z M241 42 L238 43 L239 48 L243 47 L243 44 L241 43Z M254 45 L251 47 L251 51 L253 53 L257 53 L259 51 L259 47 L257 45 L255 45Z M153 50 L192 50 L192 51 L200 51 L200 52 L212 52 L212 53 L223 54 L223 55 L228 55 L228 56 L237 57 L237 58 L241 58 L241 59 L244 59 L244 60 L252 61 L252 62 L258 63 L260 65 L263 65 L263 66 L269 68 L272 71 L272 75 L273 75 L273 87 L272 87 L271 84 L252 65 L249 65 L247 63 L246 63 L246 65 L248 67 L250 67 L258 75 L258 77 L260 77 L260 79 L262 79 L262 81 L274 92 L275 107 L276 107 L276 109 L275 109 L274 106 L272 105 L272 103 L269 101 L269 99 L249 79 L249 77 L247 77 L247 75 L245 75 L242 72 L242 70 L240 70 L240 68 L237 67 L236 64 L234 64 L233 61 L228 60 L228 59 L225 59 L225 60 L254 88 L254 90 L272 108 L272 110 L276 114 L276 119 L277 119 L277 126 L276 126 L276 124 L273 122 L273 120 L270 118 L270 116 L262 109 L262 107 L245 91 L245 89 L218 62 L216 62 L211 56 L207 56 L207 55 L205 55 L205 56 L260 110 L260 112 L269 120 L269 122 L277 130 L279 137 L291 148 L292 153 L293 153 L293 160 L292 160 L292 163 L291 163 L290 167 L288 168 L288 173 L298 177 L302 182 L302 186 L299 188 L298 182 L294 178 L288 177 L282 172 L282 167 L281 167 L280 162 L276 158 L270 156 L269 154 L266 155 L264 153 L265 152 L266 154 L268 154 L266 149 L265 149 L265 141 L264 141 L264 137 L265 137 L267 142 L269 143 L269 145 L273 148 L273 150 L275 150 L280 155 L280 157 L282 158 L282 162 L283 162 L283 165 L284 165 L284 171 L285 171 L285 167 L287 166 L287 164 L289 163 L289 160 L290 160 L290 155 L289 155 L288 151 L283 146 L281 146 L279 143 L277 143 L274 140 L274 138 L271 136 L269 131 L255 117 L255 115 L202 62 L200 62 L192 54 L188 54 L188 53 L152 53 L152 54 L135 55 L134 56 L133 66 L132 66 L131 72 L129 74 L129 83 L132 86 L133 91 L132 91 L132 94 L131 94 L131 96 L130 96 L130 98 L129 98 L129 100 L126 104 L126 107 L124 108 L124 111 L122 112 L122 114 L119 118 L119 123 L122 124 L122 125 L133 123 L133 124 L138 124 L139 126 L131 126 L132 127 L131 132 L130 132 L131 128 L126 128 L126 127 L119 126 L117 124 L117 118 L118 118 L118 116 L119 116 L119 114 L120 114 L120 112 L121 112 L121 110 L122 110 L122 108 L123 108 L123 106 L124 106 L124 104 L125 104 L125 102 L126 102 L126 100 L129 96 L129 93 L131 91 L129 86 L126 83 L126 77 L127 77 L127 74 L128 74 L128 71 L129 71 L129 68 L130 68 L130 65 L131 65 L133 53 L134 52 L153 51Z M269 52 L267 53 L268 57 L272 56 L272 52 L270 52Z M178 55 L187 63 L186 64 L178 56Z M196 65 L197 65 L196 66Z M183 68 L184 68 L183 69Z M191 68 L193 69 L193 70 L191 69Z M184 70 L186 71 L186 73 L188 75 L189 86 L190 86 L190 90 L191 90 L192 95 L197 100 L199 100 L200 102 L207 103 L207 104 L215 104 L216 107 L217 107 L217 117 L216 117 L216 119 L213 123 L213 131 L214 131 L215 135 L219 139 L221 139 L225 142 L232 142 L236 145 L235 151 L233 151 L232 153 L230 153 L227 156 L226 165 L233 172 L237 172 L237 173 L240 173 L240 174 L245 173 L245 172 L241 172 L241 171 L238 170 L237 161 L239 160 L239 158 L245 156 L249 152 L251 143 L250 143 L250 139 L247 136 L247 134 L245 134 L244 132 L242 132 L240 130 L234 129 L229 124 L229 122 L227 120 L228 107 L227 107 L226 99 L215 88 L213 88 L206 81 L207 80 L216 89 L218 89 L221 93 L223 93 L226 97 L228 96 L227 97 L229 99 L228 103 L231 107 L231 112 L232 112 L232 115 L233 115 L234 119 L236 120 L236 122 L238 122 L239 124 L247 127 L254 134 L254 137 L255 137 L255 140 L256 140 L255 155 L259 160 L261 160 L263 162 L266 162 L267 165 L268 165 L267 170 L260 177 L260 184 L264 188 L269 188 L266 185 L266 181 L273 174 L273 171 L274 171 L275 179 L278 182 L285 183 L289 186 L280 185 L280 184 L277 184 L277 183 L274 183 L274 182 L270 181 L269 185 L274 186 L274 188 L270 189 L270 190 L263 190 L257 185 L256 176 L252 176 L252 177 L248 177 L248 178 L245 178 L245 179 L239 180 L239 181 L234 181 L234 182 L229 182 L229 183 L222 183 L222 184 L217 184 L217 185 L211 185 L211 186 L206 186 L206 187 L181 191 L181 192 L172 193 L172 194 L169 194 L169 195 L154 198 L221 265 L221 268 L218 271 L216 271 L195 250 L195 248 L154 207 L152 207 L148 202 L146 203 L154 211 L154 213 L156 213 L156 215 L161 218 L161 220 L199 257 L199 259 L214 274 L193 297 L120 224 L118 224 L116 226 L116 228 L110 234 L110 236 L108 237 L107 240 L109 240 L118 249 L118 251 L137 270 L139 270 L140 273 L142 273 L142 275 L174 306 L174 308 L179 313 L177 314 L176 317 L174 317 L171 314 L171 312 L152 294 L152 310 L165 310 L165 309 L167 310 L167 327 L166 326 L155 326 L157 328 L157 330 L161 333 L158 336 L158 338 L156 338 L156 336 L133 313 L133 311 L107 285 L105 285 L87 267 L80 281 L84 285 L86 285 L97 297 L99 297 L110 310 L112 310 L112 312 L132 331 L132 333 L140 340 L140 342 L145 347 L147 347 L147 345 L149 346 L149 348 L144 352 L144 354 L134 364 L133 361 L138 359 L138 358 L135 358 L135 342 L122 342 L123 341 L122 327 L109 327 L109 313 L108 312 L96 312 L95 300 L94 299 L85 299 L84 300 L83 299 L83 289 L77 289 L77 295 L75 296 L73 302 L82 310 L82 312 L94 324 L94 326 L100 332 L100 334 L102 335 L102 337 L107 342 L107 344 L109 345 L109 347 L111 348 L111 350 L113 351 L113 353 L115 354 L115 356 L118 359 L116 361 L116 363 L114 364 L112 370 L110 371 L109 375 L107 376 L107 379 L105 380 L101 390 L76 391 L76 388 L77 388 L77 385 L78 385 L78 382 L79 382 L80 369 L81 369 L81 350 L80 350 L80 343 L79 343 L78 334 L76 332 L76 328 L74 326 L73 320 L72 320 L67 308 L65 307 L65 309 L62 309 L62 310 L64 312 L66 322 L67 322 L67 327 L68 327 L68 330 L69 330 L70 344 L71 344 L71 357 L72 357 L71 379 L70 379 L69 390 L68 391 L57 391 L52 379 L50 380 L51 376 L50 376 L50 374 L47 370 L46 364 L45 364 L45 380 L48 380 L48 381 L51 382 L51 389 L49 391 L18 391 L16 389 L15 385 L16 385 L16 382 L18 380 L21 380 L21 347 L14 344 L5 335 L5 333 L4 333 L5 322 L4 322 L4 319 L3 319 L2 314 L1 314 L1 311 L2 311 L2 308 L3 308 L3 301 L1 299 L1 293 L2 293 L2 291 L5 287 L5 275 L9 270 L11 270 L13 268 L21 268 L21 196 L19 196 L17 194 L18 188 L14 187 L10 183 L9 177 L10 177 L10 174 L14 170 L21 169 L22 165 L12 155 L12 153 L10 152 L10 149 L14 145 L14 143 L18 140 L18 138 L24 133 L24 131 L31 125 L31 123 L33 123 L39 129 L39 131 L47 138 L47 140 L55 148 L55 153 L44 164 L45 169 L52 170 L56 175 L56 183 L52 187 L48 188 L49 194 L47 196 L45 196 L45 270 L58 268 L58 269 L60 269 L64 272 L64 274 L66 276 L67 284 L68 284 L69 293 L70 293 L70 297 L68 299 L70 299 L71 301 L74 297 L74 294 L76 292 L76 288 L79 284 L79 279 L80 279 L80 277 L81 277 L87 263 L89 262 L89 260 L92 257 L93 253 L97 249 L97 247 L100 245 L100 243 L103 241 L103 239 L108 235 L108 233 L119 223 L119 221 L127 213 L129 213 L134 207 L136 207 L140 202 L142 202 L137 197 L135 197 L133 194 L136 194 L139 197 L141 196 L142 200 L145 200 L147 198 L147 196 L144 198 L144 195 L148 191 L156 190 L158 187 L159 187 L158 190 L160 190 L161 187 L164 185 L164 183 L166 181 L166 178 L167 178 L166 167 L169 170 L169 176 L170 176 L169 181 L170 181 L172 177 L174 179 L177 171 L178 171 L178 174 L179 174 L180 170 L184 167 L183 170 L182 170 L182 173 L183 173 L183 171 L189 165 L189 163 L191 163 L193 161 L193 159 L195 157 L195 152 L196 152 L195 138 L194 138 L194 135 L193 135 L193 128 L194 128 L194 135 L195 135 L195 129 L196 129 L197 138 L198 138 L198 140 L200 139 L201 154 L200 154 L199 161 L195 165 L195 167 L192 169 L192 171 L188 174 L188 176 L186 176 L183 180 L181 180 L180 182 L178 182 L177 184 L175 184 L173 186 L181 185 L181 184 L188 183 L188 182 L194 182 L194 181 L198 181 L198 180 L209 179 L209 178 L213 178 L213 177 L230 175 L224 169 L224 167 L222 165 L222 157 L223 157 L224 153 L227 151 L228 148 L226 146 L218 143 L216 140 L214 140 L214 138 L210 134 L209 129 L202 130 L197 126 L197 124 L198 124 L201 127 L205 127 L205 126 L208 126 L210 124 L210 120 L211 120 L211 118 L213 117 L213 114 L214 114 L214 108 L212 108 L212 110 L209 109 L209 112 L211 111 L209 114 L205 115 L204 117 L200 117 L202 115 L203 111 L204 111 L204 106 L198 104 L198 108 L196 110 L196 104 L197 103 L192 99 L192 97 L189 93 L188 83 L187 83 L187 76 L186 76 L184 71Z M151 77 L158 77 L158 78 L164 79 L173 86 L172 87 L171 85 L169 85 L167 83 L164 83 L164 82 L160 82 L160 81 L154 81 L154 82 L145 83 L143 85 L139 85 L136 82 L137 80 L141 80 L141 79 L145 79 L145 78 L151 78Z M203 78 L204 78 L203 79Z M144 87 L155 87 L159 90 L157 90 L155 88 L147 88 L147 90 L152 90 L152 91 L156 91 L156 92 L160 92 L160 93 L164 94 L162 96 L153 94 L152 98 L153 97 L156 97 L156 98 L146 100 L147 99 L146 92 L144 92 L142 90 L142 89 L145 89 L144 88Z M205 96 L206 96 L205 97Z M212 96 L213 96 L212 97Z M228 100 L227 100 L228 101Z M209 112 L208 112 L209 113Z M195 115 L196 115 L196 117 L195 116Z M194 118 L195 118 L195 120 L194 119Z M131 125 L130 125 L131 126Z M143 124 L144 124 L143 125Z M248 125 L252 129 L251 130 L248 126Z M32 131 L26 136 L26 138 L16 148 L17 154 L26 163 L26 167 L24 169 L41 169 L40 166 L39 167 L30 166 L29 161 L27 160 L27 158 L21 152 L21 149 L26 145 L26 143 L31 139 L31 137 L34 137 L34 139 L39 143 L39 145 L45 150 L44 154 L37 161 L37 165 L40 165 L42 159 L49 153 L49 148 L45 145 L45 143 L33 131Z M128 133 L129 133 L129 135 L128 135 L129 138 L132 137 L136 140 L139 140 L139 138 L140 138 L144 142 L146 142 L148 144 L151 144 L151 145 L162 144 L163 141 L164 141 L164 137 L165 137 L165 143 L162 146 L158 147 L158 148 L147 147 L147 146 L142 145 L142 144 L136 144 L134 146 L135 149 L144 149 L144 150 L139 152 L140 155 L141 155 L142 161 L141 161 L141 159 L138 155 L138 157 L135 161 L134 167 L133 167 L132 176 L133 176 L133 179 L134 179 L134 176 L135 176 L135 182 L134 182 L133 188 L132 188 L132 185 L130 183 L131 180 L130 180 L130 176 L129 176 L129 171 L130 171 L131 164 L132 164 L133 160 L135 159 L136 152 L133 150 L133 145 L134 144 L128 142 L128 140 L127 140 L127 134 L128 134Z M186 133 L187 133 L187 135 L186 134Z M189 133 L190 133 L190 135 L188 135 L189 134Z M225 133 L226 133 L225 134Z M232 138 L234 138 L234 139 L236 139 L240 142 L240 143 L238 143 L236 140 L232 139Z M140 140 L139 140 L140 141Z M32 141 L27 146 L27 148 L30 148 L31 145 L32 145 L32 142Z M251 156 L248 159 L250 159 L250 162 L252 163 L252 165 L254 165 L258 168 L258 172 L261 169 L261 166 L258 165 L257 163 L255 163 L252 160 L251 157Z M248 159 L245 160 L245 162 L243 163 L243 167 L245 167 L248 170 L251 169 L250 171 L252 171 L252 172 L258 173 L256 168 L249 165 L248 160Z M246 161 L247 161 L246 162Z M28 165 L29 165 L28 166Z M246 171 L245 171 L246 172Z M182 173 L181 173 L182 174Z M17 174 L14 176 L14 181 L16 183 L21 182 L21 181 L46 181 L46 182 L49 183 L52 180 L52 177 L51 177 L50 174 L47 174 L46 176 L43 176 L43 177 L41 177 L41 176 L29 176 L29 175 L25 175 L25 176 L28 176 L28 177 L20 177 L19 174 L18 174Z M181 174 L180 174 L180 176 L181 175Z M22 175 L21 175 L22 176Z M155 176 L156 176 L155 177Z M173 179 L172 179 L173 180Z M19 180 L20 180 L19 181Z M173 186 L172 186 L173 187Z M25 188 L23 190 L21 190 L21 192 L45 192 L44 189 L41 189 L41 191 L39 191 L40 190 L39 188 L26 188Z M226 188 L229 188 L229 189 L227 189 L225 191 L207 193 L207 194 L191 196 L191 197 L186 197 L186 198 L181 198 L181 199 L176 199 L176 200 L170 200 L170 201 L164 201 L164 202 L162 201 L162 200 L169 199 L169 198 L187 196 L187 195 L192 195 L192 194 L196 194 L196 193 L204 193 L206 191 L215 191 L215 190 L226 189Z M158 190 L157 190 L158 191Z M298 189 L302 190 L304 192 L307 192 L315 200 L315 208 L314 208 L313 204 L311 203 L311 201 L308 198 L303 197 L302 195 L300 195 L300 194 L293 191 L293 190 L296 190 L296 191 L298 190Z M132 190 L133 190 L133 192 L132 191Z M156 191 L155 191 L156 192Z M29 195 L25 196 L25 267 L29 267 L29 268 L34 268 L34 196 L30 195Z M40 196 L39 196 L39 268 L41 268 L41 196Z M123 198 L124 198 L124 204 L122 205 L122 207 L120 207 L120 208 L116 207 L116 204 L118 203 L118 201 L123 199Z M144 207 L141 210 L139 210 L137 212 L137 214 L141 218 L141 217 L144 216 L144 214 L142 216 L140 216 L139 212 L141 212 L142 210 L145 210 L145 212 L149 214 L149 217 L141 224 L143 225 L144 223 L146 223 L152 217 L152 215 L144 208Z M105 212 L108 213 L107 220 L103 223 L100 222 L101 215 L103 213 L105 213Z M134 215 L133 215 L134 216Z M135 216 L134 216 L135 217Z M245 215 L270 216 L270 217 L273 217 L273 218 L271 220 L269 220 L263 227 L261 227 L251 238 L249 238 L226 262 L224 262 L188 226 L189 224 L192 224 L192 223 L197 223 L197 222 L202 222 L202 221 L212 220 L212 219 L217 219 L217 218 L232 217 L232 216 L245 216Z M136 217 L135 217 L136 218Z M137 218 L136 218 L137 219Z M130 219 L127 222 L127 224 L130 226 L130 223 L133 223 L134 226 L133 227 L130 226 L132 229 L136 226 L136 224 L131 219Z M138 219 L137 220 L139 222 L140 222 L139 219Z M156 220 L147 228 L147 231 L152 234 L152 232 L149 230 L149 228 L151 228 L152 225 L156 222 L163 229 L161 233 L159 233 L157 231 L157 229 L155 230 L158 233 L157 237 L159 235 L161 235 L166 230 L157 220Z M141 222 L140 222 L141 223Z M144 225 L143 225 L144 226Z M158 228 L157 228 L158 229Z M141 229 L140 229 L139 232 L137 232 L137 234 L139 236 L141 236 L141 234 L143 233 L147 237 L143 241 L145 243 L147 243 L147 241 L150 239 L141 230Z M92 229 L94 229 L94 236 L91 240 L87 240 L87 235 L92 230Z M153 234 L152 234 L153 235Z M170 234 L162 242 L160 242 L159 240 L158 240 L158 242 L163 247 L165 247 L163 245 L163 243 L165 242 L165 240 L167 238 L169 238 L171 236 L173 238 L173 240 L177 243 L177 246 L175 248 L171 247 L173 250 L176 250 L181 244 L171 234Z M154 235 L153 235 L154 236Z M155 236 L154 236 L155 237Z M156 237 L155 237 L155 239 L157 240 L157 238 L156 238Z M171 241 L168 243 L168 246 L169 246 L170 244 L172 244 L172 242 L171 242Z M155 243 L153 244 L153 246 L151 246 L152 250 L155 252 L155 250 L158 248 L158 246 L155 244Z M106 245 L105 245 L105 261 L120 261 L106 246Z M167 247 L165 249 L171 255 L173 255 L167 248Z M314 246 L315 246 L315 383 L314 383 L314 386 L311 389 L306 390 L306 391 L284 391 L284 288 L282 288 L239 331 L240 332 L240 381 L239 382 L240 382 L240 388 L247 389 L248 391 L170 391 L170 389 L179 380 L179 378 L192 365 L192 363 L199 357 L199 355 L207 348 L207 346 L217 337 L217 335 L230 323 L230 321 L261 290 L263 290 L275 277 L277 277 L285 268 L287 268 L291 263 L293 263 L297 258 L299 258 L301 255 L303 255 L309 249 L314 247Z M185 248 L182 251 L180 251 L176 255 L176 257 L174 257 L185 268 L186 265 L184 266 L177 259 L177 257 L183 251 L185 251 L187 253 L187 255 L189 255 L189 257 L191 258 L191 260 L189 262 L186 262 L186 265 L188 265 L194 259 L194 257 L185 249Z M80 249 L83 250 L83 253 L82 253 L81 257 L79 257 L79 258 L78 258 L78 252 L80 250Z M162 251 L159 254 L157 254 L157 255 L159 255 L159 257 L161 257 L161 255 L163 255 L163 252 L162 252Z M156 252 L155 252 L156 253Z M185 255 L182 258 L182 259 L184 259 L185 256Z M169 259 L167 261 L165 261 L165 263 L170 268 L173 268 L175 266 L174 263 L173 263 L173 266 L169 265 L169 262 L172 262 L170 259Z M121 261 L120 261 L120 275 L121 275 L121 277 L136 277 L121 262Z M186 261 L185 261 L186 262Z M93 262 L92 262 L92 264 L96 268 L98 268 L104 275 L106 275 L106 273 L105 273 L105 262 L94 262Z M173 262 L172 262 L173 263Z M199 262 L190 271 L187 271 L193 277 L193 275 L190 272 L192 270 L194 270 L198 265 L200 265 L200 263 L199 263Z M71 265 L74 265 L74 270 L70 274 L69 274 L69 268 L71 266Z M186 268 L185 268 L186 269Z M203 268 L198 269 L198 270 L202 271 L202 273 L198 276 L198 278 L203 273 L206 273 L206 275 L201 280 L204 280 L209 275 L209 273 L204 268Z M16 270 L10 272 L9 275 L8 275 L8 278 L7 278 L8 287 L7 287 L7 289 L4 293 L4 299 L6 301 L6 307 L5 307 L5 310 L4 310 L4 314 L5 314 L5 317 L6 317 L7 322 L8 322 L7 323 L7 332 L8 332 L8 334 L15 341 L17 341 L20 344 L21 344 L21 340 L18 340 L17 338 L34 338 L34 337 L37 337 L37 338 L44 337 L45 338 L45 337 L48 337 L48 336 L51 335 L52 328 L50 326 L46 326 L46 325 L42 325 L42 324 L18 323 L18 321 L44 321 L44 322 L52 323 L54 321 L54 312 L47 309 L47 308 L41 307 L41 306 L21 306 L21 305 L16 305 L16 304 L40 303 L40 304 L48 305 L48 306 L53 308 L55 306 L55 297 L49 291 L41 289 L41 288 L18 287 L19 285 L41 285 L41 286 L50 288 L52 290 L51 280 L50 280 L49 276 L46 273 L44 273 L42 271 L34 271 L34 270 L17 270Z M56 270 L51 271 L49 273 L52 276 L53 283 L54 283 L54 289 L55 289 L57 295 L59 297 L62 297 L62 298 L67 297 L68 292 L67 292 L67 289 L65 287 L64 277 L63 277 L62 273 L57 271 L57 270Z M179 270 L176 272 L176 274 L179 277 L181 275 L183 275 L183 273 L180 270Z M197 271 L195 272 L195 274 L197 274 L198 271Z M108 277 L107 278 L120 291 L121 291 L121 278 L120 277 L109 277Z M194 277 L193 277 L194 278Z M138 278 L137 278 L137 293 L152 293 L138 279Z M187 278 L186 278 L186 280 L184 280 L184 282 L188 286 L189 286 L189 283 L190 283 L190 280 L188 278Z M195 278 L194 279 L196 281 L197 281 L196 278Z M198 281 L197 281 L198 282Z M199 282 L198 282 L199 283Z M194 284 L193 284 L193 288 L191 288 L191 290 L193 291 L197 287 L197 286 L194 285Z M63 285 L64 285 L63 288 L62 288 L62 286 L63 286Z M190 286 L189 286 L190 287Z M191 287 L190 287 L191 288Z M125 293 L124 293 L124 295 L137 307 L137 294 L125 294Z M61 302 L60 302 L60 304 L61 303Z M141 310 L140 311 L143 313 L143 315 L151 323 L152 323 L152 310 L142 310Z M47 327 L48 327 L48 329 L47 328Z M118 330 L120 331 L120 341 L118 341 L118 331Z M47 332 L48 332 L47 333Z M45 335 L46 335 L45 336Z M41 341 L39 342 L39 347 L40 347 L40 350 L39 350 L39 362 L40 362 L39 363 L39 371 L40 371 L39 380 L41 380 L41 342Z M27 346 L26 346 L26 357 L25 357 L25 380 L34 380 L34 346 L28 346Z M121 345 L132 345 L132 353 L131 354 L130 354 L130 350 L127 349 L127 347 L121 346Z M127 351 L129 352 L128 356 L127 356 L127 353 L126 353 L127 352Z M124 353 L125 353 L125 356 L126 356 L126 358 L124 358 L124 354Z M260 359 L261 359 L261 364 L262 364 L262 374 L263 374 L263 382 L264 382 L264 388 L265 388 L264 391 L256 391 L260 360Z M120 364 L121 364 L121 366 L122 366 L122 368 L124 369 L125 372 L129 368 L130 369 L129 372 L125 375 L125 377 L121 380 L121 382 L117 385 L117 387 L114 390 L106 391 L111 379 L113 378 L115 372 L117 371 L117 369 L120 365Z M120 371 L119 371 L119 375 L121 374 L121 372 L120 372Z M116 375 L115 375 L116 381 L117 381 L117 378 L118 378 L118 381 L120 381 L120 379 L117 375Z M118 381 L117 381 L118 382Z M114 382 L113 382 L114 383Z M22 383 L20 384 L20 387 L46 387 L47 386 L46 384 L23 383Z M113 383 L110 386 L111 389 L112 389 L113 384Z" fill="#0f1729" fill-rule="evenodd"></path><path d="M153 0 L158 0 L158 1 L153 1Z M187 0 L191 0 L191 1 L187 1Z M143 1 L147 1 L147 2 L143 2Z M199 1 L203 1 L203 2 L199 2Z M135 2 L138 2 L138 3 L135 3Z M169 2 L170 2 L169 3Z M129 3 L132 3 L132 4 L129 4Z M204 3 L205 3 L204 4Z M214 3 L215 3 L214 4Z M216 3 L218 3 L218 4 L216 4Z M123 4 L125 4 L125 5 L123 5Z M158 4 L159 4 L159 8 L158 8 L158 5Z M222 4 L225 4 L225 5 L222 5Z M111 5 L113 5 L113 6 L111 6Z M115 5 L117 6 L117 7 L115 6Z M163 5 L164 5 L164 11 L163 11 L163 6Z M214 5 L215 5 L215 9 L214 9 L214 6Z M228 5 L229 5 L228 6Z M107 6 L109 6 L109 7 L107 7Z M123 6 L124 6 L123 7Z M165 6 L166 6 L165 7Z M203 6 L204 6 L203 7Z M232 6 L235 6 L235 7 L232 7Z M104 7 L105 7 L105 9 L104 8Z M171 7 L172 7 L171 8Z M208 7 L210 7 L210 8 L208 8Z M237 7 L239 7 L239 8 L237 8Z M166 8 L167 8 L166 9Z M202 8 L203 8 L203 10 L202 9Z M241 8 L242 8 L241 9Z M118 9 L120 10 L120 11 L118 10Z M207 9 L208 9 L207 10Z M244 9 L245 9 L245 11 L244 10Z M126 10 L127 10 L126 11Z M167 10 L168 10 L167 11Z M214 10 L215 10 L215 15 L214 15 L214 11Z M106 11 L108 12 L108 13 L106 12Z M201 11 L202 11 L202 13 L201 12Z M206 11 L207 11 L207 13 L206 12Z M120 12 L122 13 L122 14 L120 13Z M173 12 L174 12 L173 13Z M243 12 L244 12 L243 13Z M254 12 L255 12 L254 13Z M128 13 L129 13 L128 14Z M159 13 L160 13 L160 20 L159 21 L153 21 L153 20 L159 20 L159 14Z M168 13 L169 13 L168 14Z M258 13 L259 13 L258 14Z M108 14 L110 15 L110 16 L108 15Z M174 14 L175 14 L174 15Z M200 14 L201 14 L200 15Z M242 14 L243 14 L242 15Z M261 14 L262 14 L261 15Z M169 15 L170 15 L169 16Z M205 15 L206 15 L205 16Z M248 15 L249 16 L246 18 L248 16Z M264 15 L265 15 L264 16Z M123 16 L125 17 L125 18 L123 17Z M130 16 L131 16 L130 17Z M199 16 L200 16 L200 18 L199 17Z M241 16 L242 16 L241 17Z M266 16 L268 16 L268 17 L266 17Z M204 17 L205 17 L204 18Z M269 17 L270 17 L269 18Z M111 18 L113 19 L113 20 L111 19Z M170 18 L171 18 L170 19Z M125 19 L127 20 L127 21 L125 20Z M132 19 L134 20 L134 21 L132 20Z M176 19 L177 19 L176 20Z M214 19 L215 19 L215 23 L214 23 L214 20Z M245 19 L246 19 L245 20Z M253 19 L254 19 L254 21 L253 20Z M274 19 L275 19 L274 20Z M171 20 L172 20 L171 21Z M186 20 L195 20 L195 21 L186 21Z M198 20 L199 20 L198 21Z M203 20 L204 20 L203 21Z M239 20 L240 20 L239 21Z M248 20 L249 20 L249 22 L248 21Z M276 20 L277 20 L276 21Z M113 21 L114 21 L113 22Z M144 21 L147 21 L147 22 L144 22Z M164 21 L165 21 L165 25 L164 26 L159 26 L159 25 L164 25 L164 22Z M244 21 L245 21 L244 22Z M278 21 L279 21 L278 22Z M127 22 L130 24 L129 25 L127 23Z M134 22 L135 22 L134 23Z M136 22 L140 22 L140 23 L136 23Z M280 22 L281 22 L280 23Z M172 23 L173 23 L172 24Z M202 23 L203 23 L202 24Z M217 23 L219 23 L219 24 L217 24Z M243 23 L244 23 L243 24Z M115 24 L116 24 L115 25Z M223 24 L226 24 L226 25 L223 25Z M237 24 L238 24 L237 25Z M252 24 L253 24 L253 29 L252 29 L252 25Z M174 25 L184 25 L184 26 L174 26Z M201 25 L202 25 L202 27 L195 27 L195 26 L201 26Z M229 25 L231 25 L231 26 L229 26Z M130 26 L131 26 L130 27Z M146 26 L152 26 L152 27 L146 27Z M234 26 L235 26 L234 27Z M236 26 L237 26 L236 27Z M241 26 L242 26 L241 27Z M279 26 L280 26 L279 27Z M288 26 L289 26 L288 27Z M117 27 L118 27 L117 28Z M138 27 L142 27 L142 28 L138 28Z M247 27 L248 27 L248 30 L247 30 L247 28Z M285 27 L286 27 L285 28Z M290 27 L291 27 L290 28Z M132 28 L134 28 L134 29 L132 29Z M213 28 L216 28 L216 29 L213 29Z M292 28 L293 28 L292 29Z M221 29 L224 29 L224 30 L221 30Z M277 29 L278 29 L277 30Z M294 29 L295 29 L294 30Z M119 30 L120 30 L119 31Z M227 30 L229 30 L229 31 L227 31Z M239 30 L240 30 L239 31Z M231 31 L234 31 L234 32 L231 32Z M252 31 L254 31 L254 32 L252 32Z M237 32 L239 32 L239 33 L237 33Z M255 32 L257 32 L257 33 L255 33Z M281 32 L282 32 L281 33Z M121 33 L122 33 L121 34Z M153 33 L154 34 L151 36 L153 34Z M157 33 L158 33 L157 34Z M191 33 L192 33 L191 34Z M259 33 L260 33 L259 34Z M274 33 L275 33 L274 34Z M292 33 L293 33 L292 34Z M171 34 L172 34 L171 35Z M186 34 L187 34 L186 35Z M246 34 L247 34 L246 35Z M262 34 L263 34 L262 35Z M159 35 L160 35 L159 36Z M193 35 L194 35 L193 36Z M248 35 L249 35 L248 36Z M265 35 L266 35 L265 36Z M279 35 L280 35 L279 36Z M123 36 L124 36 L123 37Z M135 36 L136 36 L135 37Z M138 36 L139 36 L138 37Z M185 36 L186 36 L186 39 L185 39 L185 37Z M206 36 L210 37 L210 38 L206 37Z M251 36 L253 36 L253 37 L251 37Z M267 36 L268 36 L267 37Z M290 36 L291 36 L290 37Z M170 37 L171 37 L170 38Z M223 37 L225 37 L225 38 L223 38Z M254 37 L256 37 L256 38 L254 38Z M270 37 L272 37 L272 38 L270 38Z M124 38 L125 38 L124 39Z M140 38 L141 38 L140 39Z M151 38 L152 38 L151 39Z M159 38 L160 38 L159 39Z M175 38 L176 38 L175 39Z M204 38 L205 38 L205 40 L204 39Z M221 38 L222 38 L221 39Z M257 38 L258 38 L257 39Z M289 38 L290 38 L289 39Z M172 39 L174 39 L174 40 L172 40Z M193 39 L194 39 L193 40Z M260 39 L262 39 L262 40 L260 40Z M276 39 L277 39 L276 40Z M140 40 L141 40 L140 41Z M152 40 L153 40 L152 41Z M158 40 L159 40 L158 41Z M186 40 L187 40 L186 41Z M209 40 L210 40 L209 42 L206 42 L206 41 L209 41Z M126 41 L127 41 L126 42Z M134 41 L135 41 L134 42Z M154 41 L157 41 L157 42 L154 42Z M188 41 L189 41 L188 42Z M190 41 L192 41 L192 42 L190 42Z M228 41 L229 41 L229 43 L228 42Z M266 41 L267 41 L266 42Z M287 41 L288 41 L287 42Z M136 42 L138 42 L138 43 L136 43Z M240 42 L241 42 L240 43Z M269 42 L270 42 L269 43Z M127 43 L129 44 L129 45 L127 44Z M238 43 L239 43 L238 44Z M271 43 L272 43 L271 44Z M273 43 L274 43 L273 44Z M227 44 L228 44 L227 45Z M222 45 L223 45 L222 46Z M253 45 L255 45 L255 46 L253 46Z M256 45 L257 45 L256 46Z M284 45 L285 45 L284 46Z M129 46 L130 46 L129 47Z M154 46 L160 46 L160 47 L154 47Z M185 46 L188 46 L188 47 L185 47Z M238 46 L241 47 L241 48 L238 47Z M242 46 L243 46 L242 47Z M144 47 L148 47 L148 48 L144 48Z M196 47 L203 47 L203 48 L196 48Z M251 47 L252 47 L251 48Z M258 47 L259 47 L258 48Z M283 47 L284 47 L283 48Z M137 48 L138 48 L137 49Z M208 48 L211 48 L211 49 L208 49Z M131 49 L134 49 L134 50 L131 50Z M165 49 L181 49 L181 50 L165 50Z M214 49 L217 49 L217 50 L214 50Z M149 50 L153 50 L153 51 L149 51Z M192 50 L196 50 L196 51 L192 51Z M221 50 L223 50 L223 51 L221 51Z M258 50 L259 50 L258 51Z M281 50 L282 50 L281 51Z M139 51 L144 51 L144 52 L139 52Z M200 51 L207 51 L207 52 L200 52Z M226 51 L227 51 L226 52Z M133 52 L134 52 L133 53Z M212 52 L214 52 L214 53 L212 53Z M230 52 L233 52 L233 53 L230 53Z M253 52 L257 52 L257 53 L253 53Z M268 52 L269 52 L268 53 L269 57 L267 56 L267 53 L268 53Z M271 52 L272 52 L271 53Z M152 53 L156 53 L156 54 L152 54Z M164 53 L167 53 L169 55 L171 54 L170 57 L179 65 L179 67 L181 68 L181 66 L180 66 L181 65 L183 67 L183 69 L186 70 L186 71 L185 70 L183 70 L183 71 L185 72 L185 74 L187 76 L187 79 L186 79 L186 87 L187 87 L187 83 L188 83 L187 92 L188 92 L188 94 L190 93 L190 95 L191 95 L190 97 L192 97 L191 99 L197 103 L196 104 L196 110 L198 108 L197 115 L195 115 L195 117 L196 117 L196 122 L200 126 L198 124 L197 124 L197 126 L202 130 L207 130 L208 129 L210 131 L210 135 L214 138 L214 140 L216 140 L218 142 L218 144 L220 143 L220 145 L222 144 L222 145 L224 145 L225 147 L228 148 L227 151 L225 151 L225 153 L223 153 L224 155 L222 155 L223 157 L222 157 L222 164 L221 164 L221 159 L220 159 L219 153 L215 150 L215 148 L213 146 L211 146 L209 144 L209 142 L207 140 L204 140 L203 137 L202 137 L202 143 L201 143 L200 139 L198 140 L199 138 L197 138 L196 129 L195 129 L195 135 L193 136 L194 135 L194 128 L193 128 L193 134 L192 134 L191 141 L190 141 L190 143 L188 142 L188 145 L185 148 L185 151 L182 153 L182 155 L180 156 L180 158 L178 160 L176 160 L172 163 L169 163 L170 161 L173 161 L174 159 L176 159 L181 154 L181 152 L183 150 L183 147 L184 147 L183 135 L182 135 L182 139 L181 139 L181 143 L179 145 L179 148 L174 152 L174 150 L176 149 L177 144 L178 144 L178 139 L179 139 L179 136 L178 136 L176 138 L174 148 L172 149 L171 152 L170 152 L170 150 L171 150 L172 145 L173 145 L175 131 L179 127 L181 127 L182 125 L184 125 L186 123 L191 128 L191 114 L192 114 L193 104 L187 96 L186 88 L183 90 L182 77 L181 77 L181 74 L180 74 L179 70 L172 64 L172 62 L164 54Z M175 53 L177 53 L177 54 L178 53 L188 53 L186 55 L191 60 L193 60 L195 62 L195 64 L197 64 L201 68 L201 70 L200 70 L195 65 L194 65 L194 67 L197 70 L199 70 L204 76 L206 76 L211 82 L213 82 L220 89 L222 89 L231 99 L233 99 L242 108 L242 110 L246 113 L246 114 L244 114 L244 116 L251 123 L251 125 L254 129 L254 133 L255 133 L255 134 L253 134 L252 131 L249 130 L250 126 L249 127 L247 126 L247 124 L243 121 L243 119 L241 118 L241 116 L239 114 L238 114 L238 116 L244 124 L234 116 L234 113 L232 115 L232 113 L233 113 L233 111 L231 112 L232 107 L230 107 L231 105 L229 105 L229 103 L227 101 L227 100 L229 101 L229 99 L223 93 L221 93 L218 89 L216 89 L218 91 L217 92 L214 89 L215 87 L209 81 L207 81 L207 82 L212 86 L211 87 L201 77 L199 77 L194 71 L192 71 L191 70 L192 68 L189 68 L189 66 L187 65 L186 62 L184 63 L175 54Z M217 53 L219 53 L219 54 L217 54Z M236 53 L238 53 L238 54 L236 54Z M279 53 L280 53 L279 54Z M141 54 L145 54 L145 55 L141 55Z M179 55 L178 55 L179 56Z M223 54 L226 54 L226 55 L223 55Z M239 54 L241 54 L241 55 L239 55Z M135 55 L137 55 L137 56 L135 56 L135 58 L134 58 L134 56 L135 56Z M180 56 L179 56 L180 57Z M193 55 L198 59 L197 60 L193 56Z M205 55 L207 55 L207 56 L205 56Z M228 55 L230 55 L230 56 L228 56Z M244 55 L245 55 L244 56Z M271 55 L272 55 L271 56Z M132 56 L133 56 L132 57Z M181 57 L180 57 L181 58Z M210 56 L211 56 L210 57Z M232 56 L234 56 L234 57 L232 57Z M247 56 L248 56 L247 57Z M277 56 L278 56 L277 57Z M182 58 L181 58 L182 59Z M184 58 L183 58 L184 59Z M237 57 L239 57 L239 58 L237 58Z M250 57 L252 57 L252 58 L250 58Z M183 59 L182 59 L183 60Z M241 58 L242 58 L241 59Z M254 58 L255 58 L254 59Z M131 59 L132 59 L132 61 L131 60Z M184 60 L183 60 L184 61Z M186 60 L185 60 L186 61Z M225 59 L226 60 L228 59 L227 61 L243 76 L242 77 L225 60Z M244 59 L246 59 L246 60 L244 60Z M257 59 L258 59 L257 60Z M275 59 L276 59 L275 60Z M185 61 L184 61 L185 62Z M187 61 L186 61 L187 62Z M248 60 L250 60 L250 61 L248 61Z M259 60 L260 60 L259 61Z M211 61 L253 102 L252 103 L211 62Z M232 61 L234 62 L234 63 L232 62Z M252 61 L253 61 L252 62Z M262 61 L263 61 L262 62Z M274 61 L275 61 L274 62Z M133 62 L134 62 L133 63Z M193 63 L192 63 L193 64Z M201 62 L212 72 L211 73 L201 63Z M217 62 L245 89 L244 90 L217 63Z M255 62 L256 62 L255 63Z M264 62 L265 62 L264 63Z M194 64 L193 64 L194 65Z M246 63 L247 63 L247 65 L249 64 L248 65 L249 67 L246 64Z M130 64 L131 64 L130 65Z M197 65 L196 65 L197 66Z M235 64 L237 65 L237 66 L235 65Z M260 64 L262 64 L262 65 L260 65Z M268 64 L269 64 L268 65Z M272 64 L273 64 L272 65Z M251 65 L252 65 L251 66Z M263 65 L264 65 L263 66Z M132 66 L133 66 L132 67Z M265 66 L266 66 L265 67Z M129 67 L130 67 L129 68Z M182 68 L181 68 L182 69Z M238 67 L240 68 L240 69 L238 68Z M267 67 L268 67 L267 68Z M183 69 L182 69 L183 70Z M193 69 L192 69 L193 70Z M131 69 L132 69 L131 70Z M270 69 L272 70 L272 71 L270 70Z M128 70 L129 70 L128 71Z M241 70 L242 70 L241 71Z M186 72 L187 72 L186 73Z M272 72 L273 72 L273 75 L272 75 L272 73Z M127 73 L128 73 L127 74Z M129 74 L130 74 L130 76 L129 75Z M187 74 L188 74 L187 75Z M126 75 L127 75 L127 77 L126 76Z M246 75 L247 75 L246 76Z M195 76 L196 76 L195 77Z M258 76 L259 76 L258 77Z M148 77 L151 77 L151 78 L148 78Z M158 77 L159 77 L158 78Z M188 77 L189 77 L189 79 L188 78Z M204 78 L203 78 L204 79Z M248 77 L249 77 L248 78Z M144 78 L145 78 L144 79Z M161 78 L162 78 L161 79Z M260 78 L261 78 L260 79Z M137 79 L141 79 L141 80 L137 80 L137 81 L136 81 L137 80Z M164 79 L165 79 L164 80Z M197 79 L199 80 L200 84 L203 86 L203 88 L207 92 L209 92 L210 94 L218 97 L222 101 L222 103 L224 105 L224 108 L226 109 L226 114 L227 114 L226 123 L227 123 L227 126 L229 128 L231 128 L232 130 L234 130 L235 132 L239 133 L244 138 L244 141 L243 141 L241 137 L239 137 L238 135 L236 135 L233 132 L230 132 L225 127 L224 122 L223 122 L224 112 L223 112 L223 107 L222 107 L221 103 L217 99 L215 99 L217 101 L216 102 L214 100 L210 100 L210 99 L207 99 L207 98 L203 97 L200 94 L199 91 L202 92 L207 97 L210 97 L210 98 L212 98 L212 97 L203 92 L203 90 L200 87 L197 80Z M207 80 L206 80 L207 81Z M265 79 L271 84 L270 85 L265 80Z M262 80 L270 87 L269 88 L262 81Z M154 81 L164 82 L164 83 L154 83 L154 82Z M167 81 L168 81 L167 82Z M129 82 L130 82 L129 83Z M136 82 L137 82 L136 83Z M149 82 L153 82 L153 83 L149 83Z M169 82 L175 88 L174 89 L173 86 L171 87 L170 86 L171 84 L169 83Z M126 83 L127 83 L126 84Z M145 83 L146 84 L154 84 L154 85 L162 86 L162 87 L164 87 L165 89 L167 89 L169 91 L169 94 L165 94 L165 96 L162 96 L165 93 L162 94 L163 92 L160 93 L161 91 L156 92 L159 89 L156 90 L157 88 L154 89 L155 87 L144 87 L145 89 L142 89 L142 90 L144 92 L146 92 L146 96 L147 96 L146 100 L150 100 L150 99 L153 100 L151 103 L149 103 L149 102 L145 101 L144 99 L139 99 L139 88 L138 87 L140 85 L143 85 L143 84 L145 85 L145 84Z M166 83 L167 83 L166 84Z M189 83 L190 83 L190 86 L189 86 L189 84Z M130 84 L132 85 L132 86 L130 85Z M138 84 L139 84 L138 85Z M168 84 L169 84 L168 85Z M172 85 L171 85 L172 86Z M254 84 L262 91 L261 92 L254 85Z M273 84 L274 84 L274 88 L272 88 L273 85Z M128 86 L129 86 L128 87Z M132 87 L133 87 L132 88Z M216 88 L215 88 L216 89Z M129 88 L130 88 L129 89Z M147 89 L150 89 L150 90 L147 90Z M190 89 L191 89 L190 90Z M254 89 L263 97 L262 98 L254 90Z M271 89 L273 90 L273 91 L271 90Z M130 90 L131 90 L130 91Z M152 90 L153 90 L152 91Z M188 90 L189 90 L188 91Z M132 91 L133 91 L132 92Z M129 92 L130 92 L129 93Z M191 92 L192 92 L191 93Z M128 94 L129 94 L129 96 L128 95Z M131 94 L132 94 L131 95Z M153 94 L154 94 L153 95Z M155 94 L156 94 L155 95Z M190 95 L189 95 L190 96Z M192 94 L195 96 L194 97 L192 95Z M274 94 L275 94 L275 97 L274 97 L274 95Z M159 95 L161 97 L156 98 L156 96 L159 96Z M206 96 L205 96 L206 97Z M213 96 L212 96 L213 97Z M222 95 L223 95 L222 96Z M228 96 L227 96 L228 97Z M264 95 L265 95 L264 96Z M130 96 L131 96 L130 97Z M152 96 L153 96 L153 98 L152 97Z M127 97 L128 97 L127 98Z M214 98 L213 99 L215 99 L215 98Z M266 97 L269 99 L268 100 L266 98Z M129 98 L130 98 L129 99Z M154 98 L155 98 L154 99Z M224 98 L226 99 L226 100 L224 99Z M126 99 L127 99 L126 100Z M197 99 L198 99 L197 100Z M128 100 L129 100 L128 101Z M199 100 L201 101 L201 102 L199 101Z M125 101 L126 101 L125 102Z M127 102 L128 102 L127 103Z M203 102 L204 102 L203 103Z M226 102 L227 102 L226 103Z M241 102 L242 102 L241 103Z M256 102 L257 102 L256 103Z M270 102 L272 103 L272 104 L270 103Z M275 102 L276 102 L276 107 L275 107 L275 103Z M124 103 L125 103 L124 104Z M207 103 L208 103 L207 104Z M267 103 L270 105 L269 106 L267 104Z M126 104 L127 104 L126 105Z M198 104 L200 104 L199 107 L198 107 L198 105Z M243 104 L255 115 L254 116 L243 105Z M254 104 L255 104 L254 105Z M258 104 L262 107 L261 108 L258 105Z M123 105 L124 105 L123 106Z M201 105 L202 105 L201 106Z M234 106 L233 106 L233 108 L235 109 L235 107 L234 107Z M216 106 L217 106 L216 107Z M273 106 L274 106 L273 107Z M202 107 L204 108 L204 111 L203 111 L203 108 L202 108Z M227 107 L228 107 L228 110 L227 110 L227 108Z M124 108 L125 108 L125 110 L124 109Z M212 108 L214 108 L214 110 L210 114 L208 113 L209 109 L211 109 L211 110 L212 109Z M217 108 L218 108 L218 116 L217 116 L217 109Z M236 109 L235 109 L235 111 L236 110Z M274 108 L276 109 L276 110 L274 109Z M121 109 L122 109 L121 110Z M184 109 L185 109 L185 113 L182 116 L182 118 L179 121 L177 121 L176 123 L174 123 L173 125 L171 125 L175 121 L177 115 L179 113 L183 112 L184 110Z M272 109 L275 111 L274 112 L272 110Z M211 111 L210 111 L211 112Z M237 111 L236 111 L237 112Z M210 112 L209 112 L210 113Z M238 112 L237 112 L237 114 L238 113Z M260 111 L268 118 L267 119 L260 112Z M122 112 L123 112 L122 113Z M202 112 L203 112 L202 113Z M244 113 L243 113 L244 114Z M119 113 L120 113 L119 114Z M213 113 L214 113 L213 114Z M275 113 L276 113 L275 114Z M121 114 L122 114 L121 115Z M201 114 L202 114 L201 115Z M207 114 L208 114 L207 115Z M267 114 L270 116 L269 117 L267 115Z M118 115 L119 115 L118 116Z M205 115 L206 115 L205 116Z M220 115 L222 115 L221 116 L221 125 L224 128 L224 130 L226 132 L228 132 L230 135 L239 138 L243 142 L243 145 L245 143 L244 148 L241 151 L239 151 L240 150 L240 145 L239 145 L240 142 L238 140 L235 141 L236 139 L233 140 L234 138 L232 138 L232 139 L229 138 L228 136 L226 136 L224 133 L221 132 L221 130 L219 128 L219 117 L220 116Z M120 116 L121 116 L120 117Z M138 116 L143 116 L144 117 L145 125 L142 128 L136 129 L134 131 L133 135 L135 137 L137 137 L138 136 L138 130 L142 129 L140 131 L140 134 L142 135 L142 137 L144 137 L145 139 L147 138 L151 142 L156 144 L156 145 L148 144 L148 143 L146 143 L146 141 L144 142 L140 138 L139 138 L140 141 L136 140 L132 137 L130 138 L130 133 L127 134 L129 131 L130 132 L132 131 L132 127 L130 125 L131 126 L139 126 L138 124 L133 124 L133 123 L142 123 L142 119 L140 117 L138 117Z M212 116 L213 116 L212 117Z M276 116 L277 116 L277 119 L276 119 L276 117Z M117 117 L118 117 L117 118Z M195 118 L194 118 L194 120 L195 119Z M201 117 L203 117 L203 118 L201 118Z M216 117 L217 117 L216 118Z M119 118 L120 118 L119 119Z M234 118 L235 118 L234 119Z M116 119 L117 119 L117 124 L119 125 L118 126 L116 124 L116 120Z M215 119 L216 119 L215 120Z M271 119 L273 120 L273 121 L271 120Z M227 120 L228 120 L227 121Z M214 121 L215 121 L214 122Z M236 121 L237 121 L236 122Z M252 121 L257 125 L260 136 L261 136 L261 150 L262 150 L262 153 L264 154 L265 152 L263 152 L263 149 L262 149 L263 135 L262 135 L261 130 L264 132 L264 134 L266 136 L266 138 L264 137 L264 141 L265 141 L265 148 L264 149 L265 149 L265 152 L267 151 L266 152 L267 154 L266 155 L264 154 L264 156 L266 158 L268 158 L269 160 L272 160 L275 163 L275 165 L278 168 L279 175 L281 176 L281 178 L283 180 L285 180 L289 183 L292 182 L296 186 L296 190 L298 189 L297 191 L293 190 L291 187 L288 187 L289 185 L287 185 L285 183 L278 182 L275 179 L274 171 L273 171 L272 175 L271 175 L272 173 L270 173 L270 174 L268 173 L269 165 L267 165 L266 161 L263 162 L264 160 L261 161 L262 159 L259 160 L260 158 L256 157 L257 155 L255 155 L256 154 L256 149 L255 148 L257 147 L257 144 L259 142 L259 138 L258 138 L258 134 L257 134 L255 125 L252 122Z M269 121 L272 123 L271 124 L269 122Z M228 122 L229 122 L228 123Z M260 122 L265 126 L264 127 L260 123Z M121 123 L130 123 L130 124 L126 124 L126 125 L121 124Z M144 124 L143 124 L144 125Z M207 123 L208 124 L210 123 L208 126 L206 125 L207 124Z M208 124 L207 124 L208 125Z M213 123 L214 123 L213 124Z M239 123 L240 123 L239 124Z M274 123 L276 124 L276 125 L274 124Z M30 124 L31 125 L27 128 L30 125Z M143 125 L142 125 L143 126Z M229 124 L233 127 L232 128 L229 125Z M241 124 L242 124 L241 125Z M249 125 L248 125 L249 126Z M277 124 L278 124 L278 126 L277 125Z M189 126 L188 126 L189 127Z M243 125 L244 125 L243 126Z M120 126 L121 126 L120 127Z M201 126 L205 126 L205 127 L201 127Z M273 126 L275 127 L275 128 L273 127Z M123 127 L126 127 L126 128 L123 128Z M251 128 L250 128 L251 129Z M252 129 L251 129 L252 130Z M130 129 L131 129 L130 130Z M235 129 L236 129 L235 130Z M39 130 L44 134 L43 135 L39 131Z M213 130 L214 130 L213 131Z M239 130 L240 130 L239 131Z M267 130 L269 131 L269 132 L267 131Z M31 131 L32 132 L26 137 L31 132Z M33 131 L34 131 L33 132Z M241 131 L242 131 L241 132Z M277 131 L278 131 L277 132Z M23 132 L24 133 L21 135 L23 133Z M181 133 L180 133 L181 134Z M187 133 L186 133 L186 135 L187 134Z M190 133 L188 134 L188 135 L190 135 L190 134Z M214 132 L215 132 L214 133Z M226 133 L225 133 L226 134Z M243 132 L244 132 L243 133Z M35 133 L36 133 L35 134Z M140 134 L139 134 L140 135Z M180 134 L179 134 L180 135Z M215 134 L220 138 L219 139 L215 135Z M246 134 L247 134 L246 135Z M270 134 L271 134 L270 135Z M278 134 L279 134 L278 135Z M126 135 L127 135 L127 140 L128 140 L128 141 L126 140 L126 136Z M128 135 L129 135 L128 136Z M139 136 L138 136 L139 137Z M163 135 L165 136 L164 141 L163 141 L163 136Z M254 135 L255 135 L255 137 L254 136Z M32 136 L33 136 L32 137Z M279 136 L283 139 L282 140 L279 137Z M248 137 L249 137 L248 138Z M272 137 L274 138 L274 139 L272 138Z M30 138 L31 138 L30 139Z M34 138 L36 139 L36 140 L34 139Z M194 138 L195 138 L195 143 L194 143 L194 139Z M17 139 L18 139 L17 140Z M47 139 L51 142 L50 143 L47 140Z M221 139 L222 139 L221 140Z M249 139 L250 139 L249 140Z M255 139 L256 139 L255 140Z M266 139 L267 139 L266 140Z M23 140 L24 140 L23 141Z M41 140 L45 143 L44 144 L41 141Z M155 140 L158 142 L157 143 L155 141Z M223 140 L224 140 L223 141Z M269 140 L271 140 L271 142 L273 143 L273 145 L275 146 L275 148 L277 150 L278 150 L278 148 L282 150 L283 155 L285 157 L285 161 L282 162 L282 158 L280 157 L281 155 L279 155 L279 153 L277 153 L275 150 L273 150 L274 148 L272 148 L271 144 L269 145 L270 144 L269 141Z M31 141 L32 141 L32 145 L31 145 L31 142Z M225 141 L228 141 L228 142 L225 142Z M267 141 L268 141 L267 142Z M284 141 L291 147 L290 148 L284 142Z M21 142 L22 142 L21 143Z M129 142 L130 142 L129 143Z M162 142 L163 142 L162 143Z M232 142 L233 142 L232 143Z M131 143 L132 143 L131 144Z M164 143 L165 144 L162 146 L164 144Z M234 143 L236 144 L236 145 L234 144Z M250 143 L251 143 L251 146 L250 146 L250 144Z M278 143 L281 145 L280 146 L278 144Z M13 144 L14 145 L11 147 L13 145Z M25 144 L26 145 L23 147 L25 145Z M29 144 L30 145 L28 147 L30 147 L30 148 L27 147 L29 145Z M39 144 L45 149 L44 150 L39 145Z M133 144 L134 144 L133 145Z M136 144 L137 144 L136 145Z M141 144 L142 144 L141 145Z M158 144 L159 144 L158 145Z M138 145 L139 145 L138 146Z M143 145 L145 145 L145 146 L143 146Z M53 146 L55 147 L55 148 L53 147Z M134 146 L135 146 L134 147Z M146 146 L147 146 L146 147Z M160 146 L162 147 L160 149 L158 149 L158 147 L160 147Z M193 146 L194 146 L194 152 L191 156 L191 158 L192 157 L194 158 L194 159 L192 158 L193 161 L191 163 L189 163 L189 161 L188 161 L187 164 L185 165 L185 167 L183 167 L185 170 L182 168 L180 170 L179 174 L178 174 L178 171 L177 171 L175 177 L170 178 L171 180 L169 181 L169 178 L170 178 L169 172 L170 172 L170 170 L172 170 L172 174 L174 174 L174 171 L175 171 L176 167 L179 165 L179 163 L181 163 L180 167 L182 166 L182 164 L184 163 L184 161 L185 161 L187 155 L189 154 L190 150 L192 152 L193 147Z M200 146 L201 146 L200 147Z M282 146 L283 146 L282 147Z M149 147 L152 147 L152 148 L149 148Z M247 147 L248 147 L248 150 L245 153 L247 148Z M10 148 L11 148 L10 149Z M16 148 L17 148 L16 149Z M48 148 L49 148 L48 149Z M135 148 L136 148 L135 149Z M147 148 L152 149 L153 153 L154 153 L154 156 L152 156 L152 153 L148 152 L148 154 L151 157 L151 169 L149 170 L149 173 L148 173 L147 177 L143 181 L144 173 L145 173 L145 165 L144 165 L144 171 L143 171 L142 178 L141 178 L141 172 L142 172 L142 163 L141 163 L141 161 L142 161 L142 159 L138 160 L139 157 L141 159 L141 155 L140 155 L139 152 L141 152 L144 149 L147 149Z M195 149 L196 149 L196 152 L195 152 L195 150Z M235 149 L236 149 L235 150Z M249 149 L250 149 L249 150Z M291 149 L292 149 L291 150Z M20 150 L22 152 L21 153 L20 151Z M133 150 L136 152 L136 155 L135 155 L135 152 L133 151Z M143 151 L142 151 L143 152Z M186 150 L188 150 L187 153 L186 153 L186 151Z M16 151 L17 151 L16 152Z M144 152 L143 153 L144 153 L145 163 L146 163 L146 166 L147 166 L146 173 L147 173 L147 169 L148 169 L148 160 L147 160 L147 156 L146 156 L145 152Z M233 151 L234 151 L233 152Z M248 151 L249 151 L248 152Z M287 151 L288 151 L287 152Z M292 151 L293 151 L293 153 L292 152Z M10 152 L12 153 L12 154 L10 153Z M44 152 L45 153 L47 152 L46 153 L47 155 L45 154 L44 158 L42 158 L42 161 L40 161 L41 163 L39 162 L40 165 L37 165 L37 161 L39 160 L39 158 L43 154 L45 154 L44 153Z M48 152 L49 152 L48 153Z M266 153 L265 153 L266 154Z M17 153 L24 159 L23 160 L17 154Z M230 153 L231 153 L230 154Z M288 153 L289 153 L288 154Z M53 154 L54 155 L48 160 L53 155Z M200 154 L201 154 L201 156 L200 155Z M245 154 L246 154 L245 155Z M268 154 L269 154 L269 156 L267 156 L268 155Z M23 155 L27 158 L26 159 L23 156Z M138 155 L139 155 L138 156Z M194 155 L195 155 L195 157 L194 156Z M258 156 L257 156 L258 157Z M282 156 L281 156 L282 157Z M289 155 L290 155 L290 160 L289 160 L289 156Z M227 156 L228 156 L227 157Z M250 156 L251 156 L252 160 L255 163 L257 163 L258 165 L261 166 L261 169 L258 173 L252 172 L252 171 L250 171 L251 169 L248 170 L245 167 L243 167 L243 163 L245 162 L245 160 L247 160 L250 157Z M271 156 L272 156 L271 157Z M134 157 L135 157 L135 159 L134 158Z M137 157 L138 157 L137 158Z M191 158 L189 159 L189 161 L191 159Z M240 157 L241 157 L240 158Z M273 157 L274 157 L273 158Z M199 158 L200 158 L200 160 L199 159Z M226 158 L227 158 L226 159Z M249 159 L248 159 L249 165 L256 168 L257 172 L258 172 L258 168 L256 166 L252 165 L252 163 L250 162 L250 159Z M275 158 L276 158 L275 159Z M136 159 L137 159 L136 160Z M192 160 L191 160 L192 161Z M238 159 L239 159 L238 160Z M27 160 L29 161 L28 164 L30 163 L30 166 L33 166 L33 167 L29 167 L29 165 L28 165 L28 167 L26 167 L27 163 L25 163 L25 162 L27 161Z M28 161 L27 161 L28 162Z M191 161 L190 161 L191 162Z M247 161 L246 161 L247 162Z M292 160 L293 160 L293 162 L292 161Z M18 161 L21 163 L20 164 L18 162Z M132 161 L133 161 L132 162Z M135 161 L136 161 L135 162Z M198 161 L199 161 L198 162Z M279 162 L280 162 L279 163Z M288 162 L289 162 L288 163Z M131 163 L132 163 L131 164Z M197 163 L198 164 L195 166 L197 164Z M226 163 L227 163 L227 165 L226 164Z M236 163 L237 163 L237 167 L236 167 L236 164Z M283 163 L284 163 L284 165 L283 164Z M291 163 L292 163 L291 164Z M44 164 L45 164 L45 166 L44 165Z M134 164 L135 164 L134 165Z M156 164 L159 168 L159 172 L158 172 L156 180 L155 180 L155 182 L153 183 L152 186 L154 186 L154 185 L157 186 L157 184 L159 183 L159 180 L161 179 L161 176 L162 176 L162 182 L164 181 L164 179 L166 180 L166 181 L164 181 L165 182 L164 185 L158 191 L157 190 L159 189 L159 187 L156 190 L148 191 L143 197 L145 199 L145 197 L147 196 L147 198 L145 200 L144 199 L142 200 L142 197 L141 196 L139 197 L138 195 L136 195 L136 192 L135 192 L136 186 L138 184 L139 184 L139 186 L137 188 L137 192 L138 192 L138 194 L140 194 L140 191 L141 191 L142 187 L144 185 L146 186 L147 184 L149 184 L152 181 L152 179 L154 178 L154 176 L156 174 L156 167 L155 167 L155 165 L156 165Z M188 164 L189 165 L186 167 L188 165Z M280 164 L281 164 L280 165Z M21 165 L22 165 L21 166Z M222 165 L223 165 L222 166Z M271 166 L270 166 L271 167Z M286 165 L287 165 L286 166Z M290 165 L291 165 L290 166Z M39 166 L40 166 L39 167Z M130 166 L131 166 L130 167Z M166 166 L168 167 L168 168 L166 167Z M228 166 L230 167 L230 168 L228 167Z M20 167 L21 167 L21 169 L20 168Z M133 167 L134 167 L133 168Z M223 167 L224 167 L223 168Z M267 167 L268 167 L268 169 L267 168Z M281 167 L282 167 L282 171 L281 171 L281 168Z M24 168 L25 168 L24 169Z M129 168 L130 168 L130 171 L129 171 L129 169Z M193 168 L194 168 L193 169Z M237 168 L238 168 L237 169Z M288 168 L289 168 L288 169Z M15 169 L17 169 L17 170 L15 170Z M50 169 L51 169 L50 170Z M168 169 L169 169 L168 170Z M224 169 L230 174 L230 175 L227 175 L228 173 L224 170Z M13 170 L14 171 L11 173 L13 171Z M52 170 L55 172 L54 173 L52 171Z M166 170 L167 170 L167 172 L166 171Z M182 170 L183 170 L183 173 L180 176 L182 171Z M284 170 L285 170 L284 171Z M240 171 L241 171 L240 172Z M245 171 L246 171 L245 172Z M270 172 L269 172 L270 173Z M132 172 L135 175 L134 179 L133 179 L132 173Z M237 172 L239 172 L239 173 L237 173Z M264 172 L265 172 L264 173Z M282 172 L286 175 L285 176 L282 173Z M288 172 L290 173 L290 174 L288 173Z M189 173 L190 173 L189 174Z M240 173 L243 173 L243 174 L240 174Z M16 174 L17 175 L19 174 L20 179 L32 179 L32 177 L28 177 L28 176 L25 176 L25 175 L43 177 L43 176 L46 176 L47 174 L50 174 L51 177 L52 177 L52 180 L49 183 L46 182 L46 181 L21 181 L21 182 L16 183 L14 181 L14 179 L18 180 L18 176 L16 175Z M55 174 L56 174 L55 175Z M262 174 L263 174 L262 175Z M291 174 L293 174 L293 175 L291 175Z M21 175 L22 175 L21 176Z M156 176 L155 176 L156 177Z M166 175 L167 175 L167 178 L166 178 L166 176Z M222 175 L224 175 L224 176 L222 176Z M267 175 L268 176 L265 179 L265 185 L264 185 L264 179 L267 176Z M294 175 L295 175 L294 176Z M9 176 L10 176 L9 177Z M14 176 L15 176 L14 177Z M49 177 L48 177 L48 180 L50 180 L50 177Z M56 176 L57 176 L57 181 L56 181 L56 177Z M129 176 L130 176 L130 178 L129 177Z M186 176 L188 176 L188 177 L181 183 L181 185 L175 186 L175 184 L177 185 L178 182 L181 182 L181 180 L183 180 L186 177Z M217 176 L219 176 L219 177 L217 177Z M252 176 L253 176 L252 177Z M269 176 L270 177 L267 179 L269 177Z M287 176 L288 176 L287 177Z M296 176 L297 176 L296 177Z M211 177 L213 177 L213 178 L211 178Z M248 177 L249 177 L248 178Z M260 177 L261 177 L260 178Z M289 177 L291 177 L291 178 L289 178Z M298 177 L300 178 L300 179 L298 178Z M173 178 L174 178 L173 179Z M207 178 L209 178 L209 179 L207 179Z M245 178 L246 178 L245 179Z M293 178 L295 179 L295 180 L293 179Z M20 180 L19 180 L20 181Z M135 179 L136 179 L136 181 L135 180Z M200 179 L204 179 L204 180 L200 180Z M243 179 L244 179 L243 180Z M9 180 L10 180 L10 182 L9 181Z M130 180 L131 180 L130 183 L131 183 L132 188 L134 189 L134 191 L132 190 L131 185 L130 185 L127 188 L124 188 L123 190 L120 190 L119 192 L112 195 L98 209 L98 211 L94 214 L94 216 L91 218 L91 220 L89 221 L89 223 L87 224 L87 226 L85 227 L85 229 L83 230 L83 232 L79 236 L79 238 L76 242 L76 245 L75 245 L75 247 L72 251 L72 254 L71 254 L71 256 L70 256 L70 258 L67 262 L66 268 L65 268 L64 272 L62 271 L65 260 L66 260 L66 257 L67 257 L67 255 L69 253 L69 250 L71 248 L71 245 L72 245 L74 239 L76 238 L76 235 L78 234 L79 230 L81 229 L82 225 L84 224 L86 219 L91 214 L91 212 L97 207 L97 205 L105 197 L107 197 L109 194 L111 194 L116 189 L118 189 L118 188 L122 187 L123 185 L129 183 L130 181Z M196 180 L198 180 L198 181 L196 181Z M239 180 L242 180 L242 181 L239 181Z M253 180 L256 180 L256 181 L253 181Z M266 180 L267 180 L266 181Z M192 181 L194 181 L194 182 L192 182Z M234 181 L235 181 L234 182Z M250 181 L251 181 L250 182Z M301 181 L302 181 L301 182Z M134 182 L135 182 L134 183Z M187 182 L188 182 L187 183Z M229 182 L231 182 L231 183 L229 183Z M247 182 L248 182 L247 183Z M297 182 L298 182 L297 183Z M10 183 L14 186 L13 187 L10 184Z M183 183 L184 183 L183 184Z M222 183 L225 183 L225 184 L222 184Z M260 183 L261 183 L260 184Z M54 184 L55 184 L54 185Z M133 184 L134 184 L133 185Z M217 184 L220 184 L220 185 L217 185Z M244 184 L245 184 L244 185Z M156 186 L155 186 L156 187Z M173 185 L174 185 L173 186Z M211 185 L214 185 L214 186 L211 186Z M242 185 L243 185 L242 186Z M266 185 L267 185 L266 186Z M282 185 L283 185 L282 186Z M284 185 L286 185 L285 187 L288 188 L287 189 L284 186Z M148 187 L146 188 L146 190 L148 188Z M206 186 L208 186 L208 187 L206 187Z M298 186 L299 186 L298 187Z M15 187 L17 187 L17 188 L15 188Z M49 187 L51 187 L51 188 L49 188Z M201 187 L204 187 L204 188 L201 188Z M224 187 L227 187 L227 188 L224 188Z M232 187 L233 188 L230 190 L232 188Z M264 187 L266 187 L266 188 L264 188Z M268 187 L269 187 L268 188Z M300 187 L301 187 L300 188Z M24 188 L39 188 L40 189 L39 191 L41 191 L41 189 L44 189 L44 191 L45 191 L45 192 L33 192 L34 191 L33 189 L24 189 L24 190 L23 190 L24 189Z M36 189 L35 189 L36 190Z M196 188 L198 188 L198 189 L196 189Z M220 188 L221 188 L220 189Z M17 189 L18 189 L17 190Z M48 189 L49 189 L48 190Z M146 190 L145 190 L146 191Z M191 189 L193 189 L193 190 L191 190Z M213 189 L217 189 L217 190 L213 190Z M289 189 L290 189 L289 190Z M299 189 L300 189 L299 190Z M21 190 L22 190 L22 192 L21 191Z M186 190 L189 190 L189 191 L186 191Z M208 190 L210 190 L210 191 L208 191Z M236 190 L237 190 L236 191Z M302 190 L303 190 L302 191Z M16 191 L17 191 L17 193 L16 192Z M49 191 L50 191 L50 193 L49 192Z M131 191 L134 193 L133 194 L134 196 L133 196 L131 194 L131 192Z M155 191 L156 191 L155 192Z M181 191 L183 191 L183 192 L181 192Z M203 191 L205 191 L205 192 L203 192Z M292 191 L293 191 L292 192Z M304 191 L305 191 L304 192Z M177 192 L179 192 L179 193 L177 193Z M197 192 L200 192 L200 193 L197 193Z M234 192 L235 192 L234 193Z M172 193 L174 193 L174 194 L172 194Z M192 193 L194 193 L194 194 L192 194Z M227 193 L228 193 L227 194Z M308 193 L309 193 L308 194Z M17 194 L19 195 L19 196 L17 195Z M48 194 L49 194 L48 195Z M169 194 L170 194 L169 195Z M187 194 L189 194 L189 195 L187 195Z M233 194 L234 194 L233 195Z M310 194 L314 197 L313 198 L310 195Z M28 195 L34 196 L34 268 L29 268 L29 267 L32 267 L32 196 L28 196 L28 267 L25 267 L25 196 L28 196Z M165 195 L166 195 L165 196Z M181 195 L184 195 L184 196 L181 196Z M39 196 L41 196 L41 268 L39 268 L39 197Z M161 196 L162 196 L161 197Z M178 196 L179 196 L178 197Z M136 197 L137 197 L136 198Z M156 197 L159 197 L159 198 L156 198Z M171 197 L175 197 L175 198 L171 198Z M224 197 L225 197 L224 198Z M231 197 L232 197 L231 198Z M303 197 L306 197 L306 198 L303 198Z M122 198 L123 198 L122 199Z M124 198 L125 198 L125 203 L124 203 L124 199Z M167 198 L169 198 L169 199 L167 199Z M301 198 L302 198 L301 199Z M307 198 L311 201 L310 202 L307 199Z M120 199 L121 199 L120 200Z M137 199 L140 200 L140 203 L136 207 L134 206 L134 208 L129 213 L127 213 L119 221 L119 223 L118 223 L119 225 L117 226 L126 236 L116 226 L108 233 L108 235 L103 239 L103 241 L99 243 L100 245 L97 246 L97 249 L95 249 L95 252 L92 253 L93 254 L92 257 L90 258 L89 262 L87 263 L84 271 L82 271 L83 273 L82 273 L82 275 L79 279 L79 284 L76 288 L76 292 L74 294 L74 297 L73 297 L72 301 L70 299 L68 299 L71 296 L71 287 L72 287 L72 284 L73 284 L74 279 L76 277 L76 274 L77 274 L79 268 L81 267 L84 259 L86 258 L89 251 L91 250 L92 246 L94 245 L94 243 L97 241 L97 239 L100 237 L100 235 L103 233 L103 231 L129 205 L131 205 L135 200 L137 200Z M163 199 L165 199 L165 200 L163 200Z M223 199 L224 199 L223 200Z M299 199 L300 199 L299 200Z M314 199 L315 199 L314 200Z M161 200 L165 203 L164 204 L161 201Z M297 200 L298 200 L297 201Z M141 201 L142 201 L141 202Z M228 201 L229 201 L228 202Z M117 202 L118 202 L117 203Z M294 202 L295 202 L294 203Z M304 202 L306 202 L306 203 L304 203Z M227 203 L228 203 L227 204Z M292 203 L293 203 L292 204Z M302 203 L303 203 L302 204Z M311 203 L313 204 L313 205 L311 204Z M123 204 L124 204 L123 205Z M220 204 L221 204 L220 205Z M307 204 L310 206 L309 207 L307 205Z M161 205 L162 205 L161 206Z M166 205 L167 205 L166 206Z M226 205 L227 205 L226 206Z M289 205 L290 205 L289 206Z M299 205 L300 205 L299 206Z M297 206 L298 206 L297 207Z M313 206 L314 206 L313 207Z M116 207 L117 207 L116 208Z M120 207 L121 207 L120 208Z M153 207 L165 218 L164 219 L153 208Z M163 207 L169 212 L168 213 L163 208Z M168 207 L170 208 L170 209 L168 208Z M219 207 L220 207 L219 208Z M225 207 L226 207 L225 208Z M286 207 L287 207 L286 208Z M295 207 L296 207 L295 208Z M142 209 L144 209 L144 210 L142 210 L142 211 L141 211 L142 210Z M218 209 L219 209 L218 210Z M224 209 L225 209 L224 210Z M283 209 L284 209 L283 210Z M292 209 L293 209 L292 210Z M311 209 L312 209 L311 210Z M139 210 L140 210 L139 211Z M146 210 L147 210 L146 211 L147 213 L145 212 L146 211Z M234 210 L243 210 L243 211 L234 211Z M263 210 L271 210 L271 211 L263 211Z M173 211 L182 220 L185 220 L185 221 L182 221 L173 212Z M217 211 L218 211 L218 213 L217 212Z M224 211 L226 211 L226 212 L224 212Z M277 211 L279 211 L279 212 L277 212Z M280 211 L281 211 L280 212Z M289 211 L290 211 L289 212Z M312 211 L313 211 L312 212Z M104 212 L105 212 L104 213Z M106 212 L107 212 L106 213Z M154 212 L155 212 L154 213Z M138 213 L139 213 L138 214Z M213 213 L216 213 L216 214 L213 214Z M313 213 L314 213 L313 214Z M143 214 L144 214 L143 217 L142 217 L142 215 L143 215Z M156 214 L158 215 L158 216 L156 215Z M170 214 L171 214 L170 215Z M209 214 L210 214 L209 215Z M285 214 L286 214 L285 215Z M133 215 L134 215 L133 216Z M138 215 L140 215 L140 217 L138 216Z M149 215 L150 215 L150 217 L152 215 L152 217 L146 223 L145 222 L143 223 L147 218 L148 219 L150 218 L149 216Z M203 215 L206 215 L206 216 L203 216Z M238 215 L245 215 L245 216 L238 216Z M259 215 L265 215 L265 216 L259 216Z M172 216 L174 217 L174 218 L172 217Z M199 216 L200 216 L199 217Z M230 216 L232 216 L232 217 L230 217Z M270 216 L273 216 L273 217 L270 217Z M282 216 L283 216 L282 217Z M314 216 L315 216 L315 218 L314 217Z M100 217 L101 217 L100 218Z M107 217 L108 217 L108 219 L107 218Z M194 217 L196 217 L196 218 L194 218Z M220 217 L223 217 L223 218 L220 218Z M148 219 L147 219 L148 220Z M190 218 L192 218 L192 219 L190 219Z M215 218 L217 218 L217 219 L215 219Z M129 219 L130 219 L129 220Z M138 219 L140 220 L140 221 L138 220Z M147 220 L146 220 L147 221Z M161 219 L183 240 L182 241 L161 220Z M175 219 L176 219 L175 220Z M187 219 L188 219 L187 220Z M208 219 L212 219 L212 220 L208 220Z M131 220 L136 224 L135 225 L135 224 L131 223 L132 222 L131 221Z M146 221 L145 221 L146 222Z M166 220 L167 220 L166 221Z M204 220 L206 220 L206 221 L204 221Z M269 220 L270 221 L267 223 L269 221Z M277 220 L278 220 L277 221Z M200 221 L202 221 L202 222 L200 222Z M103 222 L104 222 L103 223Z M156 222 L157 223 L159 222 L166 229 L160 235 L163 232 L162 230 L164 231 L165 229 L164 228 L162 229 L161 228 L162 226 L161 225 L159 226 L156 223Z M159 223 L158 223 L159 224Z M168 222 L170 223 L170 224 L168 223Z M195 222 L197 222 L197 223 L195 223Z M118 224 L117 224 L118 225Z M127 223 L130 224 L130 226 L127 224Z M160 224 L159 224 L160 225Z M191 223 L192 223 L191 224Z M117 225 L116 225 L117 226Z M188 224 L189 224 L188 225Z M272 224 L273 225 L270 227 L272 225Z M143 225 L144 225 L143 226Z M171 225 L177 230 L176 231 L171 226Z M131 226 L132 226 L132 228 L131 227Z M163 227 L162 227 L163 228Z M150 227 L151 227 L150 228Z M261 227 L262 228 L256 233 L261 228Z M92 228 L95 229 L95 235 L94 235 L94 229 L92 229 L88 233 L92 229Z M157 228 L158 228 L157 229Z M140 229 L147 235 L147 237 L146 237 L143 234 L143 232 L140 230Z M266 229 L267 230 L261 235 L266 230Z M147 230 L148 231 L150 230 L152 232 L152 233 L151 232 L149 233 L147 231Z M150 231 L149 231 L150 232Z M155 230 L158 232 L157 233 L155 231Z M116 232 L118 232 L118 233 L116 233 L116 234 L115 234 L116 233Z M119 232 L120 232 L119 233Z M137 232 L138 232 L137 233Z M178 232 L195 248 L194 249 L178 233Z M141 233 L142 233 L141 234Z M120 234 L122 235 L122 236 L120 235Z M169 234 L170 234 L169 235 L170 237 L168 238 L169 237 L168 235 L169 235Z M140 235 L141 235 L140 236Z M157 235 L158 235 L158 237 L157 236Z M171 235 L172 235 L171 236Z M93 236 L94 236 L93 237Z M111 236 L112 236 L111 237Z M148 237 L150 238 L150 239 L148 238Z M257 237 L258 237 L257 238Z M134 238 L155 258 L154 259 L134 239Z M146 238 L147 238 L146 239Z M155 238 L157 239 L157 240 L155 239Z M249 238 L250 239 L226 263 L224 263 L219 258 L220 257 L224 262 L226 262 L249 239Z M129 239 L138 247 L137 248 L129 240Z M87 240 L90 240 L90 241 L87 241Z M111 240 L114 242 L113 243 L111 241Z M121 240 L122 240 L121 241Z M143 240 L145 242 L147 242 L147 243 L145 243 L143 241Z M158 240 L160 242 L162 242 L161 244 L164 246 L163 247 L158 241Z M174 240 L175 241 L177 240 L176 242 L177 243 L179 242 L181 244 L175 250 L176 249 L175 247 L177 246 L177 243 L174 241Z M254 240 L255 240 L254 241Z M313 240 L314 240 L313 241Z M164 241 L165 241 L164 242Z M170 241 L172 242 L172 244 L171 244 L171 242 L168 244 L170 242Z M311 241 L312 241 L311 242Z M179 243 L178 243 L178 246 L180 245 L179 244Z M184 242 L185 242 L184 243Z M252 242 L253 243 L247 248 L252 243Z M117 243 L118 243 L117 244Z M126 243 L127 243 L126 244Z M128 243 L129 243 L128 244Z M154 243 L158 246 L157 247 L155 244 L153 245 L154 244Z M308 243 L309 243 L308 244Z M124 244 L125 245 L122 247 L124 245Z M130 244 L133 246 L132 247 L130 245Z M200 244 L201 244 L200 245Z M105 245 L106 245 L105 246Z M178 246 L177 246 L178 247Z M151 246 L152 246 L151 247Z M177 247 L176 247 L177 248Z M202 246 L215 258 L214 259 L202 247Z M304 246 L305 246 L304 247Z M313 246 L314 246 L313 247Z M166 247 L167 247 L166 249 L169 250 L173 254 L173 255 L171 255 L169 253 L169 251 L167 251 L165 249 L166 248Z M171 247 L172 247 L171 248Z M311 247 L312 247 L311 248Z M133 248 L134 248 L134 250 L133 249Z M184 248 L194 257 L193 258 L188 252 L186 253 L187 251 L184 249Z M301 248 L302 249 L299 251 L301 249Z M82 249 L83 249 L82 250Z M121 249 L122 249 L121 250Z M139 249 L140 249 L139 250Z M152 249 L156 252 L155 253 L152 250Z M212 250 L213 250 L212 251Z M307 250 L308 250 L307 251Z M78 251 L79 251 L78 252Z M122 251 L126 254 L125 255 L122 252Z M132 251 L133 252 L129 255 L132 252Z M161 251 L163 252 L163 253 L161 252 L160 254 L159 253 L161 252Z M180 251 L182 253 L180 252 L179 253 L180 255 L176 258 L177 257 L176 255 L180 252Z M142 252 L148 257 L147 258 L142 253Z M214 252 L218 255 L217 256 L214 253Z M296 252 L297 252 L296 253Z M304 252 L305 253 L302 255 L304 253Z M77 253 L78 253 L78 257 L77 257 L77 254Z M82 253 L83 253 L82 254Z M179 254 L178 254 L179 255Z M157 254 L158 254 L157 255Z M162 254 L163 254 L162 255Z M178 255 L177 255 L178 256Z M187 254 L188 254 L187 255Z M81 255 L82 255 L81 256Z M137 255 L138 255 L137 256Z M140 255 L141 255 L140 256Z M184 255 L185 255 L184 256Z M292 255 L293 256 L289 259 L292 256Z M135 256 L136 256 L135 257Z M142 256 L144 257 L144 258 L142 257Z M159 256 L160 256 L159 257Z M189 256 L192 258 L191 259 L189 257Z M79 257 L80 257 L79 258Z M174 257 L175 257 L174 258Z M298 257 L299 257 L298 258Z M182 258 L183 258 L182 259Z M199 258 L210 268 L209 269 L199 259Z M133 259 L134 259 L133 260Z M149 259 L150 259 L149 260Z M177 259 L184 265 L183 266 L177 260Z M105 260 L106 260 L105 261Z M117 260 L121 261 L121 275 L120 275 L120 261 L117 261Z M145 260 L146 260 L145 261Z M156 260 L160 263 L159 264 L156 261Z M167 260 L168 260 L167 261Z M286 260 L287 261 L284 263 L286 261Z M294 260 L295 261 L292 263 L294 261Z M165 261 L166 261 L167 264 L169 263 L168 265 L171 267 L170 268 L165 262Z M185 261 L186 261 L185 262Z M206 261 L216 270 L215 271 L206 262Z M133 262 L135 263 L135 264 L133 263Z M187 262 L188 262 L187 263 L188 265 L186 265 L186 267 L185 267 L185 265 L187 263Z M198 262 L200 263 L200 265 L198 263Z M72 264 L75 265 L75 269 L74 269 L74 265 L72 265Z M143 264 L144 264 L143 265Z M173 264 L175 265 L173 268 L172 268 L173 265Z M136 265 L138 267 L140 267 L140 268 L138 268 L136 266Z M161 265 L180 283 L179 284 L161 266Z M197 265 L198 266 L193 270 L197 266Z M70 266 L71 266 L70 267Z M150 266 L151 266 L150 267Z M221 266 L222 266 L221 267Z M287 266 L288 266 L287 267Z M16 267 L21 267 L21 268 L16 268Z M87 267 L88 267 L87 268Z M152 267 L153 267 L152 268Z M12 268 L13 268 L12 269Z M51 268 L53 268 L53 269 L51 269Z M58 268 L59 268 L58 269Z M147 268 L148 268 L147 269Z M154 268 L157 270 L156 271 L154 269Z M185 268 L186 268 L185 269Z M202 268 L203 268 L202 269Z M277 268 L278 269 L274 272 L277 269Z M10 269 L11 269 L10 270Z M45 269 L46 269 L45 270Z M47 269 L49 269 L49 270 L47 270Z M60 269 L61 269 L60 270Z M68 269 L69 269 L69 274 L68 274 L68 270Z M198 269 L201 269 L203 272 L205 272 L205 273 L201 274 L201 276 L198 278 L199 275 L202 273 L201 270 L198 270Z M204 269 L209 273 L208 274 L204 270Z M225 269 L226 270 L214 281 L225 270Z M8 270 L9 271 L6 273 L8 271Z M15 270 L34 270 L34 271 L15 271Z M55 270 L57 270 L57 271 L55 271Z M73 270 L74 270 L73 271Z M85 270 L88 272 L87 273 L85 271Z M90 270 L99 278 L98 279 L90 271Z M178 270 L180 270 L180 271 L178 271Z M41 271 L42 271 L41 272Z M51 271 L52 271 L51 272Z M58 271 L59 271 L58 272Z M187 271 L190 271 L189 273 L191 273 L193 275 L193 277 L197 279 L197 281 L196 281 L196 279 L194 279 L187 272Z M196 271 L198 272 L197 274 L195 274 L195 272 L196 272Z M197 272 L196 272 L197 273Z M10 272 L11 272 L10 273Z M43 272 L44 272 L44 274 L46 273 L49 276 L49 278 L51 280 L50 285 L51 285 L52 290 L50 289 L50 287 L47 288 L48 286 L44 287 L44 285 L43 286 L41 286 L41 285 L19 285 L18 286 L18 284 L20 284 L20 283 L29 283 L29 282 L37 283 L37 282 L41 282 L41 274 L43 273Z M60 272 L62 273 L62 274 L60 273Z M131 272 L132 272 L131 273Z M181 272 L182 272 L181 273Z M212 272 L214 273 L214 274 L212 273Z M280 272 L281 273 L276 277 L280 273Z M64 273 L65 273 L64 274Z M70 273 L71 273 L70 274Z M144 273 L145 273 L144 274Z M5 274 L6 274 L5 275Z M50 274 L52 275 L52 276 L50 275Z M133 274 L135 275 L134 277 L132 277 L132 276 L134 276 L133 275Z M156 274 L157 274 L156 275Z M182 274 L183 274 L182 275Z M8 275 L9 275 L8 276Z M62 275 L63 275 L62 276Z M65 275 L66 275 L65 276Z M178 275 L180 276 L180 277 L178 276Z M204 276 L205 276 L203 278 L204 280 L203 279 L201 280 L204 277Z M63 277 L64 277 L64 279 L63 278Z M66 277 L67 277 L67 280 L66 280 L66 278Z M167 277 L168 277 L167 278Z M206 277 L207 277 L206 278Z M211 277 L212 278 L204 285 L211 278Z M267 277 L268 278 L264 281 L267 278Z M4 278 L5 278 L5 282 L4 282 L4 279Z M7 278 L8 278 L8 282 L7 282 L7 279Z M52 278 L53 278 L52 279Z M81 278 L83 278 L85 280 L84 281 L83 279 L81 279Z M149 278 L150 278 L149 279Z M152 278 L153 278 L152 279Z M161 278 L164 278 L164 279 L161 279Z M186 278 L187 278 L186 279Z M165 279 L168 281 L167 282 L165 280Z M169 279 L170 279 L169 280Z M188 279 L190 280 L189 285 L188 285 L188 283 L186 284 L184 282 L184 280 L185 280 L185 282 L187 283 L187 281 L189 282 L189 280 L188 280Z M80 280 L85 284 L84 285 L80 281Z M96 280 L103 286 L102 287 L96 281Z M139 280 L140 280 L139 281Z M158 280 L159 280 L158 281Z M53 282 L54 282 L53 283Z M67 282 L68 282 L68 284 L67 283Z M86 282 L87 282 L86 283Z M141 282 L152 292 L151 293 L141 283Z M198 282 L199 282 L198 283Z M262 282 L263 282 L262 283Z M269 282 L270 283 L262 290 L269 283Z M64 283 L65 283 L64 284Z M168 283 L169 283 L169 286 L164 290 L168 286 L168 284Z M156 284 L157 284 L156 285Z M62 285 L63 286 L65 285 L65 287 L66 287 L65 288 L65 287 L62 286 L63 293 L64 293 L65 296 L64 296 L64 298 L62 298 L62 296 L59 297 L57 295 L59 293 L63 296 L63 294 L61 293 L61 286 L62 286Z M106 285 L115 293 L114 294 L106 286Z M181 285 L182 285 L181 286Z M259 285 L260 285 L259 286Z M4 286 L5 286 L4 287Z M157 286 L158 286 L157 287Z M193 286 L194 286 L194 288 L197 286 L193 291 L191 290 L191 289 L192 290 L194 289 L193 287Z M7 287 L8 287 L7 288Z M21 287 L23 287 L23 288 L21 288Z M54 287 L55 287 L55 289 L54 288Z M88 287 L90 288 L90 289 L88 288Z M177 287 L188 297 L187 298 L177 288Z M183 287 L184 287 L183 288Z M208 287 L209 288 L201 295 L208 288Z M3 288 L4 288 L3 289Z M34 288 L41 288 L41 289 L34 289Z M68 288 L69 288 L68 289Z M93 288 L94 288 L93 289Z M173 288 L175 289 L175 290 L173 289Z M6 289 L7 289 L6 290Z M43 289 L47 290 L47 292 L49 291 L50 293 L52 293 L52 295 L54 295 L54 297 L55 297 L55 303 L54 303 L55 306 L53 308 L48 306 L48 305 L44 305 L44 303 L43 304 L40 304 L40 303 L16 304 L18 302 L23 302 L23 301 L41 301 L42 296 L43 296 L43 293 L42 293 L42 290 L43 290Z M66 289 L67 289 L66 290Z M79 289 L82 289 L82 290 L79 290Z M160 289 L161 289 L160 290Z M2 290 L3 290 L2 291Z M91 290 L98 296 L97 297 L91 291Z M95 290 L97 291 L97 292 L95 291Z M162 290 L163 290 L162 291Z M199 290 L200 290 L199 291Z M69 291 L70 291 L70 293 L69 292Z M77 291 L82 292 L82 293 L77 292Z M174 291 L175 292 L169 297 L174 292Z M1 292 L2 292 L1 293Z M56 292 L57 292 L56 293Z M67 292 L68 292 L68 294 L67 293Z M109 292 L110 292 L109 293Z M167 292 L168 292 L167 293Z M176 292 L177 293 L171 298 L176 293Z M197 292 L198 293 L193 297 L197 293Z M4 293 L5 293 L5 295 L4 294Z M59 294 L58 294 L59 295Z M98 293 L107 301 L106 302 L98 294Z M178 293 L180 294 L180 295 L178 294Z M250 293 L251 293 L250 294Z M60 295 L59 295 L60 296Z M116 295 L117 295 L116 296Z M152 295 L153 295 L153 298 L152 298 L152 296Z M167 295 L168 295 L167 296Z M248 295 L249 296 L234 310 L248 296Z M4 296 L5 296 L5 299 L4 299 L4 297Z M80 296 L81 296 L80 297Z M181 296 L183 297 L183 300 L182 300 L182 297 L181 297Z M114 297 L115 297 L114 298Z M118 297 L133 311 L132 312 L118 298Z M74 298 L76 299 L76 300 L74 299Z M79 298 L80 298 L79 299Z M1 299 L2 299 L1 300Z M83 299 L84 299 L83 300Z M85 299 L94 299 L94 300 L85 300Z M5 300 L6 300 L5 301Z M78 300 L79 300 L80 304 L83 306 L82 307 L78 303 L78 301Z M189 300 L190 300 L189 301Z M196 300 L197 301 L191 306 L196 301Z M2 301 L3 301 L2 302Z M118 301 L120 302 L120 303 L118 302Z M181 301 L182 302 L179 304 L181 302Z M172 302 L176 305 L175 306 L172 303Z M6 303 L7 303 L7 306 L6 306 L6 304Z M95 303 L96 303 L96 312 L108 312 L109 313 L109 327 L108 327 L108 313 L96 313 L95 312 L95 304Z M161 303 L162 303 L161 304Z M247 303 L248 303 L247 304Z M105 304 L111 309 L110 310 L105 305Z M177 304 L178 304 L177 305Z M186 304 L187 305 L181 310 L186 305Z M17 305 L21 305 L21 306 L17 306Z M163 305 L171 312 L170 313 L163 306Z M38 306 L41 306 L41 307 L38 307Z M2 307 L3 307 L2 308Z M5 307 L6 307 L5 308Z M42 307 L47 308 L47 310 L48 309 L51 310 L51 312 L52 311 L54 312 L54 321 L52 321 L52 323 L44 322 L44 321 L18 321 L18 323 L17 323 L17 320 L20 320 L20 319 L40 318 L41 315 L42 315 L42 311 L41 311 L41 308 L42 308Z M113 308 L114 308 L113 309Z M242 308 L243 308 L242 309Z M1 309 L2 309 L2 311 L1 310Z M152 309 L165 309 L165 310 L152 310Z M188 309 L189 310 L182 316 L188 310Z M4 310 L5 310 L5 314 L4 314 L4 311Z M86 310 L87 310 L86 311Z M53 312 L52 312 L53 313Z M82 311 L87 315 L86 316 L82 312Z M112 311 L125 323 L124 324 L112 312Z M179 311 L180 311 L180 313 L177 315 L179 312Z M92 313 L93 313 L93 315 L92 314Z M1 314 L2 314 L2 316 L1 315Z M130 314 L135 318 L134 319 L130 315Z M106 315 L107 315 L107 318 L106 318 L106 316Z M120 315 L129 323 L128 324 L120 316Z M5 316 L6 316 L5 317Z M91 316 L94 318 L93 319 L91 317Z M2 317 L3 317 L2 318Z M49 318 L48 318 L49 319Z M6 318 L7 318 L6 319Z M48 319 L47 319 L48 320Z M3 319 L4 319 L4 321 L3 320Z M89 319 L92 321 L91 322 L89 320Z M136 320 L140 323 L139 324 L136 321Z M178 320 L179 321 L176 323 L178 321Z M224 320 L225 320 L224 321Z M7 321 L8 321 L7 322Z M141 321 L146 325 L145 326 L141 322Z M4 322 L5 322 L5 325 L4 325 L4 323Z M96 322 L99 324 L98 325 L96 323Z M222 322 L223 323 L216 329 L222 323Z M229 322 L230 323 L221 331 L229 323Z M7 323 L8 323 L8 325 L7 324Z M26 323 L35 323 L35 324 L26 324Z M41 324 L46 325 L46 326 L50 326 L50 328 L52 328 L51 335 L48 336 L48 337 L45 337 L45 338 L44 337 L42 337 L42 338 L37 338 L37 337 L34 337 L34 338 L17 338 L18 340 L21 340 L21 344 L20 344 L20 343 L18 343 L18 341 L15 341 L8 334 L9 333 L10 335 L14 335 L14 336 L17 336 L17 335 L20 335 L20 336 L36 335 L36 334 L39 334 L40 325 L41 325Z M94 325 L95 325 L94 326Z M126 325 L127 325 L126 326Z M167 325 L168 325 L167 326Z M48 327 L47 327 L47 329 L48 328Z M100 327 L102 328 L102 329 L100 328Z M119 327 L122 327 L122 328 L119 328Z M142 327 L149 333 L148 334 L142 328Z M166 327 L167 328 L162 332 L166 328Z M172 327 L173 327 L172 328Z M3 328 L4 328 L4 331 L3 331 L3 329Z M97 329 L99 330 L99 331 L97 330Z M106 329 L110 329 L110 330 L106 330Z M119 330 L120 330 L119 331Z M134 330 L135 330 L134 331Z M169 330 L170 330 L169 331Z M48 332 L47 332 L48 333Z M103 331 L105 332 L105 333 L103 332Z M132 332 L137 336 L136 337 L132 333Z M136 332 L141 336 L140 337 L136 333Z M151 332 L156 336 L155 337 L151 333Z M4 333 L5 333 L4 334Z M100 333 L102 334 L102 335 L100 334Z M46 335 L45 335 L46 336Z M166 334 L167 335 L163 338 L166 335Z M106 335 L108 336 L108 337 L106 336Z M159 335 L160 335 L159 336Z M210 335 L211 336 L204 342 L210 336Z M6 336 L9 338 L8 339 L6 337Z M102 336 L104 337 L104 338 L102 337Z M216 336 L217 337 L211 342 L216 337Z M108 338 L110 339 L110 340 L108 339Z M122 338 L123 338 L123 341 L122 341 L122 339Z M152 338 L153 338 L152 339Z M104 339 L106 340 L106 341 L104 340Z M143 340 L147 343 L146 344 L143 341Z M161 340 L162 341 L158 344 L161 341Z M40 341 L41 341 L41 380 L39 380 L39 377 L40 377 L40 371 L39 371 L39 363 L40 363 L39 362 L39 350 L40 350 L40 347 L39 347 L39 342 L40 342Z M119 341 L120 341 L120 345 L119 345 L119 342Z M140 341 L143 343 L142 344 L140 342Z M111 342 L112 342 L111 343Z M134 342 L135 342 L135 358 L139 359 L143 355 L139 360 L134 358 L134 343Z M107 343 L108 343 L107 344Z M152 343 L153 343 L152 344Z M15 344 L17 345 L17 346 L15 345Z M121 344 L127 344 L127 345 L121 345Z M113 345 L114 345 L113 346Z M201 345 L202 345 L201 346Z M18 346 L19 346 L18 347Z M26 346 L28 346 L28 380 L25 380 L26 347Z M32 346 L34 346 L34 380 L31 380 L32 379 L32 347Z M109 346 L110 346 L109 347Z M146 346 L147 346 L146 347Z M199 347 L200 348 L197 350 L199 348Z M206 347 L207 348 L201 353 L206 348Z M115 348 L116 348 L115 349Z M154 348 L155 349 L152 351 L154 349Z M111 349 L112 349 L111 350Z M147 349 L148 350 L144 353 L147 350Z M117 351 L118 351 L117 352Z M113 352 L114 352 L113 353Z M118 353 L120 354 L120 355 L118 354Z M131 353 L132 353 L132 361 L131 361 L131 354Z M149 354 L150 355 L146 358 L149 355Z M115 355 L116 355 L115 356Z M192 355 L193 356 L189 359 L192 356Z M198 356 L199 357 L196 359 L198 357Z M121 357 L122 357 L121 358Z M117 358 L118 358 L117 359Z M123 360 L124 360 L123 361Z M133 360 L135 360 L135 361 L133 361Z M144 360 L145 361 L141 364 L144 361Z M194 360 L195 360 L194 361Z M116 361 L117 361 L116 362Z M137 361 L138 362 L134 365 L137 362Z M124 362 L125 362 L124 363Z M186 362 L187 363 L182 367 L186 363Z M45 364 L46 364 L45 365Z M114 364 L115 364 L114 365Z M119 364 L120 364 L119 365Z M191 364 L192 365 L187 369 L191 365Z M121 365 L122 365 L121 366Z M126 365 L127 365 L126 366Z M113 366 L114 366 L113 367Z M118 366 L119 366 L118 367Z M46 367 L47 367 L47 370 L48 370 L48 372 L51 376 L51 379 L52 379 L52 381 L55 385 L54 387 L56 387 L55 389 L57 389 L57 391 L52 390 L53 388 L51 388 L51 381 L50 380 L48 381 L49 378 L47 377 L47 374 L46 374 L46 368Z M122 367 L124 368 L124 369 L122 368Z M127 367 L128 367 L128 369 L127 368Z M138 367 L139 367 L138 368Z M112 368 L113 368 L112 369Z M117 368 L118 368 L117 369Z M131 368 L132 369 L129 371 L131 369Z M116 370 L117 370 L116 371Z M124 370 L126 371 L126 372 L124 371Z M179 370 L180 371 L176 374 L179 371Z M110 371 L111 371 L110 372Z M119 371 L120 371 L120 375 L119 375 L119 372Z M134 372 L135 372 L134 373Z M184 372 L185 373 L181 376 L184 373Z M109 373 L110 373 L109 374Z M114 373 L115 373 L114 374Z M127 373 L128 374 L125 376 L127 374Z M113 375 L114 375 L113 376Z M115 375 L116 375 L116 377 L115 376Z M117 375 L118 375 L117 376Z M131 375 L132 375 L131 376Z M107 376 L108 376 L107 377Z M174 376 L175 377 L171 380 L174 377Z M112 377 L113 377 L112 378Z M118 377 L120 379 L120 381 L117 382 L116 378 L117 378 L117 381 L118 381 L118 378Z M51 379 L50 379 L51 380Z M123 378 L124 379 L121 381 L123 379Z M129 378 L130 379 L127 381 L129 379Z M178 379 L179 380 L176 382 L178 380Z M17 380 L18 380 L17 381Z M105 380 L106 380 L105 381Z M110 380 L111 380 L110 381Z M104 382 L105 382 L104 383Z M109 382 L110 382 L109 383Z M113 382 L114 382 L113 383Z M15 383 L16 383 L16 385 L15 384Z M21 383 L34 383 L34 384 L21 384Z M119 383 L120 384 L117 386 L119 384Z M125 383 L126 383 L125 384Z M168 383 L169 384 L166 386 L168 384Z M240 383 L241 383 L240 384Z M314 383 L315 383 L315 385 L314 384Z M37 384 L46 384 L47 385 L46 387 L34 387 L34 386 L37 385Z M103 384 L104 384 L103 385Z M108 384 L109 384 L108 385Z M111 384 L112 384 L111 385Z M20 385 L22 385 L21 387 L20 386Z M173 385 L174 386 L171 388 L173 386Z M246 385 L248 385 L248 386 L246 386Z M102 386 L103 386 L102 387Z M107 386 L108 386 L107 387Z M110 386 L112 386 L112 389 L110 387Z M251 386 L252 386 L251 387Z M313 386 L314 387 L311 389 L313 387Z M15 387 L18 390 L17 391 L15 388Z M116 387 L117 388 L114 391 L109 391 L109 390 L114 390 L116 388Z M254 387 L256 388 L256 391 L254 390 L255 389 L254 388Z M101 388 L102 388 L101 389Z M106 388 L107 388 L106 389Z M121 388 L122 388 L121 391 L120 391 L120 389 L121 389Z M243 388 L245 388 L245 389 L243 389Z M247 389 L250 390 L250 391 L247 390Z M309 389 L310 389 L309 390Z M49 390 L50 390 L49 391Z M68 390 L76 390 L76 391 L68 391Z M94 390 L100 390 L100 391 L94 391Z M122 390 L163 390 L163 391 L122 391Z M169 390 L170 390 L169 391Z M264 390 L284 390 L284 391 L264 391Z M306 390 L308 390 L308 391 L306 391Z" fill="#aeb6c0" fill-rule="evenodd"></path><path d="M169 0 L187 0 L187 1 L205 2 L204 6 L202 8 L201 14 L199 16 L199 20 L195 21 L195 20 L177 20 L169 1Z M147 1 L158 1 L159 20 L144 21 L144 22 L136 22 L135 23 L134 20 L129 15 L129 13 L127 12 L127 10 L123 6 L125 4 L132 4 L132 3 L138 3 L138 2 L147 2Z M215 3 L244 9 L244 12 L243 12 L237 26 L235 27 L235 26 L231 26 L231 25 L215 23 L215 10 L214 10 L215 9 L214 4 L215 4Z M255 12 L258 13 L258 14 L264 15 L266 17 L272 18 L272 19 L282 23 L279 26 L279 28 L276 30 L276 32 L273 34 L272 37 L268 37 L266 35 L254 32 L254 31 L252 31 L252 29 L253 29 L253 21 L254 21 L254 13 L255 13Z M251 181 L256 181 L257 185 L263 190 L273 189 L274 186 L269 185 L270 181 L272 181 L274 183 L277 183 L277 184 L280 184 L280 185 L284 186 L285 188 L291 190 L292 192 L294 191 L294 192 L296 192 L296 193 L303 196 L303 198 L301 198 L301 199 L297 200 L296 202 L292 203 L291 205 L289 205 L288 207 L286 207 L285 209 L283 209 L280 212 L279 211 L271 211 L271 210 L224 211 L227 204 L228 204 L228 202 L229 202 L229 200 L232 198 L234 193 L240 187 L245 185 L246 183 L251 182Z M227 187 L232 187 L232 188 L230 189 L230 191 L226 194 L226 196 L222 200 L222 203 L220 204 L220 207 L219 207 L217 213 L213 213 L213 214 L209 214 L209 215 L203 215 L203 216 L199 216 L199 217 L194 217 L194 218 L190 218 L190 219 L187 219 L187 220 L182 220 L174 211 L172 211 L164 203 L164 201 L170 201 L170 200 L176 200 L176 199 L181 199 L181 198 L186 198 L186 197 L191 197 L191 196 L197 196 L197 195 L202 195 L202 194 L207 194 L207 193 L225 191 L225 190 L229 189 L229 188 L227 188Z M221 188 L226 188 L226 189 L222 189 L222 190 L217 190 L217 189 L221 189Z M210 190 L215 190 L215 191 L210 191Z M205 191 L206 191 L205 192Z M200 192 L204 192 L204 193 L200 193Z M194 193 L196 193 L196 194 L194 194Z M189 194 L192 194 L192 195 L189 195Z M184 195 L187 195 L187 196 L184 196Z M179 196 L181 196 L181 197 L179 197Z M175 197 L176 197 L175 198Z M303 203 L307 203 L307 205 L311 208 L311 210 L314 214 L314 218 L315 218 L315 240 L311 241 L306 246 L301 248 L298 252 L296 252 L294 255 L292 255 L279 268 L277 268 L269 277 L267 277 L252 293 L250 293 L250 295 L248 295 L234 309 L234 311 L216 328 L216 330 L204 341 L204 343 L197 349 L197 351 L182 366 L182 368 L176 373 L176 375 L171 379 L171 381 L166 385 L166 387 L163 390 L122 390 L121 391 L122 387 L126 384 L126 382 L130 379 L130 377 L135 373 L135 371 L139 368 L139 366 L145 361 L145 359 L150 355 L150 353 L155 349 L155 347 L162 341 L162 339 L173 328 L173 326 L179 321 L179 319 L189 310 L189 308 L197 301 L197 299 L226 270 L226 268 L246 248 L248 248 L260 235 L262 235 L269 227 L271 227 L275 222 L277 222 L280 218 L282 218 L284 215 L289 213 L291 210 L293 210 L296 207 L303 204Z M116 227 L125 236 L127 236 L129 238 L129 240 L137 248 L139 248 L139 250 L141 250 L142 253 L147 258 L149 258 L149 260 L151 260 L167 276 L167 278 L169 278 L169 280 L171 280 L177 286 L177 288 L189 299 L189 302 L181 309 L181 311 L178 312 L174 308 L174 306 L142 275 L142 273 L140 273 L140 271 L137 270 L118 251 L118 249 L109 240 L107 240 L108 237 L110 236 L110 234 L116 228Z M117 232 L111 236 L111 241 L115 244 L118 244 L119 242 L122 241 L122 235 L120 234 L120 232 L119 233 L118 232Z M127 243 L124 244 L122 246 L122 249 L121 249 L122 252 L125 255 L130 255 L134 250 L133 246 L128 243Z M138 255 L135 256 L134 259 L133 259 L133 263 L138 268 L140 268 L142 265 L144 265 L144 263 L146 261 L143 256 L139 255Z M92 262 L105 262 L105 273 L106 273 L106 275 L104 275 L92 263Z M151 266 L149 268 L147 268 L145 273 L144 273 L149 279 L153 279 L157 275 L157 270 L155 268 L151 267Z M85 271 L87 273 L89 273 L102 287 L104 287 L130 313 L130 315 L142 326 L142 328 L154 340 L154 342 L149 347 L147 345 L147 343 L141 338 L141 336 L129 325 L129 323 L99 293 L97 293 L97 291 L94 290 L94 288 L92 288 L82 278 L82 276 L85 272Z M107 277 L120 277 L121 278 L121 291 L107 278Z M162 278 L160 280 L158 280 L157 284 L156 284 L157 287 L162 291 L165 290 L169 286 L168 281 L163 278Z M172 288 L167 292 L168 297 L170 297 L175 292 L175 289 L173 288Z M282 288 L284 288 L284 390 L265 390 L264 382 L263 382 L261 359 L260 359 L260 364 L259 364 L257 387 L255 388 L255 387 L252 387 L252 386 L244 385 L244 384 L241 384 L239 382 L240 381 L240 332 L239 331 L271 298 L273 298 L282 289Z M177 292 L171 297 L171 301 L175 306 L180 304 L183 300 L183 297 L179 293 L177 293Z M77 292 L81 292 L81 296 L80 296 L78 302 L75 299 L75 296 L77 295 L77 293Z M124 293 L125 294 L137 294 L137 307 L124 294Z M60 302 L61 302 L61 304 L60 303Z M80 302 L93 302 L93 313 L92 313 L92 315 L106 315 L106 330 L118 330 L119 345 L121 345 L123 347 L127 347 L127 349 L130 350 L131 361 L134 362 L134 366 L131 369 L129 369 L127 367 L124 360 L122 359 L122 357 L120 356 L120 354 L118 353 L118 351 L116 350 L116 348 L114 347 L114 345 L112 344 L112 342 L110 341 L108 336 L105 334 L105 332 L102 330 L102 328 L99 326 L99 324 L87 312 L87 310 L85 310 L83 308 L83 306 L80 303Z M65 307 L67 308 L67 310 L68 310 L68 312 L69 312 L69 314 L70 314 L70 316 L73 320 L74 326 L76 328 L76 332 L78 334 L79 343 L80 343 L80 350 L81 350 L81 369 L80 369 L79 382 L78 382 L76 390 L69 390 L70 379 L71 379 L72 357 L71 357 L71 344 L70 344 L69 330 L68 330 L68 327 L67 327 L67 322 L66 322 L64 312 L62 310 L62 309 L65 309 L65 308Z M140 310 L152 310 L152 323 L140 311Z M155 326 L166 326 L166 328 L162 331 L162 333 L160 333 L157 330 L157 328 L155 327Z M128 351 L126 352 L127 356 L129 355 L129 352 L128 352Z M125 353 L124 353 L124 358 L126 358 L125 354Z" fill="#da1b1b" fill-rule="evenodd"></path></g></g>
  <text x="30" y="112" text-anchor="start" font-family="&#39;Space Grotesk&#39;, Arial, sans-serif" font-weight="700" font-size="116" letter-spacing="0" fill="#0f1729">K</text>
  <path d="M 7.989,3.103 C 7.747,-0.954 0.242,-8.59 0,-10.5 c -0.242,1.909 -7.747,9.545 -7.989,13.603 -0.169,2.868 1.695,4.057 3.39,4.057 1.8351685,-0.021581 3.3508701,-2.8006944 3.873,-3.341 0.242,0.716 -1.603,6.682 -2.179,6.682 l 5.811,0 C 2.33,10.501 0.485,4.535 0.727,3.819 1.1841472,4.3152961 2.5241276,7.0768295 4.601,7.16 6.295,7.159 8.158,5.971 7.989,3.103 z" fill="#0f1729" transform="translate(62,166) scale(3.7143) translate(0,0)"></path>
</svg>