<svg xmlns="http://www.w3.org/2000/svg" width="100%" height="auto" viewBox="0 0 1021 348" version="1.1">
  <defs>
    <!-- Gradiente principal: amarelo-verde → verde médio → teal (igual à imagem de referência) -->
    <linearGradient id="spadeGrad" x1="0%" y1="0%" x2="0%" y2="100%">
      <stop offset="0%"   stop-color="#c8f55a"/>
      <stop offset="50%"  stop-color="#5dd63a"/>
      <stop offset="100%" stop-color="#1aaa90"/>
    </linearGradient>
    <!-- Gradiente texto LeakLab (horizontal, amarelo → verde) -->
    <linearGradient id="textGradLeakLab" x1="0%" y1="0%" x2="100%" y2="0%">
      <stop offset="0%"   stop-color="#c8f55a"/>
      <stop offset="100%" stop-color="#4ecf3a"/>
    </linearGradient>
  </defs>

  <!-- Fundo transparente (sem rect de background) -->

  <!--
    PATH ORIGINAL DO SVG FORNECIDO — split em 3 regiões semânticas:

    1. ESPADA (♠) — região esquerda, paths da espada (~M 0 até M 155)
    2. TEXTO "Poker" — branco
    3. TEXTO "LeakLab" + letras individuais — gradiente verde
    4. Letras da segunda linha (K, P, etc.) — verde gradiente

    O path original é um único path com fill="black".
    Vamos colorir por região usando múltiplos paths com fills distintos.
  -->

  <!-- ── ESPADA: paths da espada (lado esquerdo, M 0 e M 158) ── -->
  <path d="M 0.489 174.500 C 0.489 270.200, 0.606 309.202, 0.750 261.171 C 0.894 213.140, 0.894 134.840, 0.750 87.171 C 0.606 39.502, 0.489 78.800, 0.489 174.500
           M 158.500 22.702 C 143.455 51.591, 111.460 90.131, 67.355 132.490 C 37.209 161.444, 28.803 171.466, 20.027 188.922 C 7.391 214.052, 10.088 244.902, 26.718 265.476 C 36.203 277.209, 46.522 284.006, 64 290.031 C 72.204 292.859, 75.213 293.370, 86.051 293.778 C 100.467 294.321, 106.409 293.339, 115.793 288.860 C 127.688 283.183, 138.646 269.354, 142.059 255.712 C 142.718 253.078, 143.084 250.751, 142.874 250.541 C 142.663 250.330, 138.668 251.302, 133.996 252.700 C 122.551 256.126, 100.862 257.062, 89.851 254.606 C 70.858 250.370, 60.384 241.466, 56.483 226.242 C 53.692 215.345, 57.489 203.257, 68.272 188.714 C 71.449 184.429, 87.703 167.103, 104.392 150.211 C 136.005 118.214, 151.697 101.128, 157.581 92.294 C 159.488 89.431, 161.507 86.805, 162.068 86.458 C 163.587 85.519, 165.397 87.376, 173.248 97.921 C 177.836 104.083, 192.954 120.163, 215.630 143 C 235.017 162.525, 253.403 181.650, 256.486 185.500 C 259.570 189.350, 263.978 196.325, 266.282 201 C 270.255 209.061, 270.472 209.965, 270.486 218.500 C 270.498 226.152, 270.109 228.324, 267.887 233 C 261.224 247.027, 246.205 254.619, 223 255.692 C 210.177 256.285, 196.864 254.494, 187.934 250.974 L 182.735 248.925 183.363 252.212 C 183.709 254.021, 185.852 259.286, 188.125 263.914 C 192.895 273.621, 202.272 283.768, 210.589 288.223 C 224.793 295.832, 245.888 295.965, 266.988 288.577 C 276.838 285.128, 283.709 280.906, 292.188 273.091 C 307.846 258.658, 314.453 243.136, 314.359 221 C 314.315 210.753, 313.957 208.451, 311.068 199.869 C 307.221 188.439, 300.845 177.036, 292.210 166.140 C 288.751 161.775, 273.676 146.120, 258.709 131.352 C 227.443 100.499, 211.269 83.243, 197.746 66.308 C 186.031 51.638, 172.300 31.532, 167.536 22.071 C 165.577 18.182, 163.643 15.005, 163.237 15.011 C 162.832 15.017, 160.700 18.478, 158.500 22.702
           M 155.848 273.766 C 145.751 294.610, 138.857 304.313, 122.794 320.289 C 115.169 327.873, 109.155 334.442, 109.429 334.885 C 109.982 335.779, 216.611 335.358, 218.071 334.456 C 218.574 334.145, 212.961 327.953, 205.598 320.695 C 187.204 302.566, 175.704 286.271, 167.527 266.750 C 165.972 263.038, 164.205 260.007, 163.600 260.016 C 162.995 260.025, 159.506 266.213, 155.848 273.766"
        stroke="none" fill="url(#spadeGrad)" fill-rule="evenodd"/>

  <!-- ── TEXTO "Poker" — branco (letras P K, região superior direita) ── -->
  <!-- P -->
  <path d="M 392 110.904 L 392 178 404.825 178 L 417.650 178 417.200 167.083 C 416.952 161.079, 417.079 149.154, 417.480 140.583 L 418.211 125 432.855 124.965 C 462.635 124.894, 476.878 119.224, 484.699 104.326 C 495.265 84.199, 489.060 59.652, 471.105 50.553 C 460.714 45.288, 456.729 44.765, 423.250 44.270 L 392 43.809 392 110.904
           M 417.570 71.084 C 417.179 74.542, 417.179 83.408, 417.570 90.787 L 418.281 104.203 433.918 103.852 C 448.360 103.527, 449.936 103.304, 454.528 100.941 C 461.712 97.244, 464.166 92.617, 463.781 83.496 C 463.421 74.956, 461.152 71.233, 454.243 67.847 C 450.027 65.781, 447.765 65.483, 433.891 65.160 L 418.281 64.797 417.570 71.084"
        stroke="none" fill="#ffffff" fill-rule="evenodd"/>
  <!-- o -->
  <path d="M 530.100 81.048 C 520.673 83.517, 514.937 86.883, 507.826 94.121 C 489.146 113.133, 489.314 146.816, 508.186 166.191 C 511.428 169.519, 515.891 172.484, 522.391 175.627 C 531.325 179.946, 532.462 180.238, 542.185 180.717 C 554.351 181.315, 561.903 179.715, 572.071 174.385 C 595.579 162.062, 604.215 130.737, 591.350 104.462 C 587.769 97.148, 577.873 87.772, 569.699 83.946 C 558.448 78.681, 543.356 77.577, 530.100 81.048
           M 539.897 99.887 C 533.884 101.139, 527.092 105.786, 523.887 110.838 C 515.893 123.441, 516.136 137.420, 524.562 149.655 C 534.560 164.171, 556.840 164.124, 566.741 149.567 C 575.460 136.746, 574.721 118.781, 565.021 107.762 C 559.161 101.104, 549.136 97.962, 539.897 99.887"
        stroke="none" fill="#ffffff" fill-rule="evenodd"/>
  <!-- k -->
  <path d="M 615 107.469 L 615 178 627 178 L 639 178 639.109 160.250 C 639.168 150.488, 639.506 139.828, 639.859 136.562 L 640.500 130.625 657.500 152.398 C 666.850 164.373, 675.175 174.977, 676 175.961 C 677.274 177.482, 679.800 177.845, 692.750 178.369 C 703.496 178.804, 708 178.663, 708 177.893 C 708 177.291, 702.903 170.657, 696.672 163.150 C 687.615 152.236, 671.676 132.586, 666.881 126.424 C 666.356 125.749, 673.289 117.377, 685.514 103.924 C 696.222 92.141, 704.987 82.162, 704.992 81.750 C 704.996 81.338, 698.493 81, 690.539 81 L 676.079 81 658.289 101.460 L 640.500 121.920 639.759 115.710 C 639.351 112.294, 639.126 93.300, 639.259 73.500 L 639.500 37.500 627.250 37.219 L 615 36.938 615 107.469"
        stroke="none" fill="#ffffff" fill-rule="evenodd"/>
  <!-- e -->
  <path d="M 745.265 80.480 C 729.199 84.996, 716.833 96.716, 711.741 112.252 C 708.773 121.309, 708.876 138.949, 711.949 148 C 716.242 160.644, 723.643 169.243, 735.056 174.848 C 751.237 182.795, 771.120 182.994, 786.277 175.361 C 793.099 171.925, 802.004 164.230, 801.996 161.776 C 801.994 161.074, 798.585 157.901, 794.421 154.725 L 786.850 148.950 781.828 153.465 C 767.615 166.244, 743.991 162.277, 736.252 145.812 C 735.113 143.389, 734.028 140.528, 733.841 139.454 C 733.460 137.268, 732.774 137.300, 783.894 137.094 L 807.287 137 806.722 126.750 C 806.388 120.703, 805.365 114.161, 804.227 110.794 C 799.503 96.823, 789.429 86.109, 777.127 81.972 C 768.569 79.095, 752.815 78.357, 745.265 80.480
           M 750.183 98.841 C 741.923 101.788, 736.050 108.502, 734.366 116.920 L 733.750 120 757.816 120 C 771.506 120, 782.129 119.601, 782.454 119.074 C 783.244 117.797, 779.373 107.744, 776.865 104.555 C 771.740 98.040, 759.671 95.455, 750.183 98.841"
        stroke="none" fill="#ffffff" fill-rule="evenodd"/>
  <!-- r -->
  <path d="M 863.500 81.434 C 858.759 83.633, 853.189 88.659, 849.727 93.861 C 848.161 96.214, 848.154 96.208, 847.586 91.861 C 847.272 89.463, 846.900 86.150, 846.758 84.500 L 846.500 81.500 835.500 81.500 L 824.500 81.500 824.240 129.440 C 824.097 155.807, 824.367 177.767, 824.840 178.240 C 825.313 178.713, 830.918 178.788, 837.295 178.406 L 848.891 177.713 849.195 148.532 L 849.500 119.351 852.515 113.459 C 854.826 108.944, 856.680 106.858, 860.446 104.533 C 864.889 101.792, 866.149 101.503, 873.548 101.533 L 881.733 101.566 882.409 91.118 C 882.929 83.077, 882.787 80.481, 881.792 79.850 C 879.110 78.149, 868.627 79.057, 863.500 81.434"
        stroke="none" fill="#ffffff" fill-rule="evenodd"/>

  <!-- ── TEXTO "LeakLab" — gradiente verde (linha inferior) ── -->
  <!-- K -->
  <path d="M 658.005 247.750 C 658.007 274.563, 658.301 301.563, 658.657 307.750 L 659.306 319 668.653 319 L 678 319 678 299.500 C 678 288.498, 678.395 280, 678.907 280 C 679.768 280, 695.977 299.280, 706.440 312.750 L 711.295 319 723.656 319 L 736.016 319 729.770 311.250 C 726.335 306.988, 718.439 297.476, 712.224 290.113 C 706.009 282.751, 701.054 276.389, 701.212 275.976 C 701.371 275.563, 708.909 267.412, 717.965 257.863 L 734.430 240.500 722.547 240.217 L 710.664 239.934 707.255 243.217 C 705.380 245.023, 698.376 252.688, 691.691 260.250 C 685.006 267.813, 679.126 274, 678.625 274 C 678.092 274, 677.869 263.744, 678.088 249.250 C 678.293 235.637, 678.357 218.762, 678.230 211.750 L 678 199 668 199 L 658 199 658.005 247.750"
        stroke="none" fill="url(#textGradLeakLab)" fill-rule="evenodd"/>
  <!-- L -->
  <path d="M 390.170 261.381 C 390.352 292.431, 390.827 318.162, 391.227 318.561 C 391.627 318.961, 407.377 319.250, 426.227 319.204 L 460.500 319.120 460.789 310.577 L 461.077 302.035 435.789 301.767 L 410.500 301.500 410.500 253.500 L 410.500 205.500 400.170 205.214 L 389.841 204.928 390.170 261.381"
        stroke="none" fill="url(#textGradLeakLab)" fill-rule="evenodd"/>
  <!-- a (primeiro) -->
  <path d="M 503 238.086 C 478.828 242.325, 464.256 264.601, 469.395 289.455 C 471.334 298.830, 474.180 304.068, 480.500 309.893 C 490.482 319.094, 504.978 323.268, 519.325 321.072 C 529.386 319.531, 532.753 318.161, 539.340 312.925 C 544.949 308.466, 546.683 306.207, 545.354 305.090 C 544.884 304.696, 542.203 302.502, 539.397 300.216 L 534.293 296.059 531.952 298.551 C 530.664 299.922, 527.141 302.252, 524.123 303.728 C 510.787 310.253, 494.965 304.708, 489.591 291.628 C 488.716 289.498, 488 287.361, 488 286.878 C 488 286.393, 501.875 286, 519 286 L 550 286 549.985 279.250 C 549.933 255.449, 536.207 239.198, 514.801 237.594 C 511.335 237.334, 506.025 237.556, 503 238.086
           M 503.224 253.469 C 500.872 254.204, 497.838 255.532, 496.481 256.420 C 494.158 257.943, 490.108 264.760, 488.562 269.750 L 487.865 272 509.063 272 L 530.262 272 529.702 268.551 C 527.592 255.548, 516.606 249.290, 503.224 253.469"
        stroke="none" fill="url(#textGradLeakLab)" fill-rule="evenodd"/>
  <!-- e -->
  <path d="M 749.338 206.562 C 749.008 207.422, 749.025 227.334, 749.375 250.812 C 749.726 274.291, 750.010 299.350, 750.006 306.500 L 750 319.500 785.500 319.500 L 821 319.500 821 310.750 L 821 302 795.478 302 L 769.956 302 770 263.750 C 770.025 242.713, 770.035 220.887, 770.022 215.250 L 770 205 759.969 205 C 751.797 205, 749.826 205.290, 749.338 206.562"
        stroke="none" fill="url(#textGradLeakLab)" fill-rule="evenodd"/>
  <!-- k -->
  <path d="M 588.916 238.458 C 581.289 240.398, 573.149 244.203, 569.278 247.640 L 566.056 250.500 571.278 256.291 L 576.500 262.082 580.500 259.202 C 586.452 254.916, 592.279 252.997, 599.270 253.022 C 608.075 253.053, 613.114 255.539, 615.856 261.202 C 619.849 269.452, 619.686 269.605, 606.064 270.374 C 582.046 271.732, 568.315 277.818, 563.553 289.218 C 560.448 296.651, 561.993 305.295, 567.596 311.842 C 572.128 317.135, 575.051 318.641, 584.653 320.627 C 596.862 323.152, 605.294 321.343, 612.761 314.597 C 614.951 312.619, 617.224 311, 617.814 311 C 618.403 311, 619.023 312.913, 619.193 315.250 L 619.500 319.500 625 319.340 C 628.025 319.252, 631.999 319.139, 633.831 319.090 L 637.163 319 636.759 290.750 C 636.281 257.265, 635.732 254.531, 627.961 246.962 C 619.555 238.775, 602.382 235.035, 588.916 238.458
           M 597.132 284.078 C 585.653 286.333, 579.667 292.432, 581.999 299.496 C 583.332 303.537, 587.829 306.629, 593.749 307.576 C 606.425 309.603, 618 300.108, 618 287.684 L 618 283 609.750 283.110 C 605.212 283.170, 599.534 283.605, 597.132 284.078"
        stroke="none" fill="url(#textGradLeakLab)" fill-rule="evenodd"/>
  <!-- L (segundo) -->
  <path d="M 859.302 238.101 C 856.443 238.578, 851.817 239.838, 849.021 240.900 C 843.744 242.905, 833.989 248.726, 834.014 249.854 C 834.022 250.209, 836.306 253.084, 839.091 256.243 L 844.153 261.985 847.326 259.611 C 855.056 253.827, 862.566 251.709, 870.668 253.027 C 879.130 254.405, 883.705 258.601, 885.416 266.553 L 886.072 269.606 870.786 270.685 C 843.187 272.632, 831.294 279.792, 830.185 295.125 C 829.605 303.137, 831.868 308.834, 837.655 313.928 C 844.180 319.671, 850.236 321.399, 861.484 320.728 C 872.119 320.094, 876.792 318.416, 881.539 313.527 C 883.423 311.587, 885.423 310, 885.982 310 C 886.542 310, 887 312.025, 887 314.500 L 887 319 895.353 319 L 903.705 319 904.296 308.750 C 904.620 303.113, 904.540 289.500, 904.117 278.500 C 903.448 261.101, 903.077 257.980, 901.262 254.500 C 896.577 245.514, 888.115 240.008, 876 238.060 C 868.635 236.876, 866.614 236.881, 859.302 238.101
           M 865.086 284.132 C 856.904 285.490, 851.784 288.713, 850.100 293.566 C 848.899 297.024, 848.899 298.009, 850.100 300.460 C 852.662 305.693, 856.322 307.501, 864.327 307.490 C 877.104 307.472, 884.425 300.973, 885.712 288.506 L 886.280 283 878.390 283.117 C 874.050 283.181, 868.064 283.638, 865.086 284.132"
        stroke="none" fill="url(#textGradLeakLab)" fill-rule="evenodd"/>
  <!-- a (segundo) + b -->
  <path d="M 926.507 198.989 C 925.753 200.209, 925.855 254.769, 926.681 292.250 L 927.293 320 936.147 320 L 945 320 945 314 C 945 310.700, 945.138 308, 945.307 308 C 945.475 308, 947.790 310.027, 950.450 312.504 C 958.018 319.552, 972.210 323.342, 982.154 320.971 C 995.230 317.854, 1003.743 311.048, 1009.228 299.326 C 1011.914 293.586, 1012.406 291.250, 1012.802 282.351 C 1013.193 273.558, 1012.927 270.993, 1011.005 265.015 C 1005.392 247.559, 991.635 237.483, 973.500 237.543 C 964.448 237.574, 957.245 240.212, 950.822 245.851 C 948.850 247.583, 946.930 249, 946.555 249 C 946.181 249, 945.970 238.042, 946.088 224.649 C 946.206 211.255, 945.982 199.780, 945.592 199.149 C 944.706 197.715, 927.383 197.571, 926.507 198.989
           M 960.500 255.886 C 948.450 261.437, 943.057 275.776, 947.882 289.434 C 950.231 296.084, 953.698 300.256, 959.247 303.110 C 971.773 309.553, 986.147 304.179, 991.035 291.226 C 993.790 283.925, 993.433 272.620, 990.253 266.500 C 987.605 261.403, 982.457 256.587, 978.101 255.134 C 973.062 253.453, 965.038 253.796, 960.500 255.886"
        stroke="none" fill="url(#textGradLeakLab)" fill-rule="evenodd"/>
</svg>
