<svg xmlns="http://www.w3.org/2000/svg" viewBox="0 0 64 64"><rect x="0" y="0" width="64" height="64" rx="14" fill="#0A0E1A"/>
<g transform="rotate(25 32 33)">
<circle cx="32" cy="33" r="17" fill="none" stroke="#2DD4BF" stroke-width="5" stroke-dasharray="38 15.4" stroke-linecap="round"/>
</g>
<line x1="32" y1="5"  x2="32" y2="12" stroke="#2DD4BF" stroke-width="4.5" stroke-linecap="round"/>
<line x1="32" y1="54" x2="32" y2="61" stroke="#2DD4BF" stroke-width="4.5" stroke-linecap="round"/>
<line x1="4"  y1="33" x2="11" y2="33" stroke="#2DD4BF" stroke-width="4.5" stroke-linecap="round"/>
<line x1="53" y1="33" x2="60" y2="33" stroke="#2DD4BF" stroke-width="4.5" stroke-linecap="round"/>
<g transform="translate(4.2,6.2) scale(0.275)"><path d="M100 62 C112 78 132 88 132 104 C132 118 116 122 106 114 C107 122 112 130 118 134 L82 134 C88 130 93 122 94 114 C84 122 68 118 68 104 C68 88 88 78 100 62 Z" fill="#E3E8EC"/></g></svg>