<svg xmlns="http://www.w3.org/2000/svg" viewBox="0 0 64 64">
<rect x="0" y="0" width="64" height="64" rx="14" fill="#0A0E1A"/>
<g transform="translate(-18.27,-11.81) scale(0.2081)"><g transform="translate(0.000000,445.000000) scale(0.100000,-0.100000)" fill="#2DD4BF"><path d="M2244 3271 c-319 -328 -610 -653 -679 -757 -78 -117 -110 -229 -102
-349 17 -245 195 -433 427 -452 119 -10 240 32 365 127 36 27 65 44 65 37 0
-37 -86 -221 -160 -342 -47 -78 -163 -235 -204 -277 l-27 -28 481 0 480 0 -59
70 c-120 143 -238 340 -296 493 -35 95 -33 106 13 67 20 -17 62 -47 92 -67
203 -135 455 -105 622 74 79 86 118 189 118 315 0 129 -45 258 -131 374 -55
74 -260 306 -359 405 -41 41 -166 167 -276 280 l-201 204 -169 -174z"/></g></g>
</svg>