<svg xmlns="http://www.w3.org/2000/svg" viewBox="0 0 476 445" role="img" aria-label="GrindLab">
<title>GrindLab</title>
<g transform="translate(0.000000,445.000000) scale(0.100000,-0.100000)" fill="#2DD4BF" stroke="none">
<path d="M2344 4442 c-5 -4 -18 -18 -27 -32 -15 -22 -17 -60 -17 -335 0 -292
1 -312 20 -343 25 -41 53 -52 101 -39 27 6 41 17 49 37 8 19 12 133 13 350 l1
322 -27 24 c-28 24 -89 33 -113 16z"/>
<path d="M2680 4185 c0 -8 6 -15 14 -15 48 0 493 -309 661 -459 101 -90 283
-280 290 -302 4 -11 10 -19 15 -19 5 0 24 -21 41 -47 18 -27 36 -50 39 -53 11
-8 31 -50 24 -50 -7 0 -93 71 -189 155 -78 69 -182 154 -223 183 -97 68 -322
167 -322 141 0 -11 11 -21 115 -105 281 -226 507 -523 646 -849 78 -185 86
-190 309 -190 l165 0 1 50 c1 114 -67 319 -182 545 -101 200 -186 314 -368
495 -242 240 -550 423 -836 496 -47 11 -92 24 -100 27 -8 2 -34 7 -57 9 -34 3
-43 0 -43 -12z"/>
<path d="M1980 4170 c-189 -32 -457 -136 -596 -230 -169 -115 -347 -269 -427
-368 -117 -147 -134 -169 -168 -222 -134 -206 -255 -524 -276 -722 l-6 -58 79
0 c43 0 143 -1 222 -2 113 -1 145 1 156 13 8 8 24 43 36 79 28 82 77 187 90
195 5 3 10 13 10 21 0 43 203 323 333 459 53 55 96 106 97 113 0 15 -52 -5
-115 -44 -22 -13 -49 -30 -60 -37 -11 -6 -22 -14 -25 -17 -3 -3 -40 -36 -83
-73 -87 -77 -196 -203 -278 -320 -29 -43 -63 -90 -74 -105 -11 -15 -28 -38
-37 -51 -28 -40 -32 -16 -8 46 29 71 111 241 148 306 41 72 149 214 217 286
151 159 416 337 575 386 30 9 75 25 100 35 25 9 79 25 120 35 41 10 81 22 88
28 8 6 12 44 12 122 0 109 -5 146 -19 144 -3 0 -53 -9 -111 -19z"/>
<path d="M3490 2690 c0 -6 31 -55 70 -108 194 -269 221 -418 127 -702 -43
-129 -69 -193 -99 -241 -15 -25 -28 -49 -28 -52 0 -15 -83 -140 -145 -221
-110 -142 -323 -346 -362 -346 -7 0 -13 -4 -13 -8 0 -7 -104 -79 -155 -108
-125 -71 -169 -94 -175 -94 -4 0 -11 -7 -14 -16 -6 -14 -1 -16 36 -10 24 3 61
9 83 12 22 3 49 9 60 13 11 5 52 21 90 36 245 95 484 279 657 505 104 136 189
298 233 442 14 46 32 103 40 128 15 51 27 125 30 185 1 22 3 50 4 63 l1 22
264 0 c145 0 277 3 294 6 23 5 36 17 53 49 22 41 22 44 6 78 -11 23 -28 39
-48 46 -20 7 -129 11 -294 11 -308 0 -335 5 -417 78 -29 26 -82 72 -118 101
-36 30 -85 74 -110 98 -43 42 -70 54 -70 33z"/>
<path d="M264 2366 c-38 -17 -45 -26 -50 -75 -4 -32 0 -44 25 -70 l29 -31 330
0 330 0 29 24 c41 35 45 101 8 136 l-27 25 -321 2 c-256 2 -328 0 -353 -11z"/>
<path d="M513 1984 c-17 -46 94 -412 168 -554 16 -30 29 -61 29 -67 0 -7 4
-13 9 -13 5 0 12 -8 15 -18 13 -40 130 -212 212 -311 48 -58 122 -136 163
-173 75 -65 196 -158 207 -158 3 0 28 -15 57 -33 173 -110 490 -247 573 -247
12 0 37 -6 55 -13 19 -7 50 -13 69 -12 l35 0 0 83 0 84 -70 25 c-38 14 -88 32
-109 40 -37 13 -199 91 -271 130 -27 15 -121 76 -185 120 -114 79 -379 332
-422 405 -11 18 -33 48 -49 66 -40 45 -36 60 5 25 103 -87 291 -240 311 -253
12 -8 49 -33 81 -55 97 -65 254 -155 271 -155 6 0 22 -9 36 -20 14 -11 32 -17
41 -14 22 8 20 17 -8 34 -57 35 -202 163 -296 260 -116 120 -191 215 -262 330
-41 66 -71 127 -184 365 -31 67 -57 93 -121 121 -49 22 -67 24 -204 24 -127 0
-151 -2 -156 -16z"/>
<path d="M4039 1973 c-5 -13 -9 -27 -9 -31 0 -8 -61 -194 -84 -258 -19 -51
-106 -218 -154 -293 -61 -97 -157 -213 -254 -307 -175 -171 -331 -273 -590
-388 -20 -9 -45 -16 -56 -16 -12 0 -23 -4 -26 -9 -5 -7 -37 -18 -106 -36 -3 0
-22 -4 -42 -8 -45 -9 -46 -14 -50 -144 -2 -61 1 -94 8 -97 11 -4 167 20 194
30 8 3 52 16 97 30 175 51 320 121 500 241 195 130 325 260 489 485 57 78 191
338 226 438 61 172 104 369 84 383 -6 4 -57 7 -114 6 -100 -1 -104 -2 -113
-26z"/>
<path d="M2329 814 l-24 -26 0 -308 0 -308 24 -26 c19 -20 34 -26 67 -26 50 0
80 25 89 74 4 17 5 158 3 313 -3 270 -4 283 -24 303 -13 13 -38 23 -66 25 -38
4 -49 1 -69 -21z"/>
</g>
<g transform="translate(0.000000,445.000000) scale(0.100000,-0.100000)" fill="#E3E8EC" stroke="none">
<path d="M2244 3271 c-319 -328 -610 -653 -679 -757 -78 -117 -110 -229 -102
-349 17 -245 195 -433 427 -452 119 -10 240 32 365 127 36 27 65 44 65 37 0
-37 -86 -221 -160 -342 -47 -78 -163 -235 -204 -277 l-27 -28 481 0 480 0 -59
70 c-120 143 -238 340 -296 493 -35 95 -33 106 13 67 20 -17 62 -47 92 -67
203 -135 455 -105 622 74 79 86 118 189 118 315 0 129 -45 258 -131 374 -55
74 -260 306 -359 405 -41 41 -166 167 -276 280 l-201 204 -169 -174z"/>
</g>
</svg>